<svg width="300" height="234" viewBox="0 0 300 234" fill="none" xmlns="http://www.w3.org/2000/svg">
<rect width="300" height="234" transform="matrix(1 0 0 -1 0 234)" fill="white" style="mix-blend-mode:multiply"/>
<path d="M119.362 105.337V109.194C119.362 110.028 119.453 110.545 119.636 110.747C119.883 111.034 120.257 111.177 120.759 111.177H121.266V111.538H115.593V111.177H116.091C116.651 111.177 117.051 110.994 117.292 110.63C117.422 110.428 117.487 109.95 117.487 109.194V100.64C117.487 99.8063 117.399 99.2887 117.224 99.0869C116.97 98.8005 116.592 98.6572 116.091 98.6572H115.593V98.2959H120.446C121.631 98.2959 122.565 98.4196 123.249 98.667C123.932 98.9079 124.509 99.318 124.977 99.8975C125.446 100.477 125.681 101.164 125.681 101.958C125.681 103.039 125.322 103.918 124.606 104.595C123.897 105.272 122.891 105.61 121.589 105.61C121.27 105.61 120.925 105.588 120.554 105.542C120.182 105.496 119.785 105.428 119.362 105.337ZM119.362 104.78C119.707 104.845 120.013 104.894 120.28 104.927C120.547 104.959 120.775 104.976 120.964 104.976C121.641 104.976 122.224 104.715 122.712 104.194C123.207 103.667 123.454 102.987 123.454 102.153C123.454 101.58 123.337 101.05 123.102 100.562C122.868 100.067 122.536 99.6989 122.106 99.458C121.677 99.2106 121.188 99.0869 120.641 99.0869C120.309 99.0869 119.883 99.1488 119.362 99.2725V104.78ZM145.008 97.9932C146.727 97.9932 148.214 98.6475 149.471 99.9561C150.734 101.258 151.365 102.886 151.365 104.839C151.365 106.851 150.731 108.521 149.461 109.849C148.191 111.177 146.655 111.841 144.852 111.841C143.029 111.841 141.496 111.193 140.252 109.897C139.015 108.602 138.397 106.925 138.397 104.868C138.397 102.765 139.113 101.05 140.545 99.7217C141.788 98.5693 143.276 97.9932 145.008 97.9932ZM144.822 98.7061C143.637 98.7061 142.687 99.1455 141.971 100.024C141.079 101.118 140.633 102.72 140.633 104.829C140.633 106.991 141.095 108.654 142.02 109.819C142.729 110.705 143.667 111.147 144.832 111.147C146.076 111.147 147.101 110.662 147.908 109.692C148.722 108.722 149.129 107.192 149.129 105.103C149.129 102.837 148.683 101.147 147.791 100.034C147.075 99.1488 146.085 98.7061 144.822 98.7061ZM169.618 111.177V111.538H163.945V111.177H164.413C164.96 111.177 165.357 111.017 165.605 110.698C165.761 110.49 165.839 109.989 165.839 109.194V100.64C165.839 99.9691 165.797 99.5264 165.712 99.3115C165.647 99.1488 165.514 99.0088 165.312 98.8916C165.025 98.7354 164.726 98.6572 164.413 98.6572H163.945V98.2959H169.618V98.6572H169.14C168.6 98.6572 168.206 98.8167 167.958 99.1357C167.796 99.3441 167.714 99.8454 167.714 100.64V109.194C167.714 109.865 167.756 110.308 167.841 110.522C167.906 110.685 168.043 110.825 168.251 110.942C168.531 111.099 168.827 111.177 169.14 111.177H169.618ZM181.143 98.2959H184.737L192.832 108.228V100.591C192.832 99.777 192.741 99.2692 192.559 99.0674C192.318 98.7939 191.937 98.6572 191.416 98.6572H190.957V98.2959H195.567V98.6572H195.098C194.538 98.6572 194.141 98.8265 193.907 99.165C193.763 99.3734 193.692 99.8486 193.692 100.591V111.753H193.34L184.61 101.089V109.243C184.61 110.057 184.698 110.565 184.874 110.767C185.121 111.04 185.502 111.177 186.016 111.177H186.485V111.538H181.875V111.177H182.334C182.901 111.177 183.301 111.007 183.536 110.669C183.679 110.461 183.75 109.985 183.75 109.243V100.034C183.366 99.585 183.073 99.2887 182.872 99.1455C182.676 99.0023 182.387 98.8688 182.002 98.7451C181.814 98.6865 181.527 98.6572 181.143 98.6572V98.2959ZM218.732 98.2959L218.879 101.401H218.507C218.436 100.854 218.338 100.464 218.215 100.229C218.013 99.8519 217.743 99.5752 217.404 99.3994C217.072 99.2171 216.632 99.126 216.086 99.126H214.22V109.243C214.22 110.057 214.308 110.565 214.484 110.767C214.731 111.04 215.112 111.177 215.627 111.177H216.086V111.538H210.47V111.177H210.939C211.499 111.177 211.896 111.007 212.131 110.669C212.274 110.461 212.345 109.985 212.345 109.243V99.126H210.754C210.135 99.126 209.696 99.1715 209.435 99.2627C209.097 99.3864 208.807 99.624 208.566 99.9756C208.325 100.327 208.182 100.802 208.136 101.401H207.765L207.922 98.2959H218.732ZM239.856 97.9932V102.573H239.495C239.378 101.694 239.166 100.994 238.86 100.474C238.561 99.9528 238.131 99.5394 237.571 99.2334C237.011 98.9274 236.432 98.7744 235.833 98.7744C235.156 98.7744 234.596 98.9827 234.153 99.3994C233.71 99.8096 233.489 100.278 233.489 100.806C233.489 101.209 233.629 101.577 233.909 101.909C234.313 102.397 235.273 103.049 236.79 103.862C238.027 104.526 238.87 105.037 239.319 105.396C239.775 105.747 240.123 106.164 240.364 106.646C240.612 107.127 240.735 107.632 240.735 108.159C240.735 109.162 240.345 110.028 239.563 110.757C238.789 111.479 237.789 111.841 236.565 111.841C236.181 111.841 235.82 111.812 235.481 111.753C235.28 111.72 234.86 111.603 234.222 111.401C233.59 111.193 233.19 111.089 233.02 111.089C232.858 111.089 232.727 111.138 232.63 111.235C232.539 111.333 232.47 111.535 232.425 111.841H232.063V107.3H232.425C232.594 108.25 232.822 108.963 233.108 109.438C233.395 109.907 233.831 110.298 234.417 110.61C235.009 110.923 235.657 111.079 236.36 111.079C237.174 111.079 237.815 110.864 238.284 110.435C238.759 110.005 238.997 109.497 238.997 108.911C238.997 108.586 238.906 108.257 238.724 107.925C238.548 107.593 238.271 107.284 237.893 106.997C237.64 106.802 236.946 106.388 235.813 105.757C234.681 105.119 233.873 104.611 233.391 104.233C232.916 103.856 232.555 103.439 232.307 102.983C232.06 102.528 231.936 102.026 231.936 101.479C231.936 100.529 232.301 99.7119 233.03 99.0283C233.759 98.3382 234.687 97.9932 235.813 97.9932C236.516 97.9932 237.262 98.1657 238.05 98.5107C238.414 98.6735 238.671 98.7549 238.821 98.7549C238.99 98.7549 239.127 98.7061 239.231 98.6084C239.342 98.5042 239.43 98.2992 239.495 97.9932H239.856ZM122.575 120.993C124.294 120.993 125.781 121.647 127.038 122.956C128.301 124.258 128.932 125.886 128.932 127.839C128.932 129.851 128.298 131.521 127.028 132.849C125.759 134.177 124.222 134.841 122.419 134.841C120.596 134.841 119.063 134.193 117.819 132.897C116.582 131.602 115.964 129.925 115.964 127.868C115.964 125.765 116.68 124.05 118.112 122.722C119.356 121.569 120.843 120.993 122.575 120.993ZM122.39 121.706C121.205 121.706 120.254 122.146 119.538 123.024C118.646 124.118 118.2 125.72 118.2 127.829C118.2 129.991 118.662 131.654 119.587 132.819C120.296 133.705 121.234 134.147 122.399 134.147C123.643 134.147 124.668 133.662 125.475 132.692C126.289 131.722 126.696 130.192 126.696 128.103C126.696 125.837 126.25 124.147 125.358 123.034C124.642 122.149 123.653 121.706 122.39 121.706ZM140.75 121.296H144.344L152.44 131.228V123.591C152.44 122.777 152.348 122.269 152.166 122.067C151.925 121.794 151.544 121.657 151.024 121.657H150.565V121.296H155.174V121.657H154.705C154.145 121.657 153.748 121.826 153.514 122.165C153.371 122.373 153.299 122.849 153.299 123.591V134.753H152.947L144.217 124.089V132.243C144.217 133.057 144.305 133.565 144.481 133.767C144.728 134.04 145.109 134.177 145.623 134.177H146.092V134.538H141.482V134.177H141.941C142.508 134.177 142.908 134.007 143.143 133.669C143.286 133.461 143.357 132.985 143.357 132.243V123.034C142.973 122.585 142.68 122.289 142.479 122.146C142.283 122.002 141.994 121.869 141.609 121.745C141.421 121.687 141.134 121.657 140.75 121.657V121.296ZM170.947 122.019V127.253H173.857C174.612 127.253 175.116 127.139 175.37 126.911C175.709 126.612 175.898 126.084 175.937 125.329H176.298V129.938H175.937C175.846 129.294 175.754 128.881 175.663 128.698C175.546 128.47 175.354 128.291 175.087 128.161C174.82 128.031 174.41 127.966 173.857 127.966H170.947V132.331C170.947 132.917 170.973 133.275 171.025 133.405C171.077 133.529 171.168 133.63 171.298 133.708C171.428 133.78 171.676 133.815 172.04 133.815H174.286C175.035 133.815 175.579 133.763 175.917 133.659C176.256 133.555 176.581 133.35 176.894 133.044C177.297 132.64 177.711 132.032 178.134 131.218H178.525L177.382 134.538H167.177V134.177H167.646C167.958 134.177 168.254 134.102 168.534 133.952C168.743 133.848 168.883 133.692 168.954 133.483C169.032 133.275 169.072 132.849 169.072 132.204V123.601C169.072 122.761 168.987 122.243 168.818 122.048C168.583 121.787 168.193 121.657 167.646 121.657H167.177V121.296H177.382L177.529 124.196H177.148C177.011 123.5 176.858 123.021 176.689 122.761C176.526 122.5 176.282 122.302 175.956 122.165C175.696 122.067 175.237 122.019 174.579 122.019H170.947Z" fill="#091242"/>
<path d="M62.7012 106.302L80.6843 93.612L98.6675 106.302L100.666 128.221L80.6843 137.449L60.7031 128.221L62.7012 106.302Z" stroke="#091242"/>
<path d="M66.0648 108.244L80.6843 97.9274L95.3039 108.244L96.9283 126.063L80.6843 133.566L64.4404 126.063L66.0648 108.244Z" stroke="#091242"/>
<path d="M69.3785 110.157L80.6843 102.179L91.9901 110.157L93.2463 123.937L80.6843 129.739L68.1223 123.937L69.3785 110.157Z" stroke="#091242"/>
<path d="M73.0542 112.279L80.6843 106.895L88.3145 112.279L89.1623 121.579L80.6843 125.495L72.2064 121.579L73.0542 112.279Z" stroke="#091242"/>
<rect x="183.865" y="121.432" width="57.5341" height="2.17102" fill="#091242"/>
<rect x="183.865" y="126.498" width="57.5341" height="2.17102" fill="#091242"/>
<rect x="183.865" y="131.685" width="57.5341" height="2.17102" fill="#091242"/>
<line x1="299.5" y1="234" x2="299.5" y2="-2.18557e-08" stroke="#4E5683"/>
</svg>
