<svg width="265" height="58" viewBox="0 0 265 58" fill="none" xmlns="http://www.w3.org/2000/svg">
<circle cx="29" cy="29" r="29" fill="url(#paint0_linear_1_1558)"/>
<path d="M41 37.4598V24.5402C40.999 24.3536 40.9512 24.1705 40.8612 24.0095C40.7712 23.8484 40.6423 23.7151 40.4875 23.623L29.4875 17.1369C29.3393 17.0472 29.1711 17 29 17C28.8289 17 28.6607 17.0472 28.5125 17.1369L17.5125 23.623C17.3577 23.7151 17.2288 23.8484 17.1388 24.0095C17.0488 24.1705 17.001 24.3536 17 24.5402V37.4598C17.001 37.6464 17.0488 37.8295 17.1388 37.9905C17.2288 38.1516 17.3577 38.2849 17.5125 38.377L28.5125 44.8631C28.6607 44.9528 28.8289 45 29 45C29.1711 45 29.3393 44.9528 29.4875 44.8631L40.4875 38.377C40.6423 38.2849 40.7712 38.1516 40.8612 37.9905C40.9512 37.8295 40.999 37.6464 41 37.4598V37.4598Z" stroke="#141414" stroke-width="1.5" stroke-linecap="round" stroke-linejoin="round"/>
<path d="M35 34V27.0995L23 20" stroke="#141414" stroke-width="1.5" stroke-linecap="round" stroke-linejoin="round"/>
<path d="M41 24L29.1138 31L17 24" stroke="#141414" stroke-width="1.5" stroke-linecap="round" stroke-linejoin="round"/>
<path d="M29 31V45" stroke="#141414" stroke-width="1.5" stroke-linecap="round" stroke-linejoin="round"/>
<path d="M75.75 38C75.5667 38 75.425 37.95 75.325 37.85C75.225 37.7333 75.175 37.5917 75.175 37.425V21.1C75.175 20.9167 75.225 20.775 75.325 20.675C75.425 20.5583 75.5667 20.5 75.75 20.5H81.425C83.1417 20.5 84.525 20.7583 85.575 21.275C86.625 21.7917 87.3917 22.5583 87.875 23.575C88.3583 24.575 88.6083 25.8083 88.625 27.275C88.6417 28.025 88.65 28.6833 88.65 29.25C88.65 29.8167 88.6417 30.4667 88.625 31.2C88.5917 32.7333 88.3333 34.0083 87.85 35.025C87.3833 36.025 86.6333 36.775 85.6 37.275C84.5833 37.7583 83.2333 38 81.55 38H75.75ZM77.625 35.875H81.425C82.575 35.875 83.4917 35.7167 84.175 35.4C84.8583 35.0833 85.35 34.575 85.65 33.875C85.9667 33.175 86.1333 32.25 86.15 31.1C86.1833 30.6 86.2 30.1667 86.2 29.8C86.2 29.4167 86.2 29.0417 86.2 28.675C86.2 28.2917 86.1833 27.8583 86.15 27.375C86.1167 25.7583 85.7333 24.5667 85 23.8C84.2667 23.0167 83.0333 22.625 81.3 22.625H77.625V35.875ZM97.2613 38.25C95.5447 38.25 94.178 37.725 93.1613 36.675C92.1447 35.6083 91.5863 34.1583 91.4863 32.325C91.4697 32.1083 91.4613 31.8333 91.4613 31.5C91.4613 31.15 91.4697 30.8667 91.4863 30.65C91.553 29.4667 91.828 28.4333 92.3113 27.55C92.7947 26.65 93.453 25.9583 94.2863 25.475C95.1363 24.9917 96.128 24.75 97.2613 24.75C98.528 24.75 99.5863 25.0167 100.436 25.55C101.303 26.0833 101.961 26.8417 102.411 27.825C102.861 28.8083 103.086 29.9583 103.086 31.275V31.7C103.086 31.8833 103.028 32.025 102.911 32.125C102.811 32.225 102.678 32.275 102.511 32.275H93.8613C93.8613 32.2917 93.8613 32.325 93.8613 32.375C93.8613 32.425 93.8613 32.4667 93.8613 32.5C93.8947 33.1833 94.0447 33.825 94.3113 34.425C94.578 35.0083 94.9613 35.4833 95.4613 35.85C95.9613 36.2167 96.5613 36.4 97.2613 36.4C97.8613 36.4 98.3613 36.3083 98.7613 36.125C99.1613 35.9417 99.4863 35.7417 99.7363 35.525C99.9863 35.2917 100.153 35.1167 100.236 35C100.386 34.7833 100.503 34.6583 100.586 34.625C100.67 34.575 100.803 34.55 100.986 34.55H102.186C102.353 34.55 102.486 34.6 102.586 34.7C102.703 34.7833 102.753 34.9083 102.736 35.075C102.72 35.325 102.586 35.6333 102.336 36C102.086 36.35 101.728 36.7 101.261 37.05C100.795 37.4 100.228 37.6917 99.5613 37.925C98.8947 38.1417 98.128 38.25 97.2613 38.25ZM93.8613 30.55H100.711V30.475C100.711 29.725 100.57 29.0583 100.286 28.475C100.02 27.8917 99.628 27.4333 99.1113 27.1C98.5947 26.75 97.978 26.575 97.2613 26.575C96.5447 26.575 95.928 26.75 95.4113 27.1C94.9113 27.4333 94.528 27.8917 94.2613 28.475C93.9947 29.0583 93.8613 29.725 93.8613 30.475V30.55ZM106.676 38C106.509 38 106.367 37.95 106.251 37.85C106.151 37.7333 106.101 37.5917 106.101 37.425V20.825C106.101 20.6583 106.151 20.525 106.251 20.425C106.367 20.3083 106.509 20.25 106.676 20.25H107.851C108.034 20.25 108.176 20.3083 108.276 20.425C108.376 20.525 108.426 20.6583 108.426 20.825V37.425C108.426 37.5917 108.376 37.7333 108.276 37.85C108.176 37.95 108.034 38 107.851 38H106.676ZM112.974 38C112.807 38 112.665 37.95 112.549 37.85C112.449 37.7333 112.399 37.5917 112.399 37.425V25.575C112.399 25.4083 112.449 25.275 112.549 25.175C112.665 25.0583 112.807 25 112.974 25H114.174C114.34 25 114.474 25.0583 114.574 25.175C114.674 25.275 114.724 25.4083 114.724 25.575V37.425C114.724 37.5917 114.674 37.7333 114.574 37.85C114.474 37.95 114.34 38 114.174 38H112.974ZM112.774 22.575C112.607 22.575 112.465 22.525 112.349 22.425C112.249 22.3083 112.199 22.1667 112.199 22V20.65C112.199 20.4833 112.249 20.35 112.349 20.25C112.465 20.1333 112.607 20.075 112.774 20.075H114.349C114.515 20.075 114.649 20.1333 114.749 20.25C114.865 20.35 114.924 20.4833 114.924 20.65V22C114.924 22.1667 114.865 22.3083 114.749 22.425C114.649 22.525 114.515 22.575 114.349 22.575H112.774ZM122.979 38C122.729 38 122.529 37.9417 122.379 37.825C122.245 37.7083 122.137 37.5583 122.054 37.375L117.429 25.775C117.395 25.6917 117.379 25.6083 117.379 25.525C117.379 25.375 117.429 25.25 117.529 25.15C117.629 25.05 117.754 25 117.904 25H119.104C119.287 25 119.429 25.05 119.529 25.15C119.629 25.25 119.687 25.3417 119.704 25.425L123.529 35.275L127.329 25.425C127.362 25.3417 127.42 25.25 127.504 25.15C127.604 25.05 127.745 25 127.929 25H129.154C129.287 25 129.404 25.05 129.504 25.15C129.62 25.25 129.679 25.375 129.679 25.525C129.679 25.6083 129.662 25.6917 129.629 25.775L124.979 37.375C124.912 37.5583 124.804 37.7083 124.654 37.825C124.52 37.9417 124.32 38 124.054 38H122.979ZM137.007 38.25C135.291 38.25 133.924 37.725 132.907 36.675C131.891 35.6083 131.332 34.1583 131.232 32.325C131.216 32.1083 131.207 31.8333 131.207 31.5C131.207 31.15 131.216 30.8667 131.232 30.65C131.299 29.4667 131.574 28.4333 132.057 27.55C132.541 26.65 133.199 25.9583 134.032 25.475C134.882 24.9917 135.874 24.75 137.007 24.75C138.274 24.75 139.332 25.0167 140.182 25.55C141.049 26.0833 141.707 26.8417 142.157 27.825C142.607 28.8083 142.832 29.9583 142.832 31.275V31.7C142.832 31.8833 142.774 32.025 142.657 32.125C142.557 32.225 142.424 32.275 142.257 32.275H133.607C133.607 32.2917 133.607 32.325 133.607 32.375C133.607 32.425 133.607 32.4667 133.607 32.5C133.641 33.1833 133.791 33.825 134.057 34.425C134.324 35.0083 134.707 35.4833 135.207 35.85C135.707 36.2167 136.307 36.4 137.007 36.4C137.607 36.4 138.107 36.3083 138.507 36.125C138.907 35.9417 139.232 35.7417 139.482 35.525C139.732 35.2917 139.899 35.1167 139.982 35C140.132 34.7833 140.249 34.6583 140.332 34.625C140.416 34.575 140.549 34.55 140.732 34.55H141.932C142.099 34.55 142.232 34.6 142.332 34.7C142.449 34.7833 142.499 34.9083 142.482 35.075C142.466 35.325 142.332 35.6333 142.082 36C141.832 36.35 141.474 36.7 141.007 37.05C140.541 37.4 139.974 37.6917 139.307 37.925C138.641 38.1417 137.874 38.25 137.007 38.25ZM133.607 30.55H140.457V30.475C140.457 29.725 140.316 29.0583 140.032 28.475C139.766 27.8917 139.374 27.4333 138.857 27.1C138.341 26.75 137.724 26.575 137.007 26.575C136.291 26.575 135.674 26.75 135.157 27.1C134.657 27.4333 134.274 27.8917 134.007 28.475C133.741 29.0583 133.607 29.725 133.607 30.475V30.55ZM146.397 38C146.23 38 146.088 37.95 145.972 37.85C145.872 37.7333 145.822 37.5917 145.822 37.425V25.6C145.822 25.4333 145.872 25.2917 145.972 25.175C146.088 25.0583 146.23 25 146.397 25H147.547C147.713 25 147.855 25.0583 147.972 25.175C148.088 25.2917 148.147 25.4333 148.147 25.6V26.7C148.48 26.1333 148.938 25.7083 149.522 25.425C150.105 25.1417 150.805 25 151.622 25H152.622C152.788 25 152.922 25.0583 153.022 25.175C153.122 25.275 153.172 25.4083 153.172 25.575V26.6C153.172 26.7667 153.122 26.9 153.022 27C152.922 27.1 152.788 27.15 152.622 27.15H151.122C150.222 27.15 149.513 27.4167 148.997 27.95C148.48 28.4667 148.222 29.175 148.222 30.075V37.425C148.222 37.5917 148.163 37.7333 148.047 37.85C147.93 37.95 147.788 38 147.622 38H146.397ZM157.594 42.75C157.46 42.75 157.344 42.7 157.244 42.6C157.144 42.5 157.094 42.3833 157.094 42.25C157.094 42.1833 157.102 42.1167 157.119 42.05C157.135 41.9833 157.169 41.9 157.219 41.8L159.144 37.225L154.369 25.95C154.285 25.75 154.244 25.6083 154.244 25.525C154.244 25.375 154.294 25.25 154.394 25.15C154.494 25.05 154.619 25 154.769 25H155.994C156.16 25 156.294 25.0417 156.394 25.125C156.494 25.2083 156.56 25.3083 156.594 25.425L160.394 34.525L164.294 25.425C164.344 25.3083 164.41 25.2083 164.494 25.125C164.594 25.0417 164.735 25 164.919 25H166.094C166.244 25 166.369 25.05 166.469 25.15C166.569 25.25 166.619 25.3667 166.619 25.5C166.619 25.5833 166.577 25.7333 166.494 25.95L159.394 42.325C159.344 42.4417 159.269 42.5417 159.169 42.625C159.085 42.7083 158.952 42.75 158.769 42.75H157.594ZM179.882 38.25C178.615 38.25 177.557 38.0083 176.707 37.525C175.857 37.0417 175.207 36.375 174.757 35.525C174.307 34.6583 174.057 33.675 174.007 32.575C173.99 32.2917 173.982 31.9333 173.982 31.5C173.982 31.05 173.99 30.6917 174.007 30.425C174.057 29.3083 174.307 28.325 174.757 27.475C175.224 26.625 175.882 25.9583 176.732 25.475C177.582 24.9917 178.632 24.75 179.882 24.75C181.132 24.75 182.182 24.9917 183.032 25.475C183.882 25.9583 184.532 26.625 184.982 27.475C185.449 28.325 185.707 29.3083 185.757 30.425C185.774 30.6917 185.782 31.05 185.782 31.5C185.782 31.9333 185.774 32.2917 185.757 32.575C185.707 33.675 185.457 34.6583 185.007 35.525C184.557 36.375 183.907 37.0417 183.057 37.525C182.207 38.0083 181.149 38.25 179.882 38.25ZM179.882 36.325C180.915 36.325 181.74 36 182.357 35.35C182.974 34.6833 183.307 33.7167 183.357 32.45C183.374 32.2 183.382 31.8833 183.382 31.5C183.382 31.1167 183.374 30.8 183.357 30.55C183.307 29.2833 182.974 28.325 182.357 27.675C181.74 27.0083 180.915 26.675 179.882 26.675C178.849 26.675 178.015 27.0083 177.382 27.675C176.765 28.325 176.44 29.2833 176.407 30.55C176.39 30.8 176.382 31.1167 176.382 31.5C176.382 31.8833 176.39 32.2 176.407 32.45C176.44 33.7167 176.765 34.6833 177.382 35.35C178.015 36 178.849 36.325 179.882 36.325ZM189.488 38C189.321 38 189.179 37.95 189.063 37.85C188.963 37.7333 188.913 37.5917 188.913 37.425V25.575C188.913 25.4083 188.963 25.275 189.063 25.175C189.179 25.0583 189.321 25 189.488 25H190.663C190.829 25 190.963 25.0583 191.063 25.175C191.179 25.275 191.238 25.4083 191.238 25.575V26.675C191.671 26.1083 192.213 25.65 192.863 25.3C193.529 24.9333 194.379 24.75 195.413 24.75C196.496 24.75 197.413 24.9917 198.163 25.475C198.929 25.9417 199.504 26.6 199.888 27.45C200.271 28.2833 200.463 29.2583 200.463 30.375V37.425C200.463 37.5917 200.413 37.7333 200.313 37.85C200.213 37.95 200.079 38 199.912 38H198.663C198.496 38 198.354 37.95 198.238 37.85C198.138 37.7333 198.088 37.5917 198.088 37.425V30.5C198.088 29.3333 197.804 28.425 197.238 27.775C196.671 27.1083 195.838 26.775 194.738 26.775C193.704 26.775 192.871 27.1083 192.238 27.775C191.621 28.425 191.313 29.3333 191.313 30.5V37.425C191.313 37.5917 191.254 37.7333 191.138 37.85C191.038 37.95 190.904 38 190.737 38H189.488ZM214.292 38C214.125 38 213.983 37.95 213.867 37.85C213.767 37.7333 213.717 37.5917 213.717 37.425V22.725H208.917C208.75 22.725 208.608 22.675 208.492 22.575C208.392 22.4583 208.342 22.3167 208.342 22.15V21.1C208.342 20.9167 208.392 20.775 208.492 20.675C208.608 20.5583 208.75 20.5 208.917 20.5H220.967C221.15 20.5 221.292 20.5583 221.392 20.675C221.508 20.775 221.567 20.9167 221.567 21.1V22.15C221.567 22.3167 221.508 22.4583 221.392 22.575C221.292 22.675 221.15 22.725 220.967 22.725H216.192V37.425C216.192 37.5917 216.133 37.7333 216.017 37.85C215.917 37.95 215.775 38 215.592 38H214.292ZM224.546 38C224.379 38 224.238 37.95 224.121 37.85C224.021 37.7333 223.971 37.5917 223.971 37.425V25.575C223.971 25.4083 224.021 25.275 224.121 25.175C224.238 25.0583 224.379 25 224.546 25H225.746C225.913 25 226.046 25.0583 226.146 25.175C226.246 25.275 226.296 25.4083 226.296 25.575V37.425C226.296 37.5917 226.246 37.7333 226.146 37.85C226.046 37.95 225.913 38 225.746 38H224.546ZM224.346 22.575C224.179 22.575 224.038 22.525 223.921 22.425C223.821 22.3083 223.771 22.1667 223.771 22V20.65C223.771 20.4833 223.821 20.35 223.921 20.25C224.038 20.1333 224.179 20.075 224.346 20.075H225.921C226.088 20.075 226.221 20.1333 226.321 20.25C226.438 20.35 226.496 20.4833 226.496 20.65V22C226.496 22.1667 226.438 22.3083 226.321 22.425C226.221 22.525 226.088 22.575 225.921 22.575H224.346ZM230.845 38C230.678 38 230.537 37.95 230.42 37.85C230.32 37.7333 230.27 37.5917 230.27 37.425V25.575C230.27 25.4083 230.32 25.275 230.42 25.175C230.537 25.0583 230.678 25 230.845 25H231.97C232.137 25 232.27 25.0583 232.37 25.175C232.487 25.275 232.545 25.4083 232.545 25.575V26.45C232.928 25.9333 233.412 25.525 233.995 25.225C234.578 24.9083 235.278 24.75 236.095 24.75C237.978 24.7333 239.312 25.5 240.095 27.05C240.478 26.35 241.037 25.7917 241.77 25.375C242.503 24.9583 243.337 24.75 244.27 24.75C245.137 24.75 245.92 24.95 246.62 25.35C247.337 25.75 247.895 26.3583 248.295 27.175C248.712 27.975 248.92 28.9833 248.92 30.2V37.425C248.92 37.5917 248.862 37.7333 248.745 37.85C248.645 37.95 248.512 38 248.345 38H247.17C247.003 38 246.862 37.95 246.745 37.85C246.645 37.7333 246.595 37.5917 246.595 37.425V30.425C246.595 29.4917 246.462 28.7583 246.195 28.225C245.928 27.6917 245.57 27.3167 245.12 27.1C244.67 26.8833 244.178 26.775 243.645 26.775C243.212 26.775 242.77 26.8833 242.32 27.1C241.87 27.3167 241.495 27.6917 241.195 28.225C240.912 28.7583 240.77 29.4917 240.77 30.425V37.425C240.77 37.5917 240.712 37.7333 240.595 37.85C240.495 37.95 240.362 38 240.195 38H239.02C238.853 38 238.712 37.95 238.595 37.85C238.495 37.7333 238.445 37.5917 238.445 37.425V30.425C238.445 29.4917 238.303 28.7583 238.02 28.225C237.737 27.6917 237.37 27.3167 236.92 27.1C236.47 26.8833 235.995 26.775 235.495 26.775C235.062 26.775 234.62 26.8833 234.17 27.1C233.72 27.3167 233.345 27.6917 233.045 28.225C232.762 28.7583 232.62 29.4833 232.62 30.4V37.425C232.62 37.5917 232.562 37.7333 232.445 37.85C232.345 37.95 232.212 38 232.045 38H230.845ZM257.662 38.25C255.945 38.25 254.578 37.725 253.562 36.675C252.545 35.6083 251.987 34.1583 251.887 32.325C251.87 32.1083 251.862 31.8333 251.862 31.5C251.862 31.15 251.87 30.8667 251.887 30.65C251.953 29.4667 252.228 28.4333 252.712 27.55C253.195 26.65 253.853 25.9583 254.687 25.475C255.537 24.9917 256.528 24.75 257.662 24.75C258.928 24.75 259.987 25.0167 260.837 25.55C261.703 26.0833 262.362 26.8417 262.812 27.825C263.262 28.8083 263.487 29.9583 263.487 31.275V31.7C263.487 31.8833 263.428 32.025 263.312 32.125C263.212 32.225 263.078 32.275 262.912 32.275H254.262C254.262 32.2917 254.262 32.325 254.262 32.375C254.262 32.425 254.262 32.4667 254.262 32.5C254.295 33.1833 254.445 33.825 254.712 34.425C254.978 35.0083 255.362 35.4833 255.862 35.85C256.362 36.2167 256.962 36.4 257.662 36.4C258.262 36.4 258.762 36.3083 259.162 36.125C259.562 35.9417 259.887 35.7417 260.137 35.525C260.387 35.2917 260.553 35.1167 260.637 35C260.787 34.7833 260.903 34.6583 260.987 34.625C261.07 34.575 261.203 34.55 261.387 34.55H262.587C262.753 34.55 262.887 34.6 262.987 34.7C263.103 34.7833 263.153 34.9083 263.137 35.075C263.12 35.325 262.987 35.6333 262.737 36C262.487 36.35 262.128 36.7 261.662 37.05C261.195 37.4 260.628 37.6917 259.962 37.925C259.295 38.1417 258.528 38.25 257.662 38.25ZM254.262 30.55H261.112V30.475C261.112 29.725 260.97 29.0583 260.687 28.475C260.42 27.8917 260.028 27.4333 259.512 27.1C258.995 26.75 258.378 26.575 257.662 26.575C256.945 26.575 256.328 26.75 255.812 27.1C255.312 27.4333 254.928 27.8917 254.662 28.475C254.395 29.0583 254.262 29.725 254.262 30.475V30.55Z" fill="#1C1F35"/>
<defs>
<linearGradient id="paint0_linear_1_1558" x1="-1.64433" y1="12.5667" x2="71.3201" y2="17.7482" gradientUnits="userSpaceOnUse">
<stop stop-color="#FFB629"/>
<stop offset="0.507189" stop-color="#FFDA56"/>
<stop offset="1" stop-color="#FFD7A6"/>
</linearGradient>
</defs>
</svg>
