<svg width="325" height="58" viewBox="0 0 325 58" fill="none" xmlns="http://www.w3.org/2000/svg">
<circle cx="29" cy="29" r="29" fill="url(#paint0_linear_1_1566)"/>
<path d="M42.9643 21H16.0357C15.4637 21 15 21.4477 15 22V36C15 36.5523 15.4637 37 16.0357 37H42.9643C43.5363 37 44 36.5523 44 36V22C44 21.4477 43.5363 21 42.9643 21Z" stroke="#1C1F35" stroke-width="1.5" stroke-linecap="round" stroke-linejoin="round"/>
<path d="M29.5 33C31.433 33 33 31.433 33 29.5C33 27.567 31.433 26 29.5 26C27.567 26 26 27.567 26 29.5C26 31.433 27.567 33 29.5 33Z" stroke="#1C1F35" stroke-width="1.5" stroke-linecap="round" stroke-linejoin="round"/>
<path d="M36 21L44 28" stroke="#1C1F35" stroke-width="1.5" stroke-linecap="round" stroke-linejoin="round"/>
<path d="M36 37L44 30" stroke="#1C1F35" stroke-width="1.5" stroke-linecap="round" stroke-linejoin="round"/>
<path d="M23 21L15 28" stroke="#1C1F35" stroke-width="1.5" stroke-linecap="round" stroke-linejoin="round"/>
<path d="M23 37L15 30" stroke="#1C1F35" stroke-width="1.5" stroke-linecap="round" stroke-linejoin="round"/>
<path d="M81.45 38.25C80.0333 38.25 78.8167 38.0083 77.8 37.525C76.7833 37.025 76 36.2667 75.45 35.25C74.9 34.2167 74.5917 32.925 74.525 31.375C74.5083 30.6417 74.5 29.9417 74.5 29.275C74.5 28.5917 74.5083 27.8833 74.525 27.15C74.5917 25.6167 74.9083 24.3417 75.475 23.325C76.0583 22.2917 76.8583 21.525 77.875 21.025C78.9083 20.5083 80.1 20.25 81.45 20.25C82.8167 20.25 84.0083 20.5083 85.025 21.025C86.0583 21.525 86.8667 22.2917 87.45 23.325C88.0333 24.3417 88.35 25.6167 88.4 27.15C88.4333 27.8833 88.45 28.5917 88.45 29.275C88.45 29.9417 88.4333 30.6417 88.4 31.375C88.35 32.925 88.0417 34.2167 87.475 35.25C86.925 36.2667 86.1417 37.025 85.125 37.525C84.1083 38.0083 82.8833 38.25 81.45 38.25ZM81.45 36.125C82.7333 36.125 83.775 35.7417 84.575 34.975C85.3917 34.2083 85.8333 32.9667 85.9 31.25C85.9333 30.5 85.95 29.8333 85.95 29.25C85.95 28.65 85.9333 27.9833 85.9 27.25C85.8667 26.1 85.65 25.1667 85.25 24.45C84.8667 23.7333 84.35 23.2083 83.7 22.875C83.05 22.5417 82.3 22.375 81.45 22.375C80.6333 22.375 79.9 22.5417 79.25 22.875C78.6 23.2083 78.075 23.7333 77.675 24.45C77.2917 25.1667 77.075 26.1 77.025 27.25C77.0083 27.9833 77 28.65 77 29.25C77 29.8333 77.0083 30.5 77.025 31.25C77.0917 32.9667 77.5333 34.2083 78.35 34.975C79.1667 35.7417 80.2 36.125 81.45 36.125ZM92.3689 42.75C92.2023 42.75 92.0606 42.6917 91.9439 42.575C91.8439 42.475 91.7939 42.3417 91.7939 42.175V25.575C91.7939 25.4083 91.8439 25.275 91.9439 25.175C92.0606 25.0583 92.2023 25 92.3689 25H93.5189C93.6856 25 93.8189 25.0583 93.9189 25.175C94.0356 25.275 94.0939 25.4083 94.0939 25.575V26.675C94.4939 26.125 95.0273 25.6667 95.6939 25.3C96.3606 24.9333 97.1939 24.75 98.1939 24.75C99.1273 24.75 99.9189 24.9083 100.569 25.225C101.236 25.5417 101.777 25.975 102.194 26.525C102.627 27.075 102.952 27.7 103.169 28.4C103.386 29.1 103.502 29.85 103.519 30.65C103.536 30.9167 103.544 31.2 103.544 31.5C103.544 31.8 103.536 32.0833 103.519 32.35C103.502 33.1333 103.386 33.8833 103.169 34.6C102.952 35.3 102.627 35.925 102.194 36.475C101.777 37.0083 101.236 37.4417 100.569 37.775C99.9189 38.0917 99.1273 38.25 98.1939 38.25C97.2273 38.25 96.4106 38.075 95.7439 37.725C95.0939 37.3583 94.5606 36.9083 94.1439 36.375V42.175C94.1439 42.3417 94.0939 42.475 93.9939 42.575C93.8939 42.6917 93.7523 42.75 93.5689 42.75H92.3689ZM97.6689 36.225C98.5356 36.225 99.2106 36.0417 99.6939 35.675C100.194 35.2917 100.552 34.8 100.769 34.2C100.986 33.5833 101.111 32.925 101.144 32.225C101.161 31.7417 101.161 31.2583 101.144 30.775C101.111 30.075 100.986 29.425 100.769 28.825C100.552 28.2083 100.194 27.7167 99.6939 27.35C99.2106 26.9667 98.5356 26.775 97.6689 26.775C96.8523 26.775 96.1856 26.9667 95.6689 27.35C95.1689 27.7333 94.7939 28.225 94.5439 28.825C94.3106 29.4083 94.1773 30.0083 94.1439 30.625C94.1273 30.8917 94.1189 31.2083 94.1189 31.575C94.1189 31.9417 94.1273 32.2667 94.1439 32.55C94.1606 33.1333 94.2939 33.7083 94.5439 34.275C94.8106 34.8417 95.2023 35.3083 95.7189 35.675C96.2356 36.0417 96.8856 36.225 97.6689 36.225ZM111.59 38C110.657 38 109.898 37.825 109.315 37.475C108.732 37.1083 108.307 36.6 108.04 35.95C107.773 35.2833 107.64 34.5 107.64 33.6V27H105.69C105.523 27 105.382 26.95 105.265 26.85C105.165 26.7333 105.115 26.5917 105.115 26.425V25.575C105.115 25.4083 105.165 25.275 105.265 25.175C105.382 25.0583 105.523 25 105.69 25H107.64V20.825C107.64 20.6583 107.69 20.525 107.79 20.425C107.907 20.3083 108.048 20.25 108.215 20.25H109.39C109.557 20.25 109.69 20.3083 109.79 20.425C109.907 20.525 109.965 20.6583 109.965 20.825V25H113.065C113.232 25 113.365 25.0583 113.465 25.175C113.582 25.275 113.64 25.4083 113.64 25.575V26.425C113.64 26.5917 113.582 26.7333 113.465 26.85C113.365 26.95 113.232 27 113.065 27H109.965V33.425C109.965 34.2083 110.098 34.825 110.365 35.275C110.632 35.725 111.107 35.95 111.79 35.95H113.315C113.482 35.95 113.615 36.0083 113.715 36.125C113.832 36.225 113.89 36.3583 113.89 36.525V37.425C113.89 37.5917 113.832 37.7333 113.715 37.85C113.615 37.95 113.482 38 113.315 38H111.59ZM116.856 38C116.689 38 116.547 37.95 116.431 37.85C116.331 37.7333 116.281 37.5917 116.281 37.425V25.575C116.281 25.4083 116.331 25.275 116.431 25.175C116.547 25.0583 116.689 25 116.856 25H118.056C118.222 25 118.356 25.0583 118.456 25.175C118.556 25.275 118.606 25.4083 118.606 25.575V37.425C118.606 37.5917 118.556 37.7333 118.456 37.85C118.356 37.95 118.222 38 118.056 38H116.856ZM116.656 22.575C116.489 22.575 116.347 22.525 116.231 22.425C116.131 22.3083 116.081 22.1667 116.081 22V20.65C116.081 20.4833 116.131 20.35 116.231 20.25C116.347 20.1333 116.489 20.075 116.656 20.075H118.231C118.397 20.075 118.531 20.1333 118.631 20.25C118.747 20.35 118.806 20.4833 118.806 20.65V22C118.806 22.1667 118.747 22.3083 118.631 22.425C118.531 22.525 118.397 22.575 118.231 22.575H116.656ZM123.154 38C122.988 38 122.846 37.95 122.729 37.85C122.629 37.7333 122.579 37.5917 122.579 37.425V25.575C122.579 25.4083 122.629 25.275 122.729 25.175C122.846 25.0583 122.988 25 123.154 25H124.279C124.446 25 124.579 25.0583 124.679 25.175C124.796 25.275 124.854 25.4083 124.854 25.575V26.45C125.238 25.9333 125.721 25.525 126.304 25.225C126.888 24.9083 127.588 24.75 128.404 24.75C130.288 24.7333 131.621 25.5 132.404 27.05C132.788 26.35 133.346 25.7917 134.079 25.375C134.813 24.9583 135.646 24.75 136.579 24.75C137.446 24.75 138.229 24.95 138.929 25.35C139.646 25.75 140.204 26.3583 140.604 27.175C141.021 27.975 141.229 28.9833 141.229 30.2V37.425C141.229 37.5917 141.171 37.7333 141.054 37.85C140.954 37.95 140.821 38 140.654 38H139.479C139.313 38 139.171 37.95 139.054 37.85C138.954 37.7333 138.904 37.5917 138.904 37.425V30.425C138.904 29.4917 138.771 28.7583 138.504 28.225C138.238 27.6917 137.879 27.3167 137.429 27.1C136.979 26.8833 136.488 26.775 135.954 26.775C135.521 26.775 135.079 26.8833 134.629 27.1C134.179 27.3167 133.804 27.6917 133.504 28.225C133.221 28.7583 133.079 29.4917 133.079 30.425V37.425C133.079 37.5917 133.021 37.7333 132.904 37.85C132.804 37.95 132.671 38 132.504 38H131.329C131.163 38 131.021 37.95 130.904 37.85C130.804 37.7333 130.754 37.5917 130.754 37.425V30.425C130.754 29.4917 130.613 28.7583 130.329 28.225C130.046 27.6917 129.679 27.3167 129.229 27.1C128.779 26.8833 128.304 26.775 127.804 26.775C127.371 26.775 126.929 26.8833 126.479 27.1C126.029 27.3167 125.654 27.6917 125.354 28.225C125.071 28.7583 124.929 29.4833 124.929 30.4V37.425C124.929 37.5917 124.871 37.7333 124.754 37.85C124.654 37.95 124.521 38 124.354 38H123.154ZM145.371 38C145.205 38 145.063 37.95 144.946 37.85C144.846 37.7333 144.796 37.5917 144.796 37.425V25.575C144.796 25.4083 144.846 25.275 144.946 25.175C145.063 25.0583 145.205 25 145.371 25H146.571C146.738 25 146.871 25.0583 146.971 25.175C147.071 25.275 147.121 25.4083 147.121 25.575V37.425C147.121 37.5917 147.071 37.7333 146.971 37.85C146.871 37.95 146.738 38 146.571 38H145.371ZM145.171 22.575C145.005 22.575 144.863 22.525 144.746 22.425C144.646 22.3083 144.596 22.1667 144.596 22V20.65C144.596 20.4833 144.646 20.35 144.746 20.25C144.863 20.1333 145.005 20.075 145.171 20.075H146.746C146.913 20.075 147.046 20.1333 147.146 20.25C147.263 20.35 147.321 20.4833 147.321 20.65V22C147.321 22.1667 147.263 22.3083 147.146 22.425C147.046 22.525 146.913 22.575 146.746 22.575H145.171ZM150.723 38C150.556 38 150.415 37.95 150.298 37.85C150.198 37.7333 150.148 37.5917 150.148 37.425V36.55C150.148 36.4 150.181 36.2583 150.248 36.125C150.331 35.9917 150.415 35.8667 150.498 35.75L157.398 26.975H150.948C150.781 26.975 150.64 26.925 150.523 26.825C150.423 26.725 150.373 26.5833 150.373 26.4V25.575C150.373 25.4083 150.423 25.275 150.523 25.175C150.64 25.0583 150.781 25 150.948 25H159.848C160.015 25 160.148 25.0583 160.248 25.175C160.365 25.275 160.423 25.4083 160.423 25.575V26.5C160.423 26.65 160.381 26.7833 160.298 26.9C160.231 27.0167 160.156 27.1417 160.073 27.275L153.248 36.025H160.348C160.515 36.025 160.648 36.075 160.748 36.175C160.865 36.275 160.923 36.4167 160.923 36.6V37.425C160.923 37.5917 160.865 37.7333 160.748 37.85C160.648 37.95 160.515 38 160.348 38H150.723ZM168.721 38.25C167.005 38.25 165.638 37.725 164.621 36.675C163.605 35.6083 163.046 34.1583 162.946 32.325C162.93 32.1083 162.921 31.8333 162.921 31.5C162.921 31.15 162.93 30.8667 162.946 30.65C163.013 29.4667 163.288 28.4333 163.771 27.55C164.255 26.65 164.913 25.9583 165.746 25.475C166.596 24.9917 167.588 24.75 168.721 24.75C169.988 24.75 171.046 25.0167 171.896 25.55C172.763 26.0833 173.421 26.8417 173.871 27.825C174.321 28.8083 174.546 29.9583 174.546 31.275V31.7C174.546 31.8833 174.488 32.025 174.371 32.125C174.271 32.225 174.138 32.275 173.971 32.275H165.321C165.321 32.2917 165.321 32.325 165.321 32.375C165.321 32.425 165.321 32.4667 165.321 32.5C165.355 33.1833 165.505 33.825 165.771 34.425C166.038 35.0083 166.421 35.4833 166.921 35.85C167.421 36.2167 168.021 36.4 168.721 36.4C169.321 36.4 169.821 36.3083 170.221 36.125C170.621 35.9417 170.946 35.7417 171.196 35.525C171.446 35.2917 171.613 35.1167 171.696 35C171.846 34.7833 171.963 34.6583 172.046 34.625C172.13 34.575 172.263 34.55 172.446 34.55H173.646C173.813 34.55 173.946 34.6 174.046 34.7C174.163 34.7833 174.213 34.9083 174.196 35.075C174.18 35.325 174.046 35.6333 173.796 36C173.546 36.35 173.188 36.7 172.721 37.05C172.255 37.4 171.688 37.6917 171.021 37.925C170.355 38.1417 169.588 38.25 168.721 38.25ZM165.321 30.55H172.171V30.475C172.171 29.725 172.03 29.0583 171.746 28.475C171.48 27.8917 171.088 27.4333 170.571 27.1C170.055 26.75 169.438 26.575 168.721 26.575C168.005 26.575 167.388 26.75 166.871 27.1C166.371 27.4333 165.988 27.8917 165.721 28.475C165.455 29.0583 165.321 29.725 165.321 30.475V30.55ZM182.286 38.25C181.369 38.25 180.577 38.0917 179.911 37.775C179.244 37.4417 178.694 37 178.261 36.45C177.844 35.8833 177.527 35.2417 177.311 34.525C177.111 33.8083 176.994 33.05 176.961 32.25C176.944 31.9833 176.936 31.7333 176.936 31.5C176.936 31.2667 176.944 31.0167 176.961 30.75C176.994 29.9667 177.111 29.2167 177.311 28.5C177.527 27.7833 177.844 27.1417 178.261 26.575C178.694 26.0083 179.244 25.5667 179.911 25.25C180.577 24.9167 181.369 24.75 182.286 24.75C183.269 24.75 184.086 24.925 184.736 25.275C185.386 25.625 185.919 26.0583 186.336 26.575V20.825C186.336 20.6583 186.386 20.525 186.486 20.425C186.602 20.3083 186.744 20.25 186.911 20.25H188.111C188.277 20.25 188.411 20.3083 188.511 20.425C188.627 20.525 188.686 20.6583 188.686 20.825V37.425C188.686 37.5917 188.627 37.7333 188.511 37.85C188.411 37.95 188.277 38 188.111 38H186.986C186.802 38 186.661 37.95 186.561 37.85C186.461 37.7333 186.411 37.5917 186.411 37.425V36.375C185.994 36.9083 185.452 37.3583 184.786 37.725C184.119 38.075 183.286 38.25 182.286 38.25ZM182.811 36.225C183.644 36.225 184.311 36.0333 184.811 35.65C185.311 35.2667 185.686 34.7833 185.936 34.2C186.186 33.6 186.319 32.9917 186.336 32.375C186.352 32.1083 186.361 31.7917 186.361 31.425C186.361 31.0417 186.352 30.7167 186.336 30.45C186.319 29.8667 186.177 29.2917 185.911 28.725C185.661 28.1583 185.277 27.6917 184.761 27.325C184.261 26.9583 183.611 26.775 182.811 26.775C181.961 26.775 181.286 26.9667 180.786 27.35C180.286 27.7167 179.927 28.2083 179.711 28.825C179.494 29.425 179.369 30.075 179.336 30.775C179.319 31.2583 179.319 31.7417 179.336 32.225C179.369 32.925 179.494 33.5833 179.711 34.2C179.927 34.8 180.286 35.2917 180.786 35.675C181.286 36.0417 181.961 36.225 182.811 36.225ZM202.622 38C202.455 38 202.314 37.95 202.197 37.85C202.097 37.7333 202.047 37.5917 202.047 37.425V22.725H197.247C197.08 22.725 196.939 22.675 196.822 22.575C196.722 22.4583 196.672 22.3167 196.672 22.15V21.1C196.672 20.9167 196.722 20.775 196.822 20.675C196.939 20.5583 197.08 20.5 197.247 20.5H209.297C209.48 20.5 209.622 20.5583 209.722 20.675C209.839 20.775 209.897 20.9167 209.897 21.1V22.15C209.897 22.3167 209.839 22.4583 209.722 22.575C209.622 22.675 209.48 22.725 209.297 22.725H204.522V37.425C204.522 37.5917 204.464 37.7333 204.347 37.85C204.247 37.95 204.105 38 203.922 38H202.622ZM210.923 38C210.756 38 210.615 37.95 210.498 37.85C210.398 37.7333 210.348 37.5917 210.348 37.425V25.6C210.348 25.4333 210.398 25.2917 210.498 25.175C210.615 25.0583 210.756 25 210.923 25H212.073C212.24 25 212.381 25.0583 212.498 25.175C212.615 25.2917 212.673 25.4333 212.673 25.6V26.7C213.006 26.1333 213.465 25.7083 214.048 25.425C214.631 25.1417 215.331 25 216.148 25H217.148C217.315 25 217.448 25.0583 217.548 25.175C217.648 25.275 217.698 25.4083 217.698 25.575V26.6C217.698 26.7667 217.648 26.9 217.548 27C217.448 27.1 217.315 27.15 217.148 27.15H215.648C214.748 27.15 214.04 27.4167 213.523 27.95C213.006 28.4667 212.748 29.175 212.748 30.075V37.425C212.748 37.5917 212.69 37.7333 212.573 37.85C212.456 37.95 212.315 38 212.148 38H210.923ZM223.275 38.25C222.441 38.25 221.683 38.0833 221 37.75C220.316 37.4167 219.766 36.9667 219.35 36.4C218.933 35.8333 218.725 35.1917 218.725 34.475C218.725 33.325 219.191 32.4083 220.125 31.725C221.058 31.0417 222.275 30.5917 223.775 30.375L227.5 29.85V29.125C227.5 28.325 227.266 27.7 226.8 27.25C226.35 26.8 225.608 26.575 224.575 26.575C223.825 26.575 223.216 26.725 222.75 27.025C222.3 27.325 221.983 27.7083 221.8 28.175C221.7 28.425 221.525 28.55 221.275 28.55H220.15C219.966 28.55 219.825 28.5 219.725 28.4C219.641 28.2833 219.6 28.15 219.6 28C219.6 27.75 219.691 27.4417 219.875 27.075C220.075 26.7083 220.375 26.35 220.775 26C221.175 25.65 221.683 25.3583 222.3 25.125C222.933 24.875 223.7 24.75 224.6 24.75C225.6 24.75 226.441 24.8833 227.125 25.15C227.808 25.4 228.341 25.7417 228.725 26.175C229.125 26.6083 229.408 27.1 229.575 27.65C229.758 28.2 229.85 28.7583 229.85 29.325V37.425C229.85 37.5917 229.791 37.7333 229.675 37.85C229.575 37.95 229.441 38 229.275 38H228.125C227.941 38 227.8 37.95 227.7 37.85C227.6 37.7333 227.55 37.5917 227.55 37.425V36.35C227.333 36.65 227.041 36.95 226.675 37.25C226.308 37.5333 225.85 37.775 225.3 37.975C224.75 38.1583 224.075 38.25 223.275 38.25ZM223.8 36.375C224.483 36.375 225.108 36.2333 225.675 35.95C226.241 35.65 226.683 35.1917 227 34.575C227.333 33.9583 227.5 33.1833 227.5 32.25V31.55L224.6 31.975C223.416 32.1417 222.525 32.425 221.925 32.825C221.325 33.2083 221.025 33.7 221.025 34.3C221.025 34.7667 221.158 35.1583 221.425 35.475C221.708 35.775 222.058 36 222.475 36.15C222.908 36.3 223.35 36.375 223.8 36.375ZM237.725 38C237.475 38 237.275 37.9417 237.125 37.825C236.991 37.7083 236.883 37.5583 236.8 37.375L232.175 25.775C232.141 25.6917 232.125 25.6083 232.125 25.525C232.125 25.375 232.175 25.25 232.275 25.15C232.375 25.05 232.5 25 232.65 25H233.85C234.033 25 234.175 25.05 234.275 25.15C234.375 25.25 234.433 25.3417 234.45 25.425L238.275 35.275L242.075 25.425C242.108 25.3417 242.166 25.25 242.25 25.15C242.35 25.05 242.491 25 242.675 25H243.9C244.033 25 244.15 25.05 244.25 25.15C244.366 25.25 244.425 25.375 244.425 25.525C244.425 25.6083 244.408 25.6917 244.375 25.775L239.725 37.375C239.658 37.5583 239.55 37.7083 239.4 37.825C239.266 37.9417 239.066 38 238.8 38H237.725ZM251.754 38.25C250.037 38.25 248.67 37.725 247.654 36.675C246.637 35.6083 246.079 34.1583 245.979 32.325C245.962 32.1083 245.954 31.8333 245.954 31.5C245.954 31.15 245.962 30.8667 245.979 30.65C246.045 29.4667 246.32 28.4333 246.804 27.55C247.287 26.65 247.945 25.9583 248.779 25.475C249.629 24.9917 250.62 24.75 251.754 24.75C253.02 24.75 254.079 25.0167 254.929 25.55C255.795 26.0833 256.454 26.8417 256.904 27.825C257.354 28.8083 257.579 29.9583 257.579 31.275V31.7C257.579 31.8833 257.52 32.025 257.404 32.125C257.304 32.225 257.17 32.275 257.004 32.275H248.354C248.354 32.2917 248.354 32.325 248.354 32.375C248.354 32.425 248.354 32.4667 248.354 32.5C248.387 33.1833 248.537 33.825 248.804 34.425C249.07 35.0083 249.454 35.4833 249.954 35.85C250.454 36.2167 251.054 36.4 251.754 36.4C252.354 36.4 252.854 36.3083 253.254 36.125C253.654 35.9417 253.979 35.7417 254.229 35.525C254.479 35.2917 254.645 35.1167 254.729 35C254.879 34.7833 254.995 34.6583 255.079 34.625C255.162 34.575 255.295 34.55 255.479 34.55H256.679C256.845 34.55 256.979 34.6 257.079 34.7C257.195 34.7833 257.245 34.9083 257.229 35.075C257.212 35.325 257.079 35.6333 256.829 36C256.579 36.35 256.22 36.7 255.754 37.05C255.287 37.4 254.72 37.6917 254.054 37.925C253.387 38.1417 252.62 38.25 251.754 38.25ZM248.354 30.55H255.204V30.475C255.204 29.725 255.062 29.0583 254.779 28.475C254.512 27.8917 254.12 27.4333 253.604 27.1C253.087 26.75 252.47 26.575 251.754 26.575C251.037 26.575 250.42 26.75 249.904 27.1C249.404 27.4333 249.02 27.8917 248.754 28.475C248.487 29.0583 248.354 29.725 248.354 30.475V30.55ZM261.168 38C261.001 38 260.859 37.95 260.743 37.85C260.643 37.7333 260.593 37.5917 260.593 37.425V20.825C260.593 20.6583 260.643 20.525 260.743 20.425C260.859 20.3083 261.001 20.25 261.168 20.25H262.343C262.526 20.25 262.668 20.3083 262.768 20.425C262.868 20.525 262.918 20.6583 262.918 20.825V37.425C262.918 37.5917 262.868 37.7333 262.768 37.85C262.668 37.95 262.526 38 262.343 38H261.168ZM279.4 38.25C277.866 38.25 276.591 37.9667 275.575 37.4C274.575 36.8333 273.816 36.0417 273.3 35.025C272.783 34.0083 272.5 32.825 272.45 31.475C272.433 30.7917 272.425 30.0583 272.425 29.275C272.425 28.4917 272.433 27.7417 272.45 27.025C272.5 25.675 272.783 24.4917 273.3 23.475C273.816 22.4583 274.575 21.6667 275.575 21.1C276.591 20.5333 277.866 20.25 279.4 20.25C280.55 20.25 281.558 20.4083 282.425 20.725C283.291 21.0417 284.008 21.4667 284.575 22C285.158 22.5333 285.6 23.1333 285.9 23.8C286.2 24.45 286.366 25.125 286.4 25.825C286.416 25.975 286.366 26.1 286.25 26.2C286.15 26.3 286.025 26.35 285.875 26.35H284.5C284.35 26.35 284.216 26.3083 284.1 26.225C284 26.1417 283.925 25.9917 283.875 25.775C283.591 24.475 283.058 23.5833 282.275 23.1C281.508 22.6167 280.541 22.375 279.375 22.375C278.041 22.375 276.983 22.7583 276.2 23.525C275.416 24.275 274.991 25.4833 274.925 27.15C274.875 28.5167 274.875 29.9167 274.925 31.35C274.991 33.0167 275.416 34.2333 276.2 35C276.983 35.75 278.041 36.125 279.375 36.125C280.541 36.125 281.508 35.8833 282.275 35.4C283.058 34.9167 283.591 34.025 283.875 32.725C283.925 32.5083 284 32.3583 284.1 32.275C284.216 32.1917 284.35 32.15 284.5 32.15H285.875C286.025 32.15 286.15 32.2 286.25 32.3C286.366 32.4 286.416 32.525 286.4 32.675C286.366 33.375 286.2 34.0583 285.9 34.725C285.6 35.375 285.158 35.9667 284.575 36.5C284.008 37.0333 283.291 37.4583 282.425 37.775C281.558 38.0917 280.55 38.25 279.4 38.25ZM294.75 38.25C293.484 38.25 292.425 38.0083 291.575 37.525C290.725 37.0417 290.075 36.375 289.625 35.525C289.175 34.6583 288.925 33.675 288.875 32.575C288.859 32.2917 288.85 31.9333 288.85 31.5C288.85 31.05 288.859 30.6917 288.875 30.425C288.925 29.3083 289.175 28.325 289.625 27.475C290.092 26.625 290.75 25.9583 291.6 25.475C292.45 24.9917 293.5 24.75 294.75 24.75C296 24.75 297.05 24.9917 297.9 25.475C298.75 25.9583 299.4 26.625 299.85 27.475C300.317 28.325 300.575 29.3083 300.625 30.425C300.642 30.6917 300.65 31.05 300.65 31.5C300.65 31.9333 300.642 32.2917 300.625 32.575C300.575 33.675 300.325 34.6583 299.875 35.525C299.425 36.375 298.775 37.0417 297.925 37.525C297.075 38.0083 296.017 38.25 294.75 38.25ZM294.75 36.325C295.784 36.325 296.609 36 297.225 35.35C297.842 34.6833 298.175 33.7167 298.225 32.45C298.242 32.2 298.25 31.8833 298.25 31.5C298.25 31.1167 298.242 30.8 298.225 30.55C298.175 29.2833 297.842 28.325 297.225 27.675C296.609 27.0083 295.784 26.675 294.75 26.675C293.717 26.675 292.884 27.0083 292.25 27.675C291.634 28.325 291.309 29.2833 291.275 30.55C291.259 30.8 291.25 31.1167 291.25 31.5C291.25 31.8833 291.259 32.2 291.275 32.45C291.309 33.7167 291.634 34.6833 292.25 35.35C292.884 36 293.717 36.325 294.75 36.325ZM308.281 38.25C307.347 38.25 306.547 38.1333 305.881 37.9C305.214 37.6667 304.672 37.3833 304.256 37.05C303.839 36.7167 303.522 36.3833 303.306 36.05C303.106 35.7167 302.997 35.45 302.981 35.25C302.964 35.0667 303.022 34.925 303.156 34.825C303.289 34.725 303.422 34.675 303.556 34.675H304.656C304.756 34.675 304.831 34.6917 304.881 34.725C304.947 34.7417 305.031 34.8083 305.131 34.925C305.347 35.1583 305.589 35.3917 305.856 35.625C306.122 35.8583 306.447 36.05 306.831 36.2C307.231 36.35 307.722 36.425 308.306 36.425C309.156 36.425 309.856 36.2667 310.406 35.95C310.956 35.6167 311.231 35.1333 311.231 34.5C311.231 34.0833 311.114 33.75 310.881 33.5C310.664 33.25 310.264 33.025 309.681 32.825C309.114 32.625 308.331 32.4167 307.331 32.2C306.331 31.9667 305.539 31.6833 304.956 31.35C304.372 31 303.956 30.5917 303.706 30.125C303.456 29.6417 303.331 29.1 303.331 28.5C303.331 27.8833 303.514 27.2917 303.881 26.725C304.247 26.1417 304.781 25.6667 305.481 25.3C306.197 24.9333 307.089 24.75 308.156 24.75C309.022 24.75 309.764 24.8583 310.381 25.075C310.997 25.2917 311.506 25.5667 311.906 25.9C312.306 26.2167 312.606 26.5333 312.806 26.85C313.006 27.1667 313.114 27.4333 313.131 27.65C313.147 27.8167 313.097 27.9583 312.981 28.075C312.864 28.175 312.731 28.225 312.581 28.225H311.531C311.414 28.225 311.314 28.2 311.231 28.15C311.164 28.1 311.097 28.0417 311.031 27.975C310.864 27.7583 310.664 27.5417 310.431 27.325C310.214 27.1083 309.922 26.9333 309.556 26.8C309.206 26.65 308.739 26.575 308.156 26.575C307.322 26.575 306.697 26.75 306.281 27.1C305.864 27.45 305.656 27.8917 305.656 28.425C305.656 28.7417 305.747 29.025 305.931 29.275C306.114 29.525 306.464 29.75 306.981 29.95C307.497 30.15 308.264 30.3667 309.281 30.6C310.381 30.8167 311.247 31.1083 311.881 31.475C312.514 31.8417 312.964 32.2667 313.231 32.75C313.497 33.2333 313.631 33.7917 313.631 34.425C313.631 35.125 313.422 35.7667 313.006 36.35C312.606 36.9333 312.006 37.4 311.206 37.75C310.422 38.0833 309.447 38.25 308.281 38.25ZM321.575 38C320.642 38 319.884 37.825 319.3 37.475C318.717 37.1083 318.292 36.6 318.025 35.95C317.759 35.2833 317.625 34.5 317.625 33.6V27H315.675C315.509 27 315.367 26.95 315.25 26.85C315.15 26.7333 315.1 26.5917 315.1 26.425V25.575C315.1 25.4083 315.15 25.275 315.25 25.175C315.367 25.0583 315.509 25 315.675 25H317.625V20.825C317.625 20.6583 317.675 20.525 317.775 20.425C317.892 20.3083 318.034 20.25 318.2 20.25H319.375C319.542 20.25 319.675 20.3083 319.775 20.425C319.892 20.525 319.95 20.6583 319.95 20.825V25H323.05C323.217 25 323.35 25.0583 323.45 25.175C323.567 25.275 323.625 25.4083 323.625 25.575V26.425C323.625 26.5917 323.567 26.7333 323.45 26.85C323.35 26.95 323.217 27 323.05 27H319.95V33.425C319.95 34.2083 320.084 34.825 320.35 35.275C320.617 35.725 321.092 35.95 321.775 35.95H323.3C323.467 35.95 323.6 36.0083 323.7 36.125C323.817 36.225 323.875 36.3583 323.875 36.525V37.425C323.875 37.5917 323.817 37.7333 323.7 37.85C323.6 37.95 323.467 38 323.3 38H321.575Z" fill="#1C1F35"/>
<defs>
<linearGradient id="paint0_linear_1_1566" x1="-1.64433" y1="12.5667" x2="71.3201" y2="17.7482" gradientUnits="userSpaceOnUse">
<stop stop-color="#FFB629"/>
<stop offset="0.507189" stop-color="#FFDA56"/>
<stop offset="1" stop-color="#FFD7A6"/>
</linearGradient>
</defs>
</svg>
