<svg width="304" height="60" viewBox="0 0 304 60" fill="none" xmlns="http://www.w3.org/2000/svg">
<rect width="148" height="60" fill="url(#paint0_linear_1_1009)"/>
<path d="M41.264 36.16C40.432 36.16 39.7013 36.0587 39.072 35.856C38.4427 35.6427 37.9573 35.344 37.616 34.96C37.2747 34.576 37.104 34.1333 37.104 33.632C37.104 33.3013 37.232 33.0453 37.488 32.864C37.7547 32.6827 38.1227 32.5867 38.592 32.576C38.688 33.2373 38.9707 33.7493 39.44 34.112C39.9093 34.4747 40.528 34.656 41.296 34.656C42.032 34.656 42.5973 34.5067 42.992 34.208C43.3973 33.9093 43.6 33.4827 43.6 32.928C43.6 32.48 43.4027 32.1173 43.008 31.84C42.624 31.552 41.9413 31.2747 40.96 31.008C39.6587 30.6453 38.7253 30.208 38.16 29.696C37.5947 29.184 37.312 28.5173 37.312 27.696C37.312 26.7467 37.6693 26 38.384 25.456C39.1093 24.912 40.1013 24.64 41.36 24.64C42.4053 24.64 43.2853 24.8853 44 25.376C44.7253 25.8667 45.2213 26.5493 45.488 27.424C45.3493 27.5627 45.152 27.6853 44.896 27.792C44.64 27.8987 44.4107 27.952 44.208 27.952C44.0267 27.952 43.8827 27.9147 43.776 27.84C43.6693 27.7547 43.5627 27.616 43.456 27.424C43.0293 26.56 42.3307 26.128 41.36 26.128C40.0267 26.128 39.36 26.5973 39.36 27.536C39.36 27.8453 39.424 28.1013 39.552 28.304C39.68 28.496 39.904 28.672 40.224 28.832C40.544 28.992 41.0133 29.168 41.632 29.36C42.7307 29.7013 43.5627 30.0213 44.128 30.32C44.6933 30.608 45.0933 30.928 45.328 31.28C45.5627 31.6213 45.68 32.0587 45.68 32.592C45.68 33.296 45.4987 33.92 45.136 34.464C44.7733 34.9973 44.256 35.4133 43.584 35.712C42.9227 36.0107 42.1493 36.16 41.264 36.16ZM54.9056 31.008C54.9056 31.1893 54.8843 31.4933 54.8416 31.92H48.9536C49.007 32.8373 49.2203 33.5467 49.5936 34.048C49.967 34.5493 50.4736 34.8 51.1136 34.8C51.551 34.8 51.9083 34.7147 52.1856 34.544C52.4736 34.3627 52.799 34.016 53.1616 33.504C53.2256 33.408 53.3376 33.36 53.4976 33.36C53.7963 33.36 54.207 33.5467 54.7296 33.92C54.431 34.6453 53.967 35.2 53.3376 35.584C52.719 35.968 51.9776 36.16 51.1136 36.16C49.823 36.16 48.8043 35.7547 48.0576 34.944C47.3216 34.1227 46.9536 33.0027 46.9536 31.584C46.9536 30.176 47.327 29.0667 48.0736 28.256C48.8203 27.4453 49.8443 27.04 51.1456 27.04C52.3403 27.04 53.263 27.3867 53.9136 28.08C54.575 28.7733 54.9056 29.7493 54.9056 31.008ZM52.9376 30.736C52.9376 29.1467 52.3243 28.352 51.0976 28.352C50.4896 28.352 50.0043 28.5547 49.6416 28.96C49.2896 29.3547 49.071 29.9467 48.9856 30.736H52.9376ZM63.9655 33.84C63.9655 34.416 63.9815 34.832 64.0135 35.088C64.0455 35.344 64.1148 35.5733 64.2215 35.776C63.7202 35.9787 63.1922 36.08 62.6375 36.08C62.4135 36.08 62.2535 35.9573 62.1575 35.712C62.0722 35.456 62.0295 35.008 62.0295 34.368V30.144C62.0295 29.5253 61.9282 29.088 61.7255 28.832C61.5228 28.5653 61.1815 28.432 60.7015 28.432C60.0082 28.432 59.2722 28.7733 58.4935 29.456V36H56.5575V30.112C56.5575 28.7253 56.4935 27.84 56.3655 27.456C56.9842 27.2427 57.5068 27.136 57.9335 27.136C58.1362 27.136 58.2802 27.2107 58.3655 27.36C58.4508 27.5093 58.4935 27.744 58.4935 28.064V28.256C59.0268 27.808 59.5015 27.4933 59.9175 27.312C60.3335 27.1307 60.7708 27.04 61.2295 27.04C62.1468 27.04 62.8295 27.2907 63.2775 27.792C63.7362 28.2827 63.9655 29.0347 63.9655 30.048V33.84ZM73.6351 33.104C73.6351 33.7973 73.6671 34.336 73.7311 34.72C73.7951 35.0933 73.9071 35.408 74.0671 35.664C73.5445 35.952 73.0378 36.096 72.5471 36.096C72.3338 36.096 72.1631 36.0107 72.0351 35.84C71.9071 35.6587 71.8165 35.3707 71.7631 34.976C71.4645 35.3813 71.1178 35.68 70.7231 35.872C70.3391 36.064 69.8858 36.16 69.3631 36.16C68.2218 36.16 67.3311 35.7653 66.6911 34.976C66.0511 34.176 65.7311 33.0613 65.7311 31.632C65.7311 30.6933 65.8911 29.8827 66.2111 29.2C66.5418 28.5067 67.0111 27.9733 67.6191 27.6C68.2271 27.2267 68.9418 27.04 69.7631 27.04C70.1045 27.04 70.4511 27.088 70.8031 27.184C71.1551 27.28 71.4538 27.408 71.6991 27.568V23.344H73.6351V33.104ZM69.6511 34.832C70.0885 34.832 70.4725 34.7307 70.8031 34.528C71.1338 34.3147 71.4325 33.984 71.6991 33.536V28.96C71.4965 28.7787 71.2351 28.6293 70.9151 28.512C70.5951 28.3947 70.2698 28.336 69.9391 28.336C69.2245 28.336 68.6751 28.624 68.2911 29.2C67.9071 29.7653 67.7151 30.576 67.7151 31.632C67.7151 33.7653 68.3605 34.832 69.6511 34.832ZM88.8106 33.808C88.8106 34.1387 88.8213 34.528 88.8426 34.976C88.864 35.2747 88.8746 35.472 88.8746 35.568C88.8746 35.856 88.736 36 88.4586 36H86.8106V35.344C86.8106 34.8107 86.6026 34.2187 86.1866 33.568L82.0586 27.6V36H80.0586V24.8H81.8346C81.9733 24.8 82.0853 24.8213 82.1706 24.864C82.256 24.896 82.3466 24.9813 82.4426 25.12L86.8106 31.392V24.8H88.8106V33.808ZM94.5429 36.16C93.2629 36.16 92.2815 35.7653 91.5989 34.976C90.9162 34.1867 90.5749 33.056 90.5749 31.584C90.5749 30.112 90.9162 28.9867 91.5989 28.208C92.2815 27.4293 93.2629 27.04 94.5429 27.04C95.8229 27.04 96.7989 27.4293 97.4709 28.208C98.1535 28.9867 98.4949 30.112 98.4949 31.584C98.4949 33.0667 98.1535 34.2027 97.4709 34.992C96.7882 35.7707 95.8122 36.16 94.5429 36.16ZM94.5429 34.832C95.2362 34.832 95.7375 34.576 96.0469 34.064C96.3669 33.5413 96.5269 32.7147 96.5269 31.584C96.5269 30.464 96.3669 29.648 96.0469 29.136C95.7375 28.624 95.2362 28.368 94.5429 28.368C93.8495 28.368 93.3429 28.624 93.0229 29.136C92.7135 29.6373 92.5589 30.4533 92.5589 31.584C92.5589 32.7253 92.7135 33.552 93.0229 34.064C93.3429 34.576 93.8495 34.832 94.5429 34.832ZM111.192 27.2C111.064 28.8533 110.808 30.4053 110.424 31.856C110.05 33.3067 109.512 34.688 108.808 36H107.352C106.882 35.136 106.488 34.2827 106.168 33.44C105.848 32.5867 105.586 31.6907 105.384 30.752C104.978 32.5547 104.312 34.304 103.384 36H101.912C101.197 34.7307 100.642 33.3813 100.248 31.952C99.8636 30.5227 99.581 28.9387 99.3996 27.2H101.384C101.512 28.6187 101.672 29.8453 101.864 30.88C102.066 31.904 102.376 32.8747 102.792 33.792C103.677 31.904 104.264 29.7067 104.552 27.2H106.248C106.546 29.7173 107.144 31.9307 108.04 33.84C108.445 32.8907 108.733 31.8827 108.904 30.816C109.085 29.7493 109.208 28.544 109.272 27.2H111.192Z" fill="#23212A"/>
<path d="M203.01 19.125L184.858 19.125C183.867 19.125 183 19.8387 183 20.8189L183 39.0111C183 39.9967 183.867 40.8749 184.858 40.8749L203.005 40.8749C204.002 40.8749 204.75 39.9908 204.75 39.0111L204.75 20.8189C204.756 19.8387 204.002 19.125 203.01 19.125ZM189.742 37.2546L186.626 37.2546V27.5667L189.742 27.5667L189.742 37.2546ZM188.292 26.0937H188.27C187.272 26.0937 186.627 25.3514 186.627 24.4222C186.627 23.476 187.289 22.7511 188.309 22.7511C189.328 22.7511 189.952 23.4706 189.975 24.4222C189.974 25.3514 189.328 26.0937 188.292 26.0937ZM201.13 37.2546L198.014 37.2546V31.9575C198.014 30.6884 197.56 29.8213 196.433 29.8213C195.572 29.8213 195.062 30.4039 194.835 30.9714C194.75 31.1753 194.727 31.453 194.727 31.7366L194.727 37.2546H191.612L191.612 27.5667L194.727 27.5667V28.9149C195.181 28.2692 195.889 27.34 197.537 27.34C199.583 27.34 201.13 28.6882 201.13 31.5948L201.13 37.2546Z" fill="white"/>
<path d="M253.221 25.7443C252.416 26.094 251.563 26.3244 250.691 26.4282C251.608 25.892 252.297 25.0401 252.63 24.0323C251.763 24.5386 250.817 24.8938 249.831 25.0827C249.416 24.648 248.917 24.3022 248.364 24.0663C247.811 23.8304 247.216 23.7093 246.615 23.7105C244.18 23.7105 242.21 25.6504 242.21 28.0418C242.209 28.3745 242.247 28.7061 242.324 29.0297C240.578 28.9479 238.869 28.5029 237.306 27.7232C235.742 26.9435 234.359 25.8463 233.244 24.5016C232.852 25.1606 232.646 25.9124 232.645 26.6785C232.645 28.1804 233.429 29.508 234.613 30.2857C233.911 30.2691 233.224 30.0836 232.61 29.7449V29.7985C232.61 31.8994 234.131 33.6471 236.144 34.045C235.765 34.1458 235.375 34.1969 234.983 34.1969C234.705 34.1974 234.428 34.1705 234.155 34.1165C234.715 35.8374 236.343 37.089 238.273 37.1247C236.705 38.332 234.78 38.9846 232.801 38.9798C232.45 38.9792 232.099 38.9584 231.75 38.9172C233.763 40.2019 236.104 40.8815 238.493 40.875C246.605 40.875 251.037 34.2729 251.037 28.5469C251.037 28.3592 251.032 28.1715 251.023 27.9882C251.884 27.3767 252.628 26.6169 253.221 25.7443Z" fill="white"/>
<path fill-rule="evenodd" clip-rule="evenodd" d="M303.221 30.233C303.221 24.2846 298.072 19.4614 291.721 19.4614C285.37 19.4614 280.221 24.2846 280.221 30.233C280.221 35.6092 284.426 40.0654 289.924 40.8743V33.3476L287.003 33.3476V30.233L289.924 30.233V27.8599C289.924 25.1607 291.641 23.6686 294.268 23.6686C295.526 23.6686 296.843 23.8792 296.843 23.8792V26.5303L295.392 26.5303C293.964 26.5303 293.517 27.3603 293.517 28.2133V30.233L296.706 30.233L296.197 33.3476L293.518 33.3476V40.8752C299.016 40.0669 303.221 35.6106 303.221 30.233Z" fill="white"/>
<defs>
<linearGradient id="paint0_linear_1_1009" x1="-4.19587" y1="13" x2="177.357" y2="44.8025" gradientUnits="userSpaceOnUse">
<stop stop-color="#FFB629"/>
<stop offset="0.507189" stop-color="#FFDA56"/>
<stop offset="1" stop-color="#FFD7A6"/>
</linearGradient>
</defs>
</svg>
