<svg width="201" height="63" viewBox="0 0 201 63" fill="none" xmlns="http://www.w3.org/2000/svg">
<circle cx="31.5" cy="31.5" r="31.5" fill="url(#paint0_linear_1_1372)"/>
<path d="M43 36.537V25.463C42.9991 25.303 42.9552 25.1461 42.8728 25.0081C42.7903 24.8701 42.6721 24.7558 42.5302 24.6768L32.4469 19.1174C32.311 19.0405 32.1569 19 32 19C31.8431 19 31.689 19.0405 31.5531 19.1174L21.4698 24.6768C21.3279 24.7558 21.2097 24.8701 21.1272 25.0081C21.0448 25.1461 21.0009 25.303 21 25.463V36.537C21.0009 36.697 21.0448 36.8539 21.1272 36.9919C21.2097 37.1299 21.3279 37.2442 21.4698 37.3232L31.5531 42.8826C31.689 42.9595 31.8431 43 32 43C32.1569 43 32.311 42.9595 32.4469 42.8826L42.5302 37.3232C42.6721 37.2442 42.7903 37.1299 42.8728 36.9919C42.9552 36.8539 42.9991 36.697 43 36.537V36.537Z" stroke="#1C1F35" stroke-width="2" stroke-linecap="round" stroke-linejoin="round"/>
<path d="M38 34V28.0853L27 22" stroke="#1C1F35" stroke-width="2" stroke-linecap="round" stroke-linejoin="round"/>
<path d="M43 25L32.1043 31L21 25" stroke="#1C1F35" stroke-width="2" stroke-linecap="round" stroke-linejoin="round"/>
<path d="M32 31V43" stroke="#1C1F35" stroke-width="2" stroke-linecap="round" stroke-linejoin="round"/>
<path d="M81.24 38.7C80.08 38.7 79.1067 38.52 78.32 38.16C77.5333 37.8 76.9267 37.34 76.5 36.78C76.0867 36.2067 75.8667 35.6067 75.84 34.98C75.84 34.8733 75.88 34.78 75.96 34.7C76.0533 34.6067 76.16 34.56 76.28 34.56H77.3C77.46 34.56 77.58 34.6 77.66 34.68C77.74 34.76 77.7933 34.8533 77.82 34.96C77.9 35.28 78.0667 35.6 78.32 35.92C78.5733 36.2267 78.9333 36.4867 79.4 36.7C79.88 36.9 80.4933 37 81.24 37C82.3867 37 83.2267 36.8 83.76 36.4C84.3067 35.9867 84.58 35.44 84.58 34.76C84.58 34.2933 84.4333 33.92 84.14 33.64C83.86 33.3467 83.4267 33.0867 82.84 32.86C82.2533 32.6333 81.4933 32.3867 80.56 32.12C79.5867 31.84 78.78 31.5333 78.14 31.2C77.5 30.8667 77.02 30.4533 76.7 29.96C76.3933 29.4667 76.24 28.84 76.24 28.08C76.24 27.36 76.4333 26.72 76.82 26.16C77.2067 25.5867 77.7667 25.1333 78.5 24.8C79.2333 24.4667 80.1133 24.3 81.14 24.3C81.9667 24.3 82.6867 24.4133 83.3 24.64C83.9267 24.8533 84.4467 25.1467 84.86 25.52C85.2733 25.88 85.5867 26.2733 85.8 26.7C86.0133 27.1133 86.1267 27.52 86.14 27.92C86.14 28.0133 86.1067 28.1067 86.04 28.2C85.9733 28.28 85.8667 28.32 85.72 28.32H84.66C84.5667 28.32 84.4667 28.2933 84.36 28.24C84.2667 28.1867 84.1933 28.0867 84.14 27.94C84.06 27.3933 83.7533 26.9333 83.22 26.56C82.6867 26.1867 81.9933 26 81.14 26C80.2733 26 79.5667 26.1667 79.02 26.5C78.4867 26.8333 78.22 27.3533 78.22 28.06C78.22 28.5133 78.3467 28.8933 78.6 29.2C78.8533 29.4933 79.2533 29.7533 79.8 29.98C80.3467 30.2067 81.06 30.4467 81.94 30.7C83.0067 30.9933 83.88 31.3067 84.56 31.64C85.24 31.96 85.74 32.3667 86.06 32.86C86.3933 33.34 86.56 33.96 86.56 34.72C86.56 35.56 86.34 36.28 85.9 36.88C85.46 37.4667 84.84 37.92 84.04 38.24C83.2533 38.5467 82.32 38.7 81.24 38.7ZM91.8214 38.7C91.1547 38.7 90.5481 38.5667 90.0014 38.3C89.4547 38.0333 89.0147 37.6733 88.6814 37.22C88.3481 36.7667 88.1814 36.2533 88.1814 35.68C88.1814 34.76 88.5547 34.0267 89.3014 33.48C90.0481 32.9333 91.0214 32.5733 92.2214 32.4L95.2014 31.98V31.4C95.2014 30.76 95.0147 30.26 94.6414 29.9C94.2814 29.54 93.6881 29.36 92.8614 29.36C92.2747 29.36 91.7947 29.48 91.4214 29.72C91.0481 29.96 90.7881 30.2667 90.6414 30.64C90.5614 30.84 90.4214 30.94 90.2214 30.94H89.3214C89.1747 30.94 89.0614 30.9 88.9814 30.82C88.9147 30.7267 88.8814 30.62 88.8814 30.5C88.8814 30.3 88.9547 30.0533 89.1014 29.76C89.2614 29.4667 89.5014 29.18 89.8214 28.9C90.1414 28.62 90.5481 28.3867 91.0414 28.2C91.5481 28 92.1614 27.9 92.8814 27.9C93.6814 27.9 94.3547 28.0067 94.9014 28.22C95.4481 28.42 95.8747 28.6933 96.1814 29.04C96.5014 29.3867 96.7281 29.78 96.8614 30.22C97.0081 30.66 97.0814 31.1067 97.0814 31.56V38.04C97.0814 38.1733 97.0347 38.2867 96.9414 38.38C96.8614 38.46 96.7547 38.5 96.6214 38.5H95.7014C95.5547 38.5 95.4414 38.46 95.3614 38.38C95.2814 38.2867 95.2414 38.1733 95.2414 38.04V37.18C95.0681 37.42 94.8347 37.66 94.5414 37.9C94.2481 38.1267 93.8814 38.32 93.4414 38.48C93.0014 38.6267 92.4614 38.7 91.8214 38.7ZM92.2414 37.2C92.7881 37.2 93.2881 37.0867 93.7414 36.86C94.1947 36.62 94.5481 36.2533 94.8014 35.76C95.0681 35.2667 95.2014 34.6467 95.2014 33.9V33.34L92.8814 33.68C91.9347 33.8133 91.2214 34.04 90.7414 34.36C90.2614 34.6667 90.0214 35.06 90.0214 35.54C90.0214 35.9133 90.1281 36.2267 90.3414 36.48C90.5681 36.72 90.8481 36.9 91.1814 37.02C91.5281 37.14 91.8814 37.2 92.2414 37.2ZM101.359 38.5C101.226 38.5 101.112 38.46 101.019 38.38C100.939 38.2867 100.899 38.1733 100.899 38.04V29.7H99.1989C99.0656 29.7 98.9522 29.66 98.8589 29.58C98.7789 29.4867 98.7389 29.3733 98.7389 29.24V28.56C98.7389 28.4267 98.7789 28.32 98.8589 28.24C98.9522 28.1467 99.0656 28.1 99.1989 28.1H100.899V27.1C100.899 26.42 101.012 25.8267 101.239 25.32C101.466 24.8 101.826 24.4 102.319 24.12C102.826 23.84 103.499 23.7 104.339 23.7H105.539C105.672 23.7 105.779 23.7467 105.859 23.84C105.952 23.92 105.999 24.0267 105.999 24.16V24.84C105.999 24.9733 105.952 25.0867 105.859 25.18C105.779 25.26 105.672 25.3 105.539 25.3H104.379C103.752 25.3 103.326 25.4667 103.099 25.8C102.872 26.12 102.759 26.5867 102.759 27.2V28.1H105.339C105.472 28.1 105.579 28.1467 105.659 28.24C105.752 28.32 105.799 28.4267 105.799 28.56V29.24C105.799 29.3733 105.752 29.4867 105.659 29.58C105.579 29.66 105.472 29.7 105.339 29.7H102.759V38.04C102.759 38.1733 102.712 38.2867 102.619 38.38C102.539 38.46 102.432 38.5 102.299 38.5H101.359ZM111.519 38.7C110.132 38.7 109.032 38.28 108.219 37.44C107.406 36.5867 106.959 35.4267 106.879 33.96C106.866 33.7867 106.859 33.5667 106.859 33.3C106.859 33.02 106.866 32.7933 106.879 32.62C106.932 31.6733 107.152 30.8467 107.539 30.14C107.926 29.42 108.452 28.8667 109.119 28.48C109.799 28.0933 110.592 27.9 111.499 27.9C112.512 27.9 113.359 28.1133 114.039 28.54C114.732 28.9667 115.259 29.5733 115.619 30.36C115.979 31.1467 116.159 32.0667 116.159 33.12V33.46C116.159 33.6067 116.112 33.72 116.019 33.8C115.939 33.88 115.832 33.92 115.699 33.92H108.779C108.779 33.9333 108.779 33.96 108.779 34C108.779 34.04 108.779 34.0733 108.779 34.1C108.806 34.6467 108.926 35.16 109.139 35.64C109.352 36.1067 109.659 36.4867 110.059 36.78C110.472 37.0733 110.952 37.22 111.499 37.22C111.979 37.22 112.379 37.1467 112.699 37C113.019 36.8533 113.279 36.6933 113.479 36.52C113.679 36.3333 113.812 36.1867 113.879 36.08C113.999 35.92 114.092 35.8267 114.159 35.8C114.226 35.76 114.332 35.74 114.479 35.74H115.459C115.579 35.74 115.679 35.78 115.759 35.86C115.852 35.9267 115.892 36.0267 115.879 36.16C115.866 36.36 115.759 36.6067 115.559 36.9C115.359 37.18 115.072 37.46 114.699 37.74C114.339 38.02 113.886 38.2533 113.339 38.44C112.806 38.6133 112.199 38.7 111.519 38.7ZM108.779 32.54H114.259V32.48C114.259 31.88 114.146 31.3467 113.919 30.88C113.706 30.4133 113.392 30.0467 112.979 29.78C112.566 29.5 112.072 29.36 111.499 29.36C110.926 29.36 110.432 29.5 110.019 29.78C109.619 30.0467 109.312 30.4133 109.099 30.88C108.886 31.3467 108.779 31.88 108.779 32.48V32.54ZM124.173 38.5C124.026 38.5 123.913 38.46 123.833 38.38C123.753 38.2867 123.713 38.1733 123.713 38.04V24.98C123.713 24.8333 123.753 24.72 123.833 24.64C123.913 24.5467 124.026 24.5 124.173 24.5H129.253C130.239 24.5 131.093 24.66 131.813 24.98C132.546 25.3 133.113 25.78 133.513 26.42C133.913 27.0467 134.113 27.8333 134.113 28.78C134.113 29.7267 133.913 30.5133 133.513 31.14C133.113 31.7667 132.546 32.24 131.813 32.56C131.093 32.88 130.239 33.04 129.253 33.04H125.713V38.04C125.713 38.1733 125.666 38.2867 125.573 38.38C125.493 38.46 125.379 38.5 125.233 38.5H124.173ZM125.693 31.36H129.153C130.139 31.36 130.879 31.14 131.373 30.7C131.866 30.26 132.113 29.62 132.113 28.78C132.113 27.9533 131.873 27.3133 131.393 26.86C130.913 26.4067 130.166 26.18 129.153 26.18H125.693V31.36ZM138.989 38.7C138.323 38.7 137.716 38.5667 137.169 38.3C136.623 38.0333 136.183 37.6733 135.849 37.22C135.516 36.7667 135.349 36.2533 135.349 35.68C135.349 34.76 135.723 34.0267 136.469 33.48C137.216 32.9333 138.189 32.5733 139.389 32.4L142.369 31.98V31.4C142.369 30.76 142.183 30.26 141.809 29.9C141.449 29.54 140.856 29.36 140.029 29.36C139.443 29.36 138.963 29.48 138.589 29.72C138.216 29.96 137.956 30.2667 137.809 30.64C137.729 30.84 137.589 30.94 137.389 30.94H136.489C136.343 30.94 136.229 30.9 136.149 30.82C136.083 30.7267 136.049 30.62 136.049 30.5C136.049 30.3 136.123 30.0533 136.269 29.76C136.429 29.4667 136.669 29.18 136.989 28.9C137.309 28.62 137.716 28.3867 138.209 28.2C138.716 28 139.329 27.9 140.049 27.9C140.849 27.9 141.523 28.0067 142.069 28.22C142.616 28.42 143.043 28.6933 143.349 29.04C143.669 29.3867 143.896 29.78 144.029 30.22C144.176 30.66 144.249 31.1067 144.249 31.56V38.04C144.249 38.1733 144.203 38.2867 144.109 38.38C144.029 38.46 143.923 38.5 143.789 38.5H142.869C142.723 38.5 142.609 38.46 142.529 38.38C142.449 38.2867 142.409 38.1733 142.409 38.04V37.18C142.236 37.42 142.003 37.66 141.709 37.9C141.416 38.1267 141.049 38.32 140.609 38.48C140.169 38.6267 139.629 38.7 138.989 38.7ZM139.409 37.2C139.956 37.2 140.456 37.0867 140.909 36.86C141.363 36.62 141.716 36.2533 141.969 35.76C142.236 35.2667 142.369 34.6467 142.369 33.9V33.34L140.049 33.68C139.103 33.8133 138.389 34.04 137.909 34.36C137.429 34.6667 137.189 35.06 137.189 35.54C137.189 35.9133 137.296 36.2267 137.509 36.48C137.736 36.72 138.016 36.9 138.349 37.02C138.696 37.14 139.049 37.2 139.409 37.2ZM151.325 38.7C150.378 38.7 149.558 38.52 148.865 38.16C148.185 37.7867 147.658 37.26 147.285 36.58C146.911 35.8867 146.711 35.06 146.685 34.1C146.671 33.9 146.665 33.6333 146.665 33.3C146.665 32.9667 146.671 32.7 146.685 32.5C146.711 31.54 146.911 30.72 147.285 30.04C147.658 29.3467 148.185 28.82 148.865 28.46C149.558 28.0867 150.378 27.9 151.325 27.9C152.098 27.9 152.758 28.0067 153.305 28.22C153.865 28.4333 154.325 28.7067 154.685 29.04C155.045 29.3733 155.311 29.7333 155.485 30.12C155.671 30.5067 155.771 30.8733 155.785 31.22C155.798 31.3533 155.758 31.46 155.665 31.54C155.571 31.62 155.458 31.66 155.325 31.66H154.365C154.231 31.66 154.131 31.6333 154.065 31.58C153.998 31.5133 153.931 31.4067 153.865 31.26C153.625 30.6067 153.298 30.1467 152.885 29.88C152.471 29.6133 151.958 29.48 151.345 29.48C150.545 29.48 149.891 29.7267 149.385 30.22C148.891 30.7133 148.625 31.5067 148.585 32.6C148.571 33.08 148.571 33.5467 148.585 34C148.625 35.1067 148.891 35.9067 149.385 36.4C149.891 36.88 150.545 37.12 151.345 37.12C151.958 37.12 152.471 36.9867 152.885 36.72C153.298 36.4533 153.625 35.9933 153.865 35.34C153.931 35.1933 153.998 35.0867 154.065 35.02C154.131 34.9533 154.231 34.92 154.365 34.92H155.325C155.458 34.92 155.571 34.9667 155.665 35.06C155.758 35.14 155.798 35.2467 155.785 35.38C155.771 35.66 155.711 35.9467 155.605 36.24C155.498 36.5333 155.325 36.8333 155.085 37.14C154.858 37.4333 154.571 37.7 154.225 37.94C153.878 38.1667 153.465 38.3533 152.985 38.5C152.505 38.6333 151.951 38.7 151.325 38.7ZM158.64 38.5C158.506 38.5 158.393 38.46 158.3 38.38C158.22 38.2867 158.18 38.1733 158.18 38.04V24.76C158.18 24.6267 158.22 24.52 158.3 24.44C158.393 24.3467 158.506 24.3 158.64 24.3H159.58C159.713 24.3 159.82 24.3467 159.9 24.44C159.993 24.52 160.04 24.6267 160.04 24.76V31.72L163.98 28.44C164.14 28.3067 164.26 28.22 164.34 28.18C164.433 28.1267 164.58 28.1 164.78 28.1H165.84C165.96 28.1 166.06 28.14 166.14 28.22C166.22 28.3 166.26 28.4 166.26 28.52C166.26 28.5733 166.24 28.6333 166.2 28.7C166.173 28.7667 166.113 28.8333 166.02 28.9L161.4 32.74L166.52 37.72C166.68 37.8533 166.76 37.9733 166.76 38.08C166.76 38.2 166.72 38.3 166.64 38.38C166.56 38.46 166.46 38.5 166.34 38.5H165.3C165.1 38.5 164.953 38.48 164.86 38.44C164.766 38.3867 164.646 38.2933 164.5 38.16L160.04 33.9V38.04C160.04 38.1733 159.993 38.2867 159.9 38.38C159.82 38.46 159.713 38.5 159.58 38.5H158.64ZM171.177 38.7C170.51 38.7 169.904 38.5667 169.357 38.3C168.81 38.0333 168.37 37.6733 168.037 37.22C167.704 36.7667 167.537 36.2533 167.537 35.68C167.537 34.76 167.91 34.0267 168.657 33.48C169.404 32.9333 170.377 32.5733 171.577 32.4L174.557 31.98V31.4C174.557 30.76 174.37 30.26 173.997 29.9C173.637 29.54 173.044 29.36 172.217 29.36C171.63 29.36 171.15 29.48 170.777 29.72C170.404 29.96 170.144 30.2667 169.997 30.64C169.917 30.84 169.777 30.94 169.577 30.94H168.677C168.53 30.94 168.417 30.9 168.337 30.82C168.27 30.7267 168.237 30.62 168.237 30.5C168.237 30.3 168.31 30.0533 168.457 29.76C168.617 29.4667 168.857 29.18 169.177 28.9C169.497 28.62 169.904 28.3867 170.397 28.2C170.904 28 171.517 27.9 172.237 27.9C173.037 27.9 173.71 28.0067 174.257 28.22C174.804 28.42 175.23 28.6933 175.537 29.04C175.857 29.3867 176.084 29.78 176.217 30.22C176.364 30.66 176.437 31.1067 176.437 31.56V38.04C176.437 38.1733 176.39 38.2867 176.297 38.38C176.217 38.46 176.11 38.5 175.977 38.5H175.057C174.91 38.5 174.797 38.46 174.717 38.38C174.637 38.2867 174.597 38.1733 174.597 38.04V37.18C174.424 37.42 174.19 37.66 173.897 37.9C173.604 38.1267 173.237 38.32 172.797 38.48C172.357 38.6267 171.817 38.7 171.177 38.7ZM171.597 37.2C172.144 37.2 172.644 37.0867 173.097 36.86C173.55 36.62 173.904 36.2533 174.157 35.76C174.424 35.2667 174.557 34.6467 174.557 33.9V33.34L172.237 33.68C171.29 33.8133 170.577 34.04 170.097 34.36C169.617 34.6667 169.377 35.06 169.377 35.54C169.377 35.9133 169.484 36.2267 169.697 36.48C169.924 36.72 170.204 36.9 170.537 37.02C170.884 37.14 171.237 37.2 171.597 37.2ZM183.572 42.9C182.665 42.9 181.919 42.78 181.332 42.54C180.759 42.3 180.305 42.0067 179.972 41.66C179.652 41.3267 179.419 40.9867 179.272 40.64C179.139 40.3067 179.065 40.04 179.052 39.84C179.039 39.7067 179.079 39.5933 179.172 39.5C179.279 39.4067 179.392 39.36 179.512 39.36H180.472C180.592 39.36 180.692 39.3867 180.772 39.44C180.852 39.4933 180.919 39.6067 180.972 39.78C181.052 39.98 181.172 40.2 181.332 40.44C181.492 40.6933 181.739 40.9067 182.072 41.08C182.405 41.2667 182.872 41.36 183.472 41.36C184.099 41.36 184.625 41.2733 185.052 41.1C185.479 40.9267 185.799 40.6333 186.012 40.22C186.239 39.8067 186.352 39.2333 186.352 38.5V37.14C186.032 37.5533 185.612 37.9 185.092 38.18C184.572 38.4467 183.919 38.58 183.132 38.58C182.385 38.58 181.745 38.4533 181.212 38.2C180.679 37.9333 180.239 37.58 179.892 37.14C179.559 36.6867 179.305 36.1733 179.132 35.6C178.972 35.0267 178.879 34.4267 178.852 33.8C178.839 33.4267 178.839 33.06 178.852 32.7C178.879 32.0733 178.972 31.4733 179.132 30.9C179.305 30.3267 179.559 29.8133 179.892 29.36C180.239 28.9067 180.679 28.5533 181.212 28.3C181.745 28.0333 182.385 27.9 183.132 27.9C183.932 27.9 184.592 28.0467 185.112 28.34C185.645 28.6333 186.079 29 186.412 29.44V28.58C186.412 28.4467 186.452 28.3333 186.532 28.24C186.625 28.1467 186.739 28.1 186.872 28.1H187.792C187.925 28.1 188.039 28.1467 188.132 28.24C188.225 28.3333 188.272 28.4467 188.272 28.58V38.28C188.272 39.1733 188.119 39.9667 187.812 40.66C187.519 41.3533 187.025 41.9 186.332 42.3C185.652 42.7 184.732 42.9 183.572 42.9ZM183.532 36.98C184.199 36.98 184.732 36.8267 185.132 36.52C185.545 36.2133 185.845 35.8267 186.032 35.36C186.232 34.8933 186.339 34.42 186.352 33.94C186.365 33.7533 186.372 33.5267 186.372 33.26C186.372 32.98 186.365 32.7467 186.352 32.56C186.339 32.08 186.232 31.6067 186.032 31.14C185.845 30.6733 185.545 30.2867 185.132 29.98C184.732 29.6733 184.199 29.52 183.532 29.52C182.865 29.52 182.332 29.6733 181.932 29.98C181.532 30.2733 181.245 30.6667 181.072 31.16C180.899 31.64 180.799 32.16 180.772 32.72C180.759 33.0667 180.759 33.42 180.772 33.78C180.799 34.34 180.899 34.8667 181.072 35.36C181.245 35.84 181.532 36.2333 181.932 36.54C182.332 36.8333 182.865 36.98 183.532 36.98ZM195.406 38.7C194.019 38.7 192.919 38.28 192.106 37.44C191.292 36.5867 190.846 35.4267 190.766 33.96C190.752 33.7867 190.746 33.5667 190.746 33.3C190.746 33.02 190.752 32.7933 190.766 32.62C190.819 31.6733 191.039 30.8467 191.426 30.14C191.812 29.42 192.339 28.8667 193.006 28.48C193.686 28.0933 194.479 27.9 195.386 27.9C196.399 27.9 197.246 28.1133 197.926 28.54C198.619 28.9667 199.146 29.5733 199.506 30.36C199.866 31.1467 200.046 32.0667 200.046 33.12V33.46C200.046 33.6067 199.999 33.72 199.906 33.8C199.826 33.88 199.719 33.92 199.586 33.92H192.666C192.666 33.9333 192.666 33.96 192.666 34C192.666 34.04 192.666 34.0733 192.666 34.1C192.692 34.6467 192.812 35.16 193.026 35.64C193.239 36.1067 193.546 36.4867 193.946 36.78C194.359 37.0733 194.839 37.22 195.386 37.22C195.866 37.22 196.266 37.1467 196.586 37C196.906 36.8533 197.166 36.6933 197.366 36.52C197.566 36.3333 197.699 36.1867 197.766 36.08C197.886 35.92 197.979 35.8267 198.046 35.8C198.112 35.76 198.219 35.74 198.366 35.74H199.346C199.466 35.74 199.566 35.78 199.646 35.86C199.739 35.9267 199.779 36.0267 199.766 36.16C199.752 36.36 199.646 36.6067 199.446 36.9C199.246 37.18 198.959 37.46 198.586 37.74C198.226 38.02 197.772 38.2533 197.226 38.44C196.692 38.6133 196.086 38.7 195.406 38.7ZM192.666 32.54H198.146V32.48C198.146 31.88 198.032 31.3467 197.806 30.88C197.592 30.4133 197.279 30.0467 196.866 29.78C196.452 29.5 195.959 29.36 195.386 29.36C194.812 29.36 194.319 29.5 193.906 29.78C193.506 30.0467 193.199 30.4133 192.986 30.88C192.772 31.3467 192.666 31.88 192.666 32.48V32.54Z" fill="#1C1F35"/>
<defs>
<linearGradient id="paint0_linear_1_1372" x1="-1.78608" y1="13.65" x2="77.4684" y2="19.2782" gradientUnits="userSpaceOnUse">
<stop stop-color="#FFB629"/>
<stop offset="0.507189" stop-color="#FFDA56"/>
<stop offset="1" stop-color="#FFD7A6"/>
</linearGradient>
</defs>
</svg>
