<svg width="216" height="63" viewBox="0 0 216 63" fill="none" xmlns="http://www.w3.org/2000/svg">
<circle cx="31.5" cy="31.5" r="31.5" fill="url(#paint0_linear_1_1381)"/>
<path d="M32 20C38.6274 20 44 25.3726 44 32C44 38.6274 38.6274 44 32 44C25.3726 44 20 38.6274 20 32C20 25.3726 25.3726 20 32 20Z" stroke="#1C1F35" stroke-width="2" stroke-linecap="round" stroke-linejoin="round"/>
<path d="M21 36H43" stroke="#1C1F35" stroke-width="2" stroke-linecap="round" stroke-linejoin="round"/>
<path d="M21 28H43" stroke="#1C1F35" stroke-width="2" stroke-linecap="round" stroke-linejoin="round"/>
<path d="M32 20C34.2091 20 36 25.3726 36 32C36 38.6274 34.2091 44 32 44C29.7909 44 28 38.6274 28 32C28 25.3726 29.7909 20 32 20Z" stroke="#1C1F35" stroke-width="2" stroke-linecap="round" stroke-linejoin="round"/>
<path d="M81.84 38.7C80.6533 38.7 79.6467 38.48 78.82 38.04C78.0067 37.6 77.38 36.98 76.94 36.18C76.5133 35.38 76.2733 34.44 76.22 33.36C76.2067 32.7733 76.2 32.1533 76.2 31.5C76.2 30.8333 76.2067 30.2 76.22 29.6C76.2733 28.52 76.5133 27.5867 76.94 26.8C77.38 26 78.0133 25.3867 78.84 24.96C79.6667 24.52 80.6667 24.3 81.84 24.3C82.7733 24.3 83.5867 24.4333 84.28 24.7C84.9733 24.9667 85.54 25.3067 85.98 25.72C86.4333 26.12 86.7667 26.54 86.98 26.98C87.2067 27.42 87.3267 27.8067 87.34 28.14C87.3533 28.26 87.32 28.36 87.24 28.44C87.16 28.5067 87.0533 28.54 86.92 28.54H85.74C85.6067 28.54 85.5067 28.5133 85.44 28.46C85.3867 28.4067 85.3333 28.3133 85.28 28.18C85.16 27.8333 84.96 27.4933 84.68 27.16C84.4133 26.8267 84.0467 26.5533 83.58 26.34C83.1267 26.1133 82.5467 26 81.84 26C80.7733 26 79.9133 26.2867 79.26 26.86C78.62 27.4333 78.2733 28.38 78.22 29.7C78.18 30.8867 78.18 32.0733 78.22 33.26C78.2733 34.5933 78.6267 35.5533 79.28 36.14C79.9333 36.7133 80.7867 37 81.84 37C82.5467 37 83.1733 36.8667 83.72 36.6C84.28 36.3333 84.72 35.9333 85.04 35.4C85.36 34.8533 85.52 34.16 85.52 33.32V32.48H82.52C82.3867 32.48 82.2733 32.44 82.18 32.36C82.1 32.2667 82.06 32.1467 82.06 32V31.36C82.06 31.2133 82.1 31.1 82.18 31.02C82.2733 30.9267 82.3867 30.88 82.52 30.88H87.04C87.1867 30.88 87.3 30.9267 87.38 31.02C87.46 31.1 87.5 31.2133 87.5 31.36V33.28C87.5 34.3733 87.2733 35.3267 86.82 36.14C86.38 36.9533 85.7333 37.5867 84.88 38.04C84.0267 38.48 83.0133 38.7 81.84 38.7ZM90.5733 38.5C90.4399 38.5 90.3266 38.46 90.2333 38.38C90.1533 38.2867 90.1133 38.1733 90.1133 38.04V24.76C90.1133 24.6267 90.1533 24.52 90.2333 24.44C90.3266 24.3467 90.4399 24.3 90.5733 24.3H91.5133C91.6599 24.3 91.7733 24.3467 91.8533 24.44C91.9333 24.52 91.9733 24.6267 91.9733 24.76V38.04C91.9733 38.1733 91.9333 38.2867 91.8533 38.38C91.7733 38.46 91.6599 38.5 91.5133 38.5H90.5733ZM99.2166 38.7C98.2032 38.7 97.3566 38.5067 96.6766 38.12C95.9966 37.7333 95.4766 37.2 95.1166 36.52C94.7566 35.8267 94.5566 35.04 94.5166 34.16C94.5032 33.9333 94.4966 33.6467 94.4966 33.3C94.4966 32.94 94.5032 32.6533 94.5166 32.44C94.5566 31.5467 94.7566 30.76 95.1166 30.08C95.4899 29.4 96.0166 28.8667 96.6966 28.48C97.3766 28.0933 98.2166 27.9 99.2166 27.9C100.217 27.9 101.057 28.0933 101.737 28.48C102.417 28.8667 102.937 29.4 103.297 30.08C103.67 30.76 103.877 31.5467 103.917 32.44C103.93 32.6533 103.937 32.94 103.937 33.3C103.937 33.6467 103.93 33.9333 103.917 34.16C103.877 35.04 103.677 35.8267 103.317 36.52C102.957 37.2 102.437 37.7333 101.757 38.12C101.077 38.5067 100.23 38.7 99.2166 38.7ZM99.2166 37.16C100.043 37.16 100.703 36.9 101.197 36.38C101.69 35.8467 101.957 35.0733 101.997 34.06C102.01 33.86 102.017 33.6067 102.017 33.3C102.017 32.9933 102.01 32.74 101.997 32.54C101.957 31.5267 101.69 30.76 101.197 30.24C100.703 29.7067 100.043 29.44 99.2166 29.44C98.3899 29.44 97.7232 29.7067 97.2166 30.24C96.7232 30.76 96.4632 31.5267 96.4366 32.54C96.4232 32.74 96.4166 32.9933 96.4166 33.3C96.4166 33.6067 96.4232 33.86 96.4366 34.06C96.4632 35.0733 96.7232 35.8467 97.2166 36.38C97.7232 36.9 98.3899 37.16 99.2166 37.16ZM111.581 38.7C110.781 38.7 110.114 38.56 109.581 38.28C109.048 37.9867 108.621 37.6267 108.301 37.2V38.04C108.301 38.1733 108.254 38.2867 108.161 38.38C108.081 38.46 107.974 38.5 107.841 38.5H106.921C106.788 38.5 106.674 38.46 106.581 38.38C106.501 38.2867 106.461 38.1733 106.461 38.04V24.76C106.461 24.6267 106.501 24.52 106.581 24.44C106.674 24.3467 106.788 24.3 106.921 24.3H107.901C108.034 24.3 108.141 24.3467 108.221 24.44C108.301 24.52 108.341 24.6267 108.341 24.76V29.36C108.674 28.9467 109.101 28.6 109.621 28.32C110.154 28.04 110.808 27.9 111.581 27.9C112.328 27.9 112.961 28.0333 113.481 28.3C114.014 28.5533 114.448 28.9067 114.781 29.36C115.128 29.8133 115.388 30.3267 115.561 30.9C115.734 31.4733 115.834 32.0733 115.861 32.7C115.874 32.9133 115.881 33.1133 115.881 33.3C115.881 33.4867 115.874 33.6867 115.861 33.9C115.834 34.54 115.734 35.1467 115.561 35.72C115.388 36.2933 115.128 36.8067 114.781 37.26C114.448 37.7 114.014 38.0533 113.481 38.32C112.961 38.5733 112.328 38.7 111.581 38.7ZM111.161 37.08C111.854 37.08 112.394 36.9333 112.781 36.64C113.181 36.3333 113.468 35.94 113.641 35.46C113.814 34.9667 113.914 34.44 113.941 33.88C113.954 33.4933 113.954 33.1067 113.941 32.72C113.914 32.16 113.814 31.64 113.641 31.16C113.468 30.6667 113.181 30.2733 112.781 29.98C112.394 29.6733 111.854 29.52 111.161 29.52C110.534 29.52 110.014 29.6667 109.601 29.96C109.188 30.2533 108.874 30.6267 108.661 31.08C108.461 31.5333 108.354 31.9933 108.341 32.46C108.328 32.6733 108.321 32.9333 108.321 33.24C108.321 33.5333 108.328 33.7867 108.341 34C108.368 34.4933 108.474 34.98 108.661 35.46C108.861 35.9267 109.161 36.3133 109.561 36.62C109.974 36.9267 110.508 37.08 111.161 37.08ZM121.235 38.7C120.569 38.7 119.962 38.5667 119.415 38.3C118.869 38.0333 118.429 37.6733 118.095 37.22C117.762 36.7667 117.595 36.2533 117.595 35.68C117.595 34.76 117.969 34.0267 118.715 33.48C119.462 32.9333 120.435 32.5733 121.635 32.4L124.615 31.98V31.4C124.615 30.76 124.429 30.26 124.055 29.9C123.695 29.54 123.102 29.36 122.275 29.36C121.689 29.36 121.209 29.48 120.835 29.72C120.462 29.96 120.202 30.2667 120.055 30.64C119.975 30.84 119.835 30.94 119.635 30.94H118.735C118.589 30.94 118.475 30.9 118.395 30.82C118.329 30.7267 118.295 30.62 118.295 30.5C118.295 30.3 118.369 30.0533 118.515 29.76C118.675 29.4667 118.915 29.18 119.235 28.9C119.555 28.62 119.962 28.3867 120.455 28.2C120.962 28 121.575 27.9 122.295 27.9C123.095 27.9 123.769 28.0067 124.315 28.22C124.862 28.42 125.289 28.6933 125.595 29.04C125.915 29.3867 126.142 29.78 126.275 30.22C126.422 30.66 126.495 31.1067 126.495 31.56V38.04C126.495 38.1733 126.449 38.2867 126.355 38.38C126.275 38.46 126.169 38.5 126.035 38.5H125.115C124.969 38.5 124.855 38.46 124.775 38.38C124.695 38.2867 124.655 38.1733 124.655 38.04V37.18C124.482 37.42 124.249 37.66 123.955 37.9C123.662 38.1267 123.295 38.32 122.855 38.48C122.415 38.6267 121.875 38.7 121.235 38.7ZM121.655 37.2C122.202 37.2 122.702 37.0867 123.155 36.86C123.609 36.62 123.962 36.2533 124.215 35.76C124.482 35.2667 124.615 34.6467 124.615 33.9V33.34L122.295 33.68C121.349 33.8133 120.635 34.04 120.155 34.36C119.675 34.6667 119.435 35.06 119.435 35.54C119.435 35.9133 119.542 36.2267 119.755 36.48C119.982 36.72 120.262 36.9 120.595 37.02C120.942 37.14 121.295 37.2 121.655 37.2ZM129.851 38.5C129.717 38.5 129.604 38.46 129.511 38.38C129.431 38.2867 129.391 38.1733 129.391 38.04V24.76C129.391 24.6267 129.431 24.52 129.511 24.44C129.604 24.3467 129.717 24.3 129.851 24.3H130.791C130.937 24.3 131.051 24.3467 131.131 24.44C131.211 24.52 131.251 24.6267 131.251 24.76V38.04C131.251 38.1733 131.211 38.2867 131.131 38.38C131.051 38.46 130.937 38.5 130.791 38.5H129.851ZM142.408 38.5C142.275 38.5 142.162 38.46 142.068 38.38C141.988 38.2867 141.948 38.1733 141.948 38.04V26.28H138.108C137.975 26.28 137.862 26.24 137.768 26.16C137.688 26.0667 137.648 25.9533 137.648 25.82V24.98C137.648 24.8333 137.688 24.72 137.768 24.64C137.862 24.5467 137.975 24.5 138.108 24.5H147.748C147.895 24.5 148.008 24.5467 148.088 24.64C148.182 24.72 148.228 24.8333 148.228 24.98V25.82C148.228 25.9533 148.182 26.0667 148.088 26.16C148.008 26.24 147.895 26.28 147.748 26.28H143.928V38.04C143.928 38.1733 143.882 38.2867 143.788 38.38C143.708 38.46 143.595 38.5 143.448 38.5H142.408ZM149.049 38.5C148.916 38.5 148.803 38.46 148.709 38.38C148.629 38.2867 148.589 38.1733 148.589 38.04V28.58C148.589 28.4467 148.629 28.3333 148.709 28.24C148.803 28.1467 148.916 28.1 149.049 28.1H149.969C150.103 28.1 150.216 28.1467 150.309 28.24C150.403 28.3333 150.449 28.4467 150.449 28.58V29.46C150.716 29.0067 151.083 28.6667 151.549 28.44C152.016 28.2133 152.583 28.1 153.249 28.1H154.029C154.163 28.1 154.269 28.1467 154.349 28.24C154.443 28.32 154.489 28.4267 154.489 28.56V29.38C154.489 29.5133 154.443 29.62 154.349 29.7C154.269 29.78 154.163 29.82 154.029 29.82H152.829C152.109 29.82 151.543 30.0333 151.129 30.46C150.716 30.8733 150.509 31.44 150.509 32.16V38.04C150.509 38.1733 150.463 38.2867 150.369 38.38C150.276 38.46 150.163 38.5 150.029 38.5H149.049ZM158.931 38.7C158.264 38.7 157.657 38.5667 157.111 38.3C156.564 38.0333 156.124 37.6733 155.791 37.22C155.457 36.7667 155.291 36.2533 155.291 35.68C155.291 34.76 155.664 34.0267 156.411 33.48C157.157 32.9333 158.131 32.5733 159.331 32.4L162.311 31.98V31.4C162.311 30.76 162.124 30.26 161.751 29.9C161.391 29.54 160.797 29.36 159.971 29.36C159.384 29.36 158.904 29.48 158.531 29.72C158.157 29.96 157.897 30.2667 157.751 30.64C157.671 30.84 157.531 30.94 157.331 30.94H156.431C156.284 30.94 156.171 30.9 156.091 30.82C156.024 30.7267 155.991 30.62 155.991 30.5C155.991 30.3 156.064 30.0533 156.211 29.76C156.371 29.4667 156.611 29.18 156.931 28.9C157.251 28.62 157.657 28.3867 158.151 28.2C158.657 28 159.271 27.9 159.991 27.9C160.791 27.9 161.464 28.0067 162.011 28.22C162.557 28.42 162.984 28.6933 163.291 29.04C163.611 29.3867 163.837 29.78 163.971 30.22C164.117 30.66 164.191 31.1067 164.191 31.56V38.04C164.191 38.1733 164.144 38.2867 164.051 38.38C163.971 38.46 163.864 38.5 163.731 38.5H162.811C162.664 38.5 162.551 38.46 162.471 38.38C162.391 38.2867 162.351 38.1733 162.351 38.04V37.18C162.177 37.42 161.944 37.66 161.651 37.9C161.357 38.1267 160.991 38.32 160.551 38.48C160.111 38.6267 159.571 38.7 158.931 38.7ZM159.351 37.2C159.897 37.2 160.397 37.0867 160.851 36.86C161.304 36.62 161.657 36.2533 161.911 35.76C162.177 35.2667 162.311 34.6467 162.311 33.9V33.34L159.991 33.68C159.044 33.8133 158.331 34.04 157.851 34.36C157.371 34.6667 157.131 35.06 157.131 35.54C157.131 35.9133 157.237 36.2267 157.451 36.48C157.677 36.72 157.957 36.9 158.291 37.02C158.637 37.14 158.991 37.2 159.351 37.2ZM171.266 38.7C170.319 38.7 169.499 38.52 168.806 38.16C168.126 37.7867 167.599 37.26 167.226 36.58C166.853 35.8867 166.653 35.06 166.626 34.1C166.613 33.9 166.606 33.6333 166.606 33.3C166.606 32.9667 166.613 32.7 166.626 32.5C166.653 31.54 166.853 30.72 167.226 30.04C167.599 29.3467 168.126 28.82 168.806 28.46C169.499 28.0867 170.319 27.9 171.266 27.9C172.039 27.9 172.699 28.0067 173.246 28.22C173.806 28.4333 174.266 28.7067 174.626 29.04C174.986 29.3733 175.253 29.7333 175.426 30.12C175.613 30.5067 175.713 30.8733 175.726 31.22C175.739 31.3533 175.699 31.46 175.606 31.54C175.513 31.62 175.399 31.66 175.266 31.66H174.306C174.173 31.66 174.073 31.6333 174.006 31.58C173.939 31.5133 173.873 31.4067 173.806 31.26C173.566 30.6067 173.239 30.1467 172.826 29.88C172.413 29.6133 171.899 29.48 171.286 29.48C170.486 29.48 169.833 29.7267 169.326 30.22C168.833 30.7133 168.566 31.5067 168.526 32.6C168.513 33.08 168.513 33.5467 168.526 34C168.566 35.1067 168.833 35.9067 169.326 36.4C169.833 36.88 170.486 37.12 171.286 37.12C171.899 37.12 172.413 36.9867 172.826 36.72C173.239 36.4533 173.566 35.9933 173.806 35.34C173.873 35.1933 173.939 35.0867 174.006 35.02C174.073 34.9533 174.173 34.92 174.306 34.92H175.266C175.399 34.92 175.513 34.9667 175.606 35.06C175.699 35.14 175.739 35.2467 175.726 35.38C175.713 35.66 175.653 35.9467 175.546 36.24C175.439 36.5333 175.266 36.8333 175.026 37.14C174.799 37.4333 174.513 37.7 174.166 37.94C173.819 38.1667 173.406 38.3533 172.926 38.5C172.446 38.6333 171.893 38.7 171.266 38.7ZM178.581 38.5C178.448 38.5 178.334 38.46 178.241 38.38C178.161 38.2867 178.121 38.1733 178.121 38.04V24.76C178.121 24.6267 178.161 24.52 178.241 24.44C178.334 24.3467 178.448 24.3 178.581 24.3H179.521C179.654 24.3 179.761 24.3467 179.841 24.44C179.934 24.52 179.981 24.6267 179.981 24.76V31.72L183.921 28.44C184.081 28.3067 184.201 28.22 184.281 28.18C184.374 28.1267 184.521 28.1 184.721 28.1H185.781C185.901 28.1 186.001 28.14 186.081 28.22C186.161 28.3 186.201 28.4 186.201 28.52C186.201 28.5733 186.181 28.6333 186.141 28.7C186.114 28.7667 186.054 28.8333 185.961 28.9L181.341 32.74L186.461 37.72C186.621 37.8533 186.701 37.9733 186.701 38.08C186.701 38.2 186.661 38.3 186.581 38.38C186.501 38.46 186.401 38.5 186.281 38.5H185.241C185.041 38.5 184.894 38.48 184.801 38.44C184.708 38.3867 184.588 38.2933 184.441 38.16L179.981 33.9V38.04C179.981 38.1733 179.934 38.2867 179.841 38.38C179.761 38.46 179.654 38.5 179.521 38.5H178.581ZM188.874 38.5C188.74 38.5 188.627 38.46 188.534 38.38C188.454 38.2867 188.414 38.1733 188.414 38.04V28.56C188.414 28.4267 188.454 28.32 188.534 28.24C188.627 28.1467 188.74 28.1 188.874 28.1H189.834C189.967 28.1 190.074 28.1467 190.154 28.24C190.247 28.32 190.294 28.4267 190.294 28.56V38.04C190.294 38.1733 190.247 38.2867 190.154 38.38C190.074 38.46 189.967 38.5 189.834 38.5H188.874ZM188.714 26.16C188.58 26.16 188.467 26.12 188.374 26.04C188.294 25.9467 188.254 25.8333 188.254 25.7V24.62C188.254 24.4867 188.294 24.3733 188.374 24.28C188.467 24.1867 188.58 24.14 188.714 24.14H189.974C190.107 24.14 190.22 24.1867 190.314 24.28C190.407 24.3733 190.454 24.4867 190.454 24.62V25.7C190.454 25.8333 190.407 25.9467 190.314 26.04C190.22 26.12 190.107 26.16 189.974 26.16H188.714ZM193.717 38.5C193.584 38.5 193.471 38.46 193.377 38.38C193.297 38.2867 193.257 38.1733 193.257 38.04V28.56C193.257 28.4267 193.297 28.32 193.377 28.24C193.471 28.1467 193.584 28.1 193.717 28.1H194.657C194.791 28.1 194.897 28.1467 194.977 28.24C195.071 28.32 195.117 28.4267 195.117 28.56V29.44C195.464 28.9867 195.897 28.62 196.417 28.34C196.951 28.0467 197.631 27.9 198.457 27.9C199.324 27.9 200.057 28.0933 200.657 28.48C201.271 28.8533 201.731 29.38 202.037 30.06C202.357 30.7267 202.517 31.5067 202.517 32.4V38.04C202.517 38.1733 202.471 38.2867 202.377 38.38C202.297 38.46 202.191 38.5 202.057 38.5H201.057C200.924 38.5 200.811 38.46 200.717 38.38C200.637 38.2867 200.597 38.1733 200.597 38.04V32.5C200.597 31.5667 200.371 30.84 199.917 30.32C199.464 29.7867 198.797 29.52 197.917 29.52C197.091 29.52 196.424 29.7867 195.917 30.32C195.424 30.84 195.177 31.5667 195.177 32.5V38.04C195.177 38.1733 195.131 38.2867 195.037 38.38C194.957 38.46 194.851 38.5 194.717 38.5H193.717ZM209.646 42.9C208.74 42.9 207.993 42.78 207.406 42.54C206.833 42.3 206.38 42.0067 206.046 41.66C205.726 41.3267 205.493 40.9867 205.346 40.64C205.213 40.3067 205.14 40.04 205.126 39.84C205.113 39.7067 205.153 39.5933 205.246 39.5C205.353 39.4067 205.466 39.36 205.586 39.36H206.546C206.666 39.36 206.766 39.3867 206.846 39.44C206.926 39.4933 206.993 39.6067 207.046 39.78C207.126 39.98 207.246 40.2 207.406 40.44C207.566 40.6933 207.813 40.9067 208.146 41.08C208.48 41.2667 208.946 41.36 209.546 41.36C210.173 41.36 210.7 41.2733 211.126 41.1C211.553 40.9267 211.873 40.6333 212.086 40.22C212.313 39.8067 212.426 39.2333 212.426 38.5V37.14C212.106 37.5533 211.686 37.9 211.166 38.18C210.646 38.4467 209.993 38.58 209.206 38.58C208.46 38.58 207.82 38.4533 207.286 38.2C206.753 37.9333 206.313 37.58 205.966 37.14C205.633 36.6867 205.38 36.1733 205.206 35.6C205.046 35.0267 204.953 34.4267 204.926 33.8C204.913 33.4267 204.913 33.06 204.926 32.7C204.953 32.0733 205.046 31.4733 205.206 30.9C205.38 30.3267 205.633 29.8133 205.966 29.36C206.313 28.9067 206.753 28.5533 207.286 28.3C207.82 28.0333 208.46 27.9 209.206 27.9C210.006 27.9 210.666 28.0467 211.186 28.34C211.72 28.6333 212.153 29 212.486 29.44V28.58C212.486 28.4467 212.526 28.3333 212.606 28.24C212.7 28.1467 212.813 28.1 212.946 28.1H213.866C214 28.1 214.113 28.1467 214.206 28.24C214.3 28.3333 214.346 28.4467 214.346 28.58V38.28C214.346 39.1733 214.193 39.9667 213.886 40.66C213.593 41.3533 213.1 41.9 212.406 42.3C211.726 42.7 210.806 42.9 209.646 42.9ZM209.606 36.98C210.273 36.98 210.806 36.8267 211.206 36.52C211.62 36.2133 211.92 35.8267 212.106 35.36C212.306 34.8933 212.413 34.42 212.426 33.94C212.44 33.7533 212.446 33.5267 212.446 33.26C212.446 32.98 212.44 32.7467 212.426 32.56C212.413 32.08 212.306 31.6067 212.106 31.14C211.92 30.6733 211.62 30.2867 211.206 29.98C210.806 29.6733 210.273 29.52 209.606 29.52C208.94 29.52 208.406 29.6733 208.006 29.98C207.606 30.2733 207.32 30.6667 207.146 31.16C206.973 31.64 206.873 32.16 206.846 32.72C206.833 33.0667 206.833 33.42 206.846 33.78C206.873 34.34 206.973 34.8667 207.146 35.36C207.32 35.84 207.606 36.2333 208.006 36.54C208.406 36.8333 208.94 36.98 209.606 36.98Z" fill="#1C1F35"/>
<defs>
<linearGradient id="paint0_linear_1_1381" x1="-1.78608" y1="13.65" x2="77.4684" y2="19.2782" gradientUnits="userSpaceOnUse">
<stop stop-color="#FFB629"/>
<stop offset="0.507189" stop-color="#FFDA56"/>
<stop offset="1" stop-color="#FFD7A6"/>
</linearGradient>
</defs>
</svg>
