<svg width="220" height="63" viewBox="0 0 220 63" fill="none" xmlns="http://www.w3.org/2000/svg">
<circle cx="31.5" cy="31.5" r="31.5" fill="url(#paint0_linear_1_1398)"/>
<path d="M32 23V20" stroke="#1C1F35" stroke-width="2" stroke-linecap="round" stroke-linejoin="round"/>
<path d="M42 34.487C40.4792 39.8216 33.4375 41.6835 32.1875 41.9764C32.0645 42.0079 31.9355 42.0079 31.8125 41.9764C30.5625 41.6835 23.5208 39.8216 22 34.487V30.9096C22 30.7334 22.0554 30.5617 22.1582 30.4189C22.2611 30.2762 22.4062 30.1697 22.5729 30.1146L31.7396 27.0393C31.9093 26.9869 32.0907 26.9869 32.2604 27.0393L41.4271 30.1146C41.5938 30.1697 41.7389 30.2762 41.8418 30.4189C41.9446 30.5617 42 30.7334 42 30.9096V34.487Z" stroke="#1C1F35" stroke-width="2" stroke-linecap="round" stroke-linejoin="round"/>
<path d="M32 35V27" stroke="#1C1F35" stroke-width="2" stroke-linecap="round" stroke-linejoin="round"/>
<path d="M25 29V23.75C25 23.5511 25.0878 23.3603 25.2441 23.2197C25.4004 23.079 25.6123 23 25.8333 23H39.1667C39.3877 23 39.5996 23.079 39.7559 23.2197C39.9122 23.3603 40 23.5511 40 23.75V29" stroke="#1C1F35" stroke-width="2" stroke-linecap="round" stroke-linejoin="round"/>
<path d="M81.24 38.7C80.08 38.7 79.1067 38.5267 78.32 38.18C77.5333 37.82 76.9267 37.36 76.5 36.8C76.0867 36.2267 75.8667 35.62 75.84 34.98C75.84 34.8733 75.88 34.78 75.96 34.7C76.0533 34.6067 76.16 34.56 76.28 34.56H77.3C77.46 34.56 77.58 34.6 77.66 34.68C77.74 34.76 77.7933 34.8533 77.82 34.96C77.8867 35.28 78.0467 35.6 78.3 35.92C78.5667 36.2267 78.9333 36.4867 79.4 36.7C79.88 36.9 80.4933 37 81.24 37C82.3867 37 83.2267 36.8 83.76 36.4C84.3067 35.9867 84.58 35.44 84.58 34.76C84.58 34.2933 84.4333 33.92 84.14 33.64C83.86 33.3467 83.4267 33.0867 82.84 32.86C82.2533 32.6333 81.4933 32.3867 80.56 32.12C79.5867 31.84 78.78 31.5333 78.14 31.2C77.5 30.8667 77.02 30.4533 76.7 29.96C76.3933 29.4667 76.24 28.84 76.24 28.08C76.24 27.36 76.4333 26.72 76.82 26.16C77.2067 25.5867 77.76 25.1333 78.48 24.8C79.2133 24.4667 80.1 24.3 81.14 24.3C81.9667 24.3 82.6867 24.4133 83.3 24.64C83.9267 24.8533 84.4467 25.1467 84.86 25.52C85.2733 25.88 85.5867 26.2733 85.8 26.7C86.0133 27.1133 86.1267 27.52 86.14 27.92C86.14 28.0133 86.1067 28.1067 86.04 28.2C85.9733 28.28 85.8667 28.32 85.72 28.32H84.66C84.5667 28.32 84.4667 28.2933 84.36 28.24C84.2667 28.1867 84.1933 28.0867 84.14 27.94C84.06 27.3933 83.7533 26.9333 83.22 26.56C82.6867 26.1867 81.9933 26 81.14 26C80.2733 26 79.5667 26.1667 79.02 26.5C78.4867 26.8333 78.22 27.3533 78.22 28.06C78.22 28.5133 78.3467 28.8933 78.6 29.2C78.8533 29.4933 79.2533 29.7533 79.8 29.98C80.3467 30.2067 81.06 30.4467 81.94 30.7C83.0067 30.9933 83.88 31.3067 84.56 31.64C85.24 31.96 85.74 32.3667 86.06 32.86C86.3933 33.34 86.56 33.96 86.56 34.72C86.56 35.56 86.34 36.28 85.9 36.88C85.46 37.4667 84.84 37.92 84.04 38.24C83.2533 38.5467 82.32 38.7 81.24 38.7ZM89.4014 38.5C89.2681 38.5 89.1547 38.46 89.0614 38.38C88.9814 38.2867 88.9414 38.1733 88.9414 38.04V24.76C88.9414 24.6267 88.9814 24.52 89.0614 24.44C89.1547 24.3467 89.2681 24.3 89.4014 24.3H90.4014C90.5481 24.3 90.6614 24.3467 90.7414 24.44C90.8214 24.52 90.8614 24.6267 90.8614 24.76V29.42C91.2214 28.9667 91.6614 28.6 92.1814 28.32C92.7014 28.04 93.3614 27.9 94.1614 27.9C95.0281 27.9 95.7614 28.0933 96.3614 28.48C96.9747 28.8533 97.4347 29.38 97.7414 30.06C98.0614 30.7267 98.2214 31.5067 98.2214 32.4V38.04C98.2214 38.1733 98.1814 38.2867 98.1014 38.38C98.0214 38.46 97.9081 38.5 97.7614 38.5H96.7614C96.6281 38.5 96.5147 38.46 96.4214 38.38C96.3414 38.2867 96.3014 38.1733 96.3014 38.04V32.5C96.3014 31.5667 96.0747 30.84 95.6214 30.32C95.1681 29.7867 94.5014 29.52 93.6214 29.52C92.7947 29.52 92.1281 29.7867 91.6214 30.32C91.1147 30.84 90.8614 31.5667 90.8614 32.5V38.04C90.8614 38.1733 90.8214 38.2867 90.7414 38.38C90.6614 38.46 90.5481 38.5 90.4014 38.5H89.4014ZM101.569 38.5C101.436 38.5 101.322 38.46 101.229 38.38C101.149 38.2867 101.109 38.1733 101.109 38.04V28.56C101.109 28.4267 101.149 28.32 101.229 28.24C101.322 28.1467 101.436 28.1 101.569 28.1H102.529C102.662 28.1 102.769 28.1467 102.849 28.24C102.929 28.32 102.969 28.4267 102.969 28.56V38.04C102.969 38.1733 102.929 38.2867 102.849 38.38C102.769 38.46 102.662 38.5 102.529 38.5H101.569ZM101.409 26.16C101.276 26.16 101.162 26.12 101.069 26.04C100.989 25.9467 100.949 25.8333 100.949 25.7V24.62C100.949 24.4867 100.989 24.38 101.069 24.3C101.162 24.2067 101.276 24.16 101.409 24.16H102.669C102.802 24.16 102.909 24.2067 102.989 24.3C103.082 24.38 103.129 24.4867 103.129 24.62V25.7C103.129 25.8333 103.082 25.9467 102.989 26.04C102.909 26.12 102.802 26.16 102.669 26.16H101.409ZM106.628 42.3C106.495 42.3 106.381 42.2533 106.288 42.16C106.208 42.08 106.168 41.9733 106.168 41.84V28.56C106.168 28.4267 106.208 28.32 106.288 28.24C106.381 28.1467 106.495 28.1 106.628 28.1H107.548C107.681 28.1 107.788 28.1467 107.868 28.24C107.961 28.32 108.008 28.4267 108.008 28.56V29.44C108.328 29 108.755 28.6333 109.288 28.34C109.821 28.0467 110.488 27.9 111.288 27.9C112.035 27.9 112.668 28.0267 113.188 28.28C113.721 28.5333 114.155 28.88 114.488 29.32C114.835 29.76 115.095 30.26 115.268 30.82C115.441 31.38 115.535 31.98 115.548 32.62C115.561 32.8333 115.568 33.06 115.568 33.3C115.568 33.54 115.561 33.7667 115.548 33.98C115.535 34.6067 115.441 35.2067 115.268 35.78C115.095 36.34 114.835 36.84 114.488 37.28C114.155 37.7067 113.721 38.0533 113.188 38.32C112.668 38.5733 112.035 38.7 111.288 38.7C110.515 38.7 109.861 38.56 109.328 38.28C108.808 37.9867 108.381 37.6267 108.048 37.2V41.84C108.048 41.9733 108.008 42.08 107.928 42.16C107.848 42.2533 107.735 42.3 107.588 42.3H106.628ZM110.868 37.08C111.561 37.08 112.101 36.9333 112.488 36.64C112.888 36.3333 113.175 35.94 113.348 35.46C113.521 34.9667 113.621 34.44 113.648 33.88C113.661 33.4933 113.661 33.1067 113.648 32.72C113.621 32.16 113.521 31.64 113.348 31.16C113.175 30.6667 112.888 30.2733 112.488 29.98C112.101 29.6733 111.561 29.52 110.868 29.52C110.215 29.52 109.681 29.6733 109.268 29.98C108.868 30.2867 108.568 30.68 108.368 31.16C108.181 31.6267 108.075 32.1067 108.048 32.6C108.035 32.8133 108.028 33.0667 108.028 33.36C108.028 33.6533 108.035 33.9133 108.048 34.14C108.061 34.6067 108.168 35.0667 108.368 35.52C108.581 35.9733 108.895 36.3467 109.308 36.64C109.721 36.9333 110.241 37.08 110.868 37.08ZM123.684 38.5C123.538 38.5 123.424 38.46 123.344 38.38C123.264 38.2867 123.224 38.1733 123.224 38.04V24.98C123.224 24.8333 123.264 24.72 123.344 24.64C123.424 24.5467 123.538 24.5 123.684 24.5H131.944C132.091 24.5 132.204 24.5467 132.284 24.64C132.364 24.72 132.404 24.8333 132.404 24.98V25.74C132.404 25.8867 132.364 26 132.284 26.08C132.204 26.16 132.091 26.2 131.944 26.2H125.144V30.58H131.504C131.651 30.58 131.764 30.6267 131.844 30.72C131.924 30.8 131.964 30.9133 131.964 31.06V31.8C131.964 31.9333 131.924 32.0467 131.844 32.14C131.764 32.22 131.651 32.26 131.504 32.26H125.144V36.8H132.104C132.251 36.8 132.364 36.84 132.444 36.92C132.524 37 132.564 37.1133 132.564 37.26V38.04C132.564 38.1733 132.524 38.2867 132.444 38.38C132.364 38.46 132.251 38.5 132.104 38.5H123.684ZM138.42 38.5C138.22 38.5 138.06 38.4533 137.94 38.36C137.834 38.2667 137.747 38.1467 137.68 38L133.98 28.72C133.954 28.6533 133.94 28.5867 133.94 28.52C133.94 28.4 133.98 28.3 134.06 28.22C134.14 28.14 134.24 28.1 134.36 28.1H135.32C135.467 28.1 135.58 28.14 135.66 28.22C135.74 28.3 135.787 28.3733 135.8 28.44L138.86 36.32L141.9 28.44C141.927 28.3733 141.974 28.3 142.04 28.22C142.12 28.14 142.234 28.1 142.38 28.1H143.36C143.467 28.1 143.56 28.14 143.64 28.22C143.734 28.3 143.78 28.4 143.78 28.52C143.78 28.5867 143.767 28.6533 143.74 28.72L140.02 38C139.967 38.1467 139.88 38.2667 139.76 38.36C139.654 38.4533 139.494 38.5 139.28 38.5H138.42ZM149.643 38.7C148.27 38.7 147.177 38.28 146.363 37.44C145.55 36.5867 145.103 35.4267 145.023 33.96C145.01 33.7867 145.003 33.5667 145.003 33.3C145.003 33.02 145.01 32.7933 145.023 32.62C145.077 31.6733 145.297 30.8467 145.683 30.14C146.07 29.42 146.597 28.8667 147.263 28.48C147.943 28.0933 148.737 27.9 149.643 27.9C150.657 27.9 151.503 28.1133 152.183 28.54C152.877 28.9667 153.403 29.5733 153.763 30.36C154.123 31.1467 154.303 32.0667 154.303 33.12V33.46C154.303 33.6067 154.257 33.72 154.163 33.8C154.083 33.88 153.977 33.92 153.843 33.92H146.923C146.923 33.9333 146.923 33.96 146.923 34C146.923 34.04 146.923 34.0733 146.923 34.1C146.95 34.6467 147.07 35.16 147.283 35.64C147.497 36.1067 147.803 36.4867 148.203 36.78C148.603 37.0733 149.083 37.22 149.643 37.22C150.123 37.22 150.523 37.1467 150.843 37C151.163 36.8533 151.423 36.6933 151.623 36.52C151.823 36.3333 151.957 36.1933 152.023 36.1C152.143 35.9267 152.237 35.8267 152.303 35.8C152.37 35.76 152.477 35.74 152.623 35.74H153.583C153.717 35.74 153.823 35.78 153.903 35.86C153.997 35.9267 154.037 36.0267 154.023 36.16C154.01 36.36 153.903 36.6067 153.703 36.9C153.503 37.18 153.217 37.46 152.843 37.74C152.47 38.02 152.017 38.2533 151.483 38.44C150.95 38.6133 150.337 38.7 149.643 38.7ZM146.923 32.54H152.403V32.48C152.403 31.88 152.29 31.3467 152.063 30.88C151.85 30.4133 151.537 30.0467 151.123 29.78C150.71 29.5 150.217 29.36 149.643 29.36C149.07 29.36 148.577 29.5 148.163 29.78C147.763 30.0467 147.457 30.4133 147.243 30.88C147.03 31.3467 146.923 31.88 146.923 32.48V32.54ZM157.155 38.5C157.022 38.5 156.908 38.46 156.815 38.38C156.735 38.2867 156.695 38.1733 156.695 38.04V28.58C156.695 28.4467 156.735 28.3333 156.815 28.24C156.908 28.1467 157.022 28.1 157.155 28.1H158.075C158.208 28.1 158.322 28.1467 158.415 28.24C158.508 28.3333 158.555 28.4467 158.555 28.58V29.46C158.822 29.0067 159.188 28.6667 159.655 28.44C160.122 28.2133 160.682 28.1 161.335 28.1H162.135C162.268 28.1 162.375 28.1467 162.455 28.24C162.535 28.32 162.575 28.4267 162.575 28.56V29.38C162.575 29.5133 162.535 29.62 162.455 29.7C162.375 29.78 162.268 29.82 162.135 29.82H160.935C160.215 29.82 159.648 30.0333 159.235 30.46C158.822 30.8733 158.615 31.44 158.615 32.16V38.04C158.615 38.1733 158.568 38.2867 158.475 38.38C158.382 38.46 158.268 38.5 158.135 38.5H157.155ZM166.113 42.3C166.006 42.3 165.913 42.26 165.833 42.18C165.753 42.1 165.713 42.0067 165.713 41.9C165.713 41.8467 165.719 41.7933 165.733 41.74C165.746 41.6867 165.773 41.62 165.813 41.54L167.353 37.88L163.533 28.86C163.466 28.7 163.433 28.5867 163.433 28.52C163.433 28.4 163.473 28.3 163.553 28.22C163.633 28.14 163.733 28.1 163.853 28.1H164.833C164.966 28.1 165.073 28.1333 165.153 28.2C165.233 28.2667 165.286 28.3467 165.312 28.44L168.353 35.72L171.473 28.44C171.513 28.3467 171.566 28.2667 171.633 28.2C171.713 28.1333 171.826 28.1 171.973 28.1H172.912C173.032 28.1 173.133 28.14 173.213 28.22C173.293 28.3 173.333 28.3933 173.333 28.5C173.333 28.5667 173.299 28.6867 173.233 28.86L167.553 41.96C167.513 42.0533 167.453 42.1333 167.373 42.2C167.306 42.2667 167.199 42.3 167.053 42.3H166.113ZM178.068 38.5C177.895 38.5 177.761 38.46 177.668 38.38C177.575 38.2867 177.495 38.16 177.428 38L174.588 28.72C174.561 28.6533 174.548 28.5867 174.548 28.52C174.548 28.4 174.588 28.3 174.668 28.22C174.761 28.14 174.861 28.1 174.968 28.1H175.848C175.995 28.1 176.108 28.14 176.188 28.22C176.268 28.3 176.321 28.3733 176.348 28.44L178.568 35.98L180.948 28.52C180.975 28.4267 181.028 28.3333 181.108 28.24C181.201 28.1467 181.335 28.1 181.508 28.1H182.188C182.361 28.1 182.495 28.1467 182.588 28.24C182.681 28.3333 182.735 28.4267 182.748 28.52L185.128 35.98L187.348 28.44C187.361 28.3733 187.408 28.3 187.488 28.22C187.568 28.14 187.681 28.1 187.828 28.1H188.708C188.828 28.1 188.928 28.14 189.008 28.22C189.088 28.3 189.128 28.4 189.128 28.52C189.128 28.5867 189.115 28.6533 189.088 28.72L186.248 38C186.208 38.16 186.135 38.2867 186.028 38.38C185.935 38.46 185.795 38.5 185.608 38.5H184.828C184.655 38.5 184.508 38.46 184.388 38.38C184.281 38.2867 184.208 38.16 184.168 38L181.848 30.84L179.528 38C179.475 38.16 179.395 38.2867 179.288 38.38C179.181 38.46 179.035 38.5 178.848 38.5H178.068ZM193.95 38.7C193.284 38.7 192.677 38.5667 192.13 38.3C191.584 38.0333 191.144 37.6733 190.81 37.22C190.477 36.7667 190.31 36.2533 190.31 35.68C190.31 34.76 190.684 34.0267 191.43 33.48C192.177 32.9333 193.15 32.5733 194.35 32.4L197.33 31.98V31.4C197.33 30.76 197.144 30.26 196.77 29.9C196.41 29.54 195.817 29.36 194.99 29.36C194.39 29.36 193.904 29.48 193.53 29.72C193.17 29.96 192.917 30.2667 192.77 30.64C192.69 30.84 192.55 30.94 192.35 30.94H191.45C191.304 30.94 191.19 30.9 191.11 30.82C191.044 30.7267 191.01 30.62 191.01 30.5C191.01 30.3 191.084 30.0533 191.23 29.76C191.39 29.4667 191.63 29.18 191.95 28.9C192.27 28.62 192.677 28.3867 193.17 28.2C193.677 28 194.29 27.9 195.01 27.9C195.81 27.9 196.484 28.0067 197.03 28.22C197.577 28.42 198.004 28.6933 198.31 29.04C198.63 29.3867 198.857 29.78 198.99 30.22C199.137 30.66 199.21 31.1067 199.21 31.56V38.04C199.21 38.1733 199.164 38.2867 199.07 38.38C198.99 38.46 198.884 38.5 198.75 38.5H197.83C197.684 38.5 197.57 38.46 197.49 38.38C197.41 38.2867 197.37 38.1733 197.37 38.04V37.18C197.197 37.42 196.964 37.66 196.67 37.9C196.377 38.1267 196.01 38.32 195.57 38.48C195.13 38.6267 194.59 38.7 193.95 38.7ZM194.37 37.2C194.917 37.2 195.417 37.0867 195.87 36.86C196.324 36.62 196.677 36.2533 196.93 35.76C197.197 35.2667 197.33 34.6467 197.33 33.9V33.34L195.01 33.68C194.064 33.8133 193.35 34.04 192.87 34.36C192.39 34.6667 192.15 35.06 192.15 35.54C192.15 35.9133 192.257 36.2267 192.47 36.48C192.697 36.72 192.977 36.9 193.31 37.02C193.657 37.14 194.01 37.2 194.37 37.2ZM202.545 38.5C202.412 38.5 202.299 38.46 202.205 38.38C202.125 38.2867 202.085 38.1733 202.085 38.04V28.58C202.085 28.4467 202.125 28.3333 202.205 28.24C202.299 28.1467 202.412 28.1 202.545 28.1H203.465C203.599 28.1 203.712 28.1467 203.805 28.24C203.899 28.3333 203.945 28.4467 203.945 28.58V29.46C204.212 29.0067 204.579 28.6667 205.045 28.44C205.512 28.2133 206.072 28.1 206.725 28.1H207.525C207.659 28.1 207.765 28.1467 207.845 28.24C207.925 28.32 207.965 28.4267 207.965 28.56V29.38C207.965 29.5133 207.925 29.62 207.845 29.7C207.765 29.78 207.659 29.82 207.525 29.82H206.325C205.605 29.82 205.039 30.0333 204.625 30.46C204.212 30.8733 204.005 31.44 204.005 32.16V38.04C204.005 38.1733 203.959 38.2867 203.865 38.38C203.772 38.46 203.659 38.5 203.525 38.5H202.545ZM213.628 38.7C212.254 38.7 211.161 38.28 210.348 37.44C209.534 36.5867 209.088 35.4267 209.008 33.96C208.994 33.7867 208.988 33.5667 208.988 33.3C208.988 33.02 208.994 32.7933 209.008 32.62C209.061 31.6733 209.281 30.8467 209.668 30.14C210.054 29.42 210.581 28.8667 211.248 28.48C211.928 28.0933 212.721 27.9 213.628 27.9C214.641 27.9 215.488 28.1133 216.168 28.54C216.861 28.9667 217.388 29.5733 217.748 30.36C218.108 31.1467 218.288 32.0667 218.288 33.12V33.46C218.288 33.6067 218.241 33.72 218.148 33.8C218.068 33.88 217.961 33.92 217.828 33.92H210.908C210.908 33.9333 210.908 33.96 210.908 34C210.908 34.04 210.908 34.0733 210.908 34.1C210.934 34.6467 211.054 35.16 211.268 35.64C211.481 36.1067 211.788 36.4867 212.188 36.78C212.588 37.0733 213.068 37.22 213.628 37.22C214.108 37.22 214.508 37.1467 214.828 37C215.148 36.8533 215.408 36.6933 215.608 36.52C215.808 36.3333 215.941 36.1933 216.008 36.1C216.128 35.9267 216.221 35.8267 216.288 35.8C216.354 35.76 216.461 35.74 216.608 35.74H217.568C217.701 35.74 217.808 35.78 217.888 35.86C217.981 35.9267 218.021 36.0267 218.008 36.16C217.994 36.36 217.888 36.6067 217.688 36.9C217.488 37.18 217.201 37.46 216.828 37.74C216.454 38.02 216.001 38.2533 215.468 38.44C214.934 38.6133 214.321 38.7 213.628 38.7ZM210.908 32.54H216.388V32.48C216.388 31.88 216.274 31.3467 216.048 30.88C215.834 30.4133 215.521 30.0467 215.108 29.78C214.694 29.5 214.201 29.36 213.628 29.36C213.054 29.36 212.561 29.5 212.148 29.78C211.748 30.0467 211.441 30.4133 211.228 30.88C211.014 31.3467 210.908 31.88 210.908 32.48V32.54Z" fill="#1C1F35"/>
<defs>
<linearGradient id="paint0_linear_1_1398" x1="-1.78608" y1="13.65" x2="77.4684" y2="19.2782" gradientUnits="userSpaceOnUse">
<stop stop-color="#FFB629"/>
<stop offset="0.507189" stop-color="#FFDA56"/>
<stop offset="1" stop-color="#FFD7A6"/>
</linearGradient>
</defs>
</svg>
