<svg width="223" height="63" viewBox="0 0 223 63" fill="none" xmlns="http://www.w3.org/2000/svg">
<circle cx="31.5" cy="31.5" r="31.5" fill="url(#paint0_linear_1_1390)"/>
<path d="M32 42C38.0751 42 43 37.0751 43 31C43 24.9249 38.0751 20 32 20C25.9249 20 21 24.9249 21 31C21 37.0751 25.9249 42 32 42Z" stroke="#1C1F35" stroke-width="2" stroke-linecap="round" stroke-linejoin="round"/>
<path d="M32 25V31H39" stroke="#1C1F35" stroke-width="2" stroke-linecap="round" stroke-linejoin="round"/>
<path d="M77.2 38.5C77.0533 38.5 76.94 38.46 76.86 38.38C76.78 38.2867 76.74 38.1733 76.74 38.04V24.96C76.74 24.8267 76.78 24.72 76.86 24.64C76.94 24.5467 77.0533 24.5 77.2 24.5H78.26C78.4067 24.5 78.52 24.5467 78.6 24.64C78.68 24.72 78.72 24.8267 78.72 24.96V38.04C78.72 38.1733 78.68 38.2867 78.6 38.38C78.52 38.46 78.4067 38.5 78.26 38.5H77.2ZM82.4088 38.5C82.2754 38.5 82.1621 38.46 82.0688 38.38C81.9888 38.2867 81.9488 38.1733 81.9488 38.04V28.56C81.9488 28.4267 81.9888 28.32 82.0688 28.24C82.1621 28.1467 82.2754 28.1 82.4088 28.1H83.3488C83.4821 28.1 83.5888 28.1467 83.6688 28.24C83.7621 28.32 83.8088 28.4267 83.8088 28.56V29.44C84.1554 28.9867 84.5888 28.62 85.1088 28.34C85.6421 28.0467 86.3221 27.9 87.1488 27.9C88.0154 27.9 88.7488 28.0933 89.3488 28.48C89.9621 28.8533 90.4221 29.38 90.7288 30.06C91.0488 30.7267 91.2088 31.5067 91.2088 32.4V38.04C91.2088 38.1733 91.1621 38.2867 91.0688 38.38C90.9888 38.46 90.8821 38.5 90.7487 38.5H89.7488C89.6154 38.5 89.5021 38.46 89.4088 38.38C89.3288 38.2867 89.2888 38.1733 89.2888 38.04V32.5C89.2888 31.5667 89.0621 30.84 88.6088 30.32C88.1554 29.7867 87.4888 29.52 86.6088 29.52C85.7821 29.52 85.1154 29.7867 84.6088 30.32C84.1154 30.84 83.8688 31.5667 83.8688 32.5V38.04C83.8688 38.1733 83.8221 38.2867 83.7288 38.38C83.6488 38.46 83.5421 38.5 83.4087 38.5H82.4088ZM102.252 38.5C102.119 38.5 102.006 38.46 101.912 38.38C101.832 38.2867 101.792 38.1733 101.792 38.04V26.28H97.9522C97.8189 26.28 97.7055 26.24 97.6122 26.16C97.5322 26.0667 97.4922 25.9533 97.4922 25.82V24.98C97.4922 24.8333 97.5322 24.72 97.6122 24.64C97.7055 24.5467 97.8189 24.5 97.9522 24.5H107.592C107.739 24.5 107.852 24.5467 107.932 24.64C108.026 24.72 108.072 24.8333 108.072 24.98V25.82C108.072 25.9533 108.026 26.0667 107.932 26.16C107.852 26.24 107.739 26.28 107.592 26.28H103.772V38.04C103.772 38.1733 103.726 38.2867 103.632 38.38C103.552 38.46 103.439 38.5 103.292 38.5H102.252ZM110.456 38.5C110.322 38.5 110.209 38.46 110.116 38.38C110.036 38.2867 109.996 38.1733 109.996 38.04V28.56C109.996 28.4267 110.036 28.32 110.116 28.24C110.209 28.1467 110.322 28.1 110.456 28.1H111.416C111.549 28.1 111.656 28.1467 111.736 28.24C111.829 28.32 111.876 28.4267 111.876 28.56V38.04C111.876 38.1733 111.829 38.2867 111.736 38.38C111.656 38.46 111.549 38.5 111.416 38.5H110.456ZM110.296 26.16C110.162 26.16 110.049 26.12 109.956 26.04C109.876 25.9467 109.836 25.8333 109.836 25.7V24.62C109.836 24.4867 109.876 24.3733 109.956 24.28C110.049 24.1867 110.162 24.14 110.296 24.14H111.556C111.689 24.14 111.802 24.1867 111.896 24.28C111.989 24.3733 112.036 24.4867 112.036 24.62V25.7C112.036 25.8333 111.989 25.9467 111.896 26.04C111.802 26.12 111.689 26.16 111.556 26.16H110.296ZM115.299 38.5C115.166 38.5 115.053 38.46 114.959 38.38C114.879 38.2867 114.839 38.1733 114.839 38.04V28.56C114.839 28.4267 114.879 28.32 114.959 28.24C115.053 28.1467 115.166 28.1 115.299 28.1H116.199C116.333 28.1 116.439 28.1467 116.519 28.24C116.613 28.32 116.659 28.4267 116.659 28.56V29.26C116.966 28.8467 117.353 28.52 117.819 28.28C118.286 28.0267 118.846 27.9 119.499 27.9C121.006 27.8867 122.073 28.5 122.699 29.74C123.006 29.18 123.453 28.7333 124.039 28.4C124.626 28.0667 125.293 27.9 126.039 27.9C126.733 27.9 127.359 28.06 127.919 28.38C128.493 28.7 128.939 29.1867 129.259 29.84C129.593 30.48 129.759 31.2867 129.759 32.26V38.04C129.759 38.1733 129.713 38.2867 129.619 38.38C129.539 38.46 129.433 38.5 129.299 38.5H128.359C128.226 38.5 128.113 38.46 128.019 38.38C127.939 38.2867 127.899 38.1733 127.899 38.04V32.44C127.899 31.6933 127.793 31.1067 127.579 30.68C127.366 30.2533 127.079 29.9533 126.719 29.78C126.359 29.6067 125.966 29.52 125.539 29.52C125.193 29.52 124.839 29.6067 124.479 29.78C124.119 29.9533 123.819 30.2533 123.579 30.68C123.353 31.1067 123.239 31.6933 123.239 32.44V38.04C123.239 38.1733 123.193 38.2867 123.099 38.38C123.019 38.46 122.913 38.5 122.779 38.5H121.839C121.706 38.5 121.593 38.46 121.499 38.38C121.419 38.2867 121.379 38.1733 121.379 38.04V32.44C121.379 31.6933 121.266 31.1067 121.039 30.68C120.813 30.2533 120.519 29.9533 120.159 29.78C119.799 29.6067 119.419 29.52 119.019 29.52C118.673 29.52 118.319 29.6067 117.959 29.78C117.599 29.9533 117.299 30.2533 117.059 30.68C116.833 31.1067 116.719 31.6867 116.719 32.42V38.04C116.719 38.1733 116.673 38.2867 116.579 38.38C116.499 38.46 116.393 38.5 116.259 38.5H115.299ZM136.773 38.7C135.386 38.7 134.286 38.28 133.473 37.44C132.659 36.5867 132.213 35.4267 132.133 33.96C132.119 33.7867 132.113 33.5667 132.113 33.3C132.113 33.02 132.119 32.7933 132.133 32.62C132.186 31.6733 132.406 30.8467 132.793 30.14C133.179 29.42 133.706 28.8667 134.373 28.48C135.053 28.0933 135.846 27.9 136.753 27.9C137.766 27.9 138.613 28.1133 139.293 28.54C139.986 28.9667 140.513 29.5733 140.873 30.36C141.233 31.1467 141.413 32.0667 141.413 33.12V33.46C141.413 33.6067 141.366 33.72 141.273 33.8C141.193 33.88 141.086 33.92 140.953 33.92H134.033C134.033 33.9333 134.033 33.96 134.033 34C134.033 34.04 134.033 34.0733 134.033 34.1C134.059 34.6467 134.179 35.16 134.393 35.64C134.606 36.1067 134.913 36.4867 135.313 36.78C135.726 37.0733 136.206 37.22 136.753 37.22C137.233 37.22 137.633 37.1467 137.953 37C138.273 36.8533 138.533 36.6933 138.733 36.52C138.933 36.3333 139.066 36.1867 139.133 36.08C139.253 35.92 139.346 35.8267 139.413 35.8C139.479 35.76 139.586 35.74 139.733 35.74H140.713C140.833 35.74 140.933 35.78 141.013 35.86C141.106 35.9267 141.146 36.0267 141.133 36.16C141.119 36.36 141.013 36.6067 140.813 36.9C140.613 37.18 140.326 37.46 139.953 37.74C139.593 38.02 139.139 38.2533 138.593 38.44C138.059 38.6133 137.453 38.7 136.773 38.7ZM134.033 32.54H139.513V32.48C139.513 31.88 139.399 31.3467 139.173 30.88C138.959 30.4133 138.646 30.0467 138.233 29.78C137.819 29.5 137.326 29.36 136.753 29.36C136.179 29.36 135.686 29.5 135.273 29.78C134.873 30.0467 134.566 30.4133 134.353 30.88C134.139 31.3467 134.033 31.88 134.033 32.48V32.54ZM149.427 38.5C149.28 38.5 149.167 38.46 149.087 38.38C149.007 38.2867 148.967 38.1733 148.967 38.04V24.98C148.967 24.8333 149.007 24.72 149.087 24.64C149.167 24.5467 149.28 24.5 149.427 24.5H153.967C155.34 24.5 156.447 24.7067 157.287 25.12C158.127 25.5333 158.74 26.1467 159.127 26.96C159.513 27.76 159.713 28.7467 159.727 29.92C159.74 30.52 159.747 31.0467 159.747 31.5C159.747 31.9533 159.74 32.4733 159.727 33.06C159.7 34.2867 159.493 35.3067 159.107 36.12C158.733 36.92 158.133 37.52 157.307 37.92C156.493 38.3067 155.413 38.5 154.067 38.5H149.427ZM150.927 36.8H153.967C154.887 36.8 155.62 36.6733 156.167 36.42C156.713 36.1667 157.107 35.76 157.347 35.2C157.6 34.64 157.733 33.9 157.747 32.98C157.773 32.58 157.787 32.2333 157.787 31.94C157.787 31.6333 157.787 31.3333 157.787 31.04C157.787 30.7333 157.773 30.3867 157.747 30C157.72 28.7067 157.413 27.7533 156.827 27.14C156.24 26.5133 155.253 26.2 153.867 26.2H150.927V36.8ZM166.656 38.7C165.269 38.7 164.169 38.28 163.356 37.44C162.542 36.5867 162.096 35.4267 162.016 33.96C162.002 33.7867 161.996 33.5667 161.996 33.3C161.996 33.02 162.002 32.7933 162.016 32.62C162.069 31.6733 162.289 30.8467 162.676 30.14C163.062 29.42 163.589 28.8667 164.256 28.48C164.936 28.0933 165.729 27.9 166.636 27.9C167.649 27.9 168.496 28.1133 169.176 28.54C169.869 28.9667 170.396 29.5733 170.756 30.36C171.116 31.1467 171.296 32.0667 171.296 33.12V33.46C171.296 33.6067 171.249 33.72 171.156 33.8C171.076 33.88 170.969 33.92 170.836 33.92H163.916C163.916 33.9333 163.916 33.96 163.916 34C163.916 34.04 163.916 34.0733 163.916 34.1C163.942 34.6467 164.062 35.16 164.276 35.64C164.489 36.1067 164.796 36.4867 165.196 36.78C165.609 37.0733 166.089 37.22 166.636 37.22C167.116 37.22 167.516 37.1467 167.836 37C168.156 36.8533 168.416 36.6933 168.616 36.52C168.816 36.3333 168.949 36.1867 169.016 36.08C169.136 35.92 169.229 35.8267 169.296 35.8C169.362 35.76 169.469 35.74 169.616 35.74H170.596C170.716 35.74 170.816 35.78 170.896 35.86C170.989 35.9267 171.029 36.0267 171.016 36.16C171.002 36.36 170.896 36.6067 170.696 36.9C170.496 37.18 170.209 37.46 169.836 37.74C169.476 38.02 169.022 38.2533 168.476 38.44C167.942 38.6133 167.336 38.7 166.656 38.7ZM163.916 32.54H169.396V32.48C169.396 31.88 169.282 31.3467 169.056 30.88C168.842 30.4133 168.529 30.0467 168.116 29.78C167.702 29.5 167.209 29.36 166.636 29.36C166.062 29.36 165.569 29.5 165.156 29.78C164.756 30.0467 164.449 30.4133 164.236 30.88C164.022 31.3467 163.916 31.88 163.916 32.48V32.54ZM174.167 38.5C174.034 38.5 173.92 38.46 173.827 38.38C173.747 38.2867 173.707 38.1733 173.707 38.04V24.76C173.707 24.6267 173.747 24.52 173.827 24.44C173.92 24.3467 174.034 24.3 174.167 24.3H175.107C175.254 24.3 175.367 24.3467 175.447 24.44C175.527 24.52 175.567 24.6267 175.567 24.76V38.04C175.567 38.1733 175.527 38.2867 175.447 38.38C175.367 38.46 175.254 38.5 175.107 38.5H174.167ZM179.01 38.5C178.877 38.5 178.764 38.46 178.67 38.38C178.59 38.2867 178.55 38.1733 178.55 38.04V28.56C178.55 28.4267 178.59 28.32 178.67 28.24C178.764 28.1467 178.877 28.1 179.01 28.1H179.97C180.104 28.1 180.21 28.1467 180.29 28.24C180.384 28.32 180.43 28.4267 180.43 28.56V38.04C180.43 38.1733 180.384 38.2867 180.29 38.38C180.21 38.46 180.104 38.5 179.97 38.5H179.01ZM178.85 26.16C178.717 26.16 178.604 26.12 178.51 26.04C178.43 25.9467 178.39 25.8333 178.39 25.7V24.62C178.39 24.4867 178.43 24.3733 178.51 24.28C178.604 24.1867 178.717 24.14 178.85 24.14H180.11C180.244 24.14 180.357 24.1867 180.45 24.28C180.544 24.3733 180.59 24.4867 180.59 24.62V25.7C180.59 25.8333 180.544 25.9467 180.45 26.04C180.357 26.12 180.244 26.16 180.11 26.16H178.85ZM187.014 38.5C186.814 38.5 186.654 38.4533 186.534 38.36C186.427 38.2667 186.341 38.1467 186.274 38L182.574 28.72C182.547 28.6533 182.534 28.5867 182.534 28.52C182.534 28.4 182.574 28.3 182.654 28.22C182.734 28.14 182.834 28.1 182.954 28.1H183.914C184.061 28.1 184.174 28.14 184.254 28.22C184.334 28.3 184.387 28.3733 184.414 28.44L187.454 36.32L190.494 28.44C190.521 28.3733 190.567 28.3 190.634 28.22C190.714 28.14 190.827 28.1 190.974 28.1H191.954C192.061 28.1 192.154 28.14 192.234 28.22C192.327 28.3 192.374 28.4 192.374 28.52C192.374 28.5867 192.361 28.6533 192.334 28.72L188.614 38C188.561 38.1467 188.474 38.2667 188.354 38.36C188.247 38.4533 188.087 38.5 187.874 38.5H187.014ZM198.257 38.7C196.871 38.7 195.771 38.28 194.957 37.44C194.144 36.5867 193.697 35.4267 193.617 33.96C193.604 33.7867 193.597 33.5667 193.597 33.3C193.597 33.02 193.604 32.7933 193.617 32.62C193.671 31.6733 193.891 30.8467 194.277 30.14C194.664 29.42 195.191 28.8667 195.857 28.48C196.537 28.0933 197.331 27.9 198.237 27.9C199.251 27.9 200.097 28.1133 200.777 28.54C201.471 28.9667 201.997 29.5733 202.357 30.36C202.717 31.1467 202.897 32.0667 202.897 33.12V33.46C202.897 33.6067 202.851 33.72 202.757 33.8C202.677 33.88 202.571 33.92 202.437 33.92H195.517C195.517 33.9333 195.517 33.96 195.517 34C195.517 34.04 195.517 34.0733 195.517 34.1C195.544 34.6467 195.664 35.16 195.877 35.64C196.091 36.1067 196.397 36.4867 196.797 36.78C197.211 37.0733 197.691 37.22 198.237 37.22C198.717 37.22 199.117 37.1467 199.437 37C199.757 36.8533 200.017 36.6933 200.217 36.52C200.417 36.3333 200.551 36.1867 200.617 36.08C200.737 35.92 200.831 35.8267 200.897 35.8C200.964 35.76 201.071 35.74 201.217 35.74H202.197C202.317 35.74 202.417 35.78 202.497 35.86C202.591 35.9267 202.631 36.0267 202.617 36.16C202.604 36.36 202.497 36.6067 202.297 36.9C202.097 37.18 201.811 37.46 201.437 37.74C201.077 38.02 200.624 38.2533 200.077 38.44C199.544 38.6133 198.937 38.7 198.257 38.7ZM195.517 32.54H200.997V32.48C200.997 31.88 200.884 31.3467 200.657 30.88C200.444 30.4133 200.131 30.0467 199.717 29.78C199.304 29.5 198.811 29.36 198.237 29.36C197.664 29.36 197.171 29.5 196.757 29.78C196.357 30.0467 196.051 30.4133 195.837 30.88C195.624 31.3467 195.517 31.88 195.517 32.48V32.54ZM205.749 38.5C205.615 38.5 205.502 38.46 205.409 38.38C205.329 38.2867 205.289 38.1733 205.289 38.04V28.58C205.289 28.4467 205.329 28.3333 205.409 28.24C205.502 28.1467 205.615 28.1 205.749 28.1H206.669C206.802 28.1 206.915 28.1467 207.009 28.24C207.102 28.3333 207.149 28.4467 207.149 28.58V29.46C207.415 29.0067 207.782 28.6667 208.249 28.44C208.715 28.2133 209.282 28.1 209.949 28.1H210.729C210.862 28.1 210.969 28.1467 211.049 28.24C211.142 28.32 211.189 28.4267 211.189 28.56V29.38C211.189 29.5133 211.142 29.62 211.049 29.7C210.969 29.78 210.862 29.82 210.729 29.82H209.529C208.809 29.82 208.242 30.0333 207.829 30.46C207.415 30.8733 207.209 31.44 207.209 32.16V38.04C207.209 38.1733 207.162 38.2867 207.069 38.38C206.975 38.46 206.862 38.5 206.729 38.5H205.749ZM214.706 42.3C214.6 42.3 214.506 42.26 214.426 42.18C214.346 42.1 214.306 42.0067 214.306 41.9C214.306 41.8467 214.313 41.7933 214.326 41.74C214.34 41.6867 214.366 41.62 214.406 41.54L215.946 37.88L212.126 28.86C212.06 28.7 212.026 28.5867 212.026 28.52C212.026 28.4 212.066 28.3 212.146 28.22C212.226 28.14 212.326 28.1 212.446 28.1H213.426C213.573 28.1 213.68 28.1333 213.746 28.2C213.813 28.2667 213.866 28.3467 213.906 28.44L216.946 35.72L220.066 28.44C220.106 28.3467 220.16 28.2667 220.226 28.2C220.306 28.1333 220.42 28.1 220.566 28.1H221.506C221.626 28.1 221.726 28.14 221.806 28.22C221.886 28.3 221.926 28.3933 221.926 28.5C221.926 28.5667 221.893 28.6867 221.826 28.86L216.146 41.96C216.106 42.0533 216.046 42.1333 215.966 42.2C215.9 42.2667 215.793 42.3 215.646 42.3H214.706Z" fill="#1C1F35"/>
<defs>
<linearGradient id="paint0_linear_1_1390" x1="-1.78608" y1="13.65" x2="77.4684" y2="19.2782" gradientUnits="userSpaceOnUse">
<stop stop-color="#FFB629"/>
<stop offset="0.507189" stop-color="#FFDA56"/>
<stop offset="1" stop-color="#FFD7A6"/>
</linearGradient>
</defs>
</svg>
