<svg width="199" height="63" viewBox="0 0 199 63" fill="none" xmlns="http://www.w3.org/2000/svg">
<circle cx="31.5" cy="31.5001" r="31.5" fill="url(#paint0_linear_1_1408)"/>
<path d="M41 29.143H37.8579C37.4412 29.143 37.0416 29.3035 36.747 29.5893C36.4523 29.8751 36.2868 30.2626 36.2868 30.6668V34.4762C36.2868 34.8804 36.4523 35.2679 36.747 35.5537C37.0416 35.8395 37.4412 36 37.8579 36H39.4289C39.8456 36 40.2452 35.8395 40.5398 35.5537C40.8345 35.2679 41 34.8804 41 34.4762V29.143ZM41 29.143C41 27.9359 40.7536 26.7408 40.275 25.6266C39.7964 24.5123 39.095 23.501 38.2114 22.6511C37.3277 21.8011 36.2793 21.1292 35.1265 20.6743C33.9738 20.2193 32.7396 19.9903 31.4951 20.0003C30.2514 19.9915 29.0183 20.2215 27.8667 20.677C26.7151 21.1326 25.6678 21.8046 24.7852 22.6545C23.9026 23.5043 23.2021 24.5152 22.7241 25.6288C22.246 26.7424 22 27.9367 22 29.143V34.4762C22 34.8804 22.1655 35.2679 22.4602 35.5537C22.7548 35.8395 23.1544 36 23.5711 36H25.1421C25.5588 36 25.9584 35.8395 26.253 35.5537C26.5477 35.2679 26.7132 34.8804 26.7132 34.4762V30.6668C26.7132 30.2626 26.5477 29.8751 26.253 29.5893C25.9584 29.3035 25.5588 29.143 25.1421 29.143H22" stroke="#1C1F35" stroke-width="2" stroke-linecap="round" stroke-linejoin="round"/>
<path d="M41 35V37.1429C41 37.9006 40.661 38.6273 40.0575 39.1632C39.454 39.699 38.6356 40 37.7821 40H32" stroke="#1C1F35" stroke-width="2" stroke-linecap="round" stroke-linejoin="round"/>
<path d="M76.44 38.5C76.3067 38.5 76.1933 38.46 76.1 38.38C76.02 38.2867 75.98 38.1734 75.98 38.04V37.4C75.98 37.28 76.0133 37.1467 76.08 37C76.1467 36.8534 76.28 36.6934 76.48 36.52L80.72 32.28C81.4 31.7067 81.9333 31.22 82.32 30.82C82.72 30.4067 83 30.0134 83.16 29.64C83.3333 29.2667 83.42 28.88 83.42 28.48C83.42 27.72 83.2067 27.12 82.78 26.68C82.3533 26.2267 81.72 26 80.88 26C80.3467 26 79.8867 26.1134 79.5 26.34C79.1133 26.5534 78.8067 26.8534 78.58 27.24C78.3667 27.6134 78.2267 28.04 78.16 28.52C78.1333 28.6934 78.06 28.8134 77.94 28.88C77.8333 28.9467 77.7333 28.98 77.64 28.98H76.6C76.48 28.98 76.38 28.9467 76.3 28.88C76.22 28.8 76.18 28.7067 76.18 28.6C76.1933 28.0934 76.3 27.5867 76.5 27.08C76.7 26.56 76.9933 26.0934 77.38 25.68C77.78 25.2667 78.2667 24.9334 78.84 24.68C79.4267 24.4134 80.1067 24.28 80.88 24.28C81.9333 24.28 82.7933 24.4734 83.46 24.86C84.14 25.2334 84.64 25.7334 84.96 26.36C85.28 26.9867 85.44 27.6734 85.44 28.42C85.44 29.0067 85.34 29.5467 85.14 30.04C84.94 30.52 84.6467 30.9934 84.26 31.46C83.8867 31.9134 83.42 32.38 82.86 32.86L79.02 36.76H85.26C85.4067 36.76 85.52 36.8 85.6 36.88C85.6933 36.96 85.74 37.0734 85.74 37.22V38.04C85.74 38.1734 85.6933 38.2867 85.6 38.38C85.52 38.46 85.4067 38.5 85.26 38.5H76.44ZM94.563 38.5C94.4296 38.5 94.3163 38.46 94.223 38.38C94.143 38.2867 94.103 38.1734 94.103 38.04V35.16H87.623C87.4896 35.16 87.3763 35.12 87.283 35.04C87.203 34.9467 87.163 34.8334 87.163 34.7V33.9C87.163 33.8467 87.1763 33.7667 87.203 33.66C87.243 33.54 87.303 33.42 87.383 33.3L93.383 24.84C93.543 24.6134 93.7896 24.5 94.123 24.5H95.563C95.6963 24.5 95.803 24.5467 95.883 24.64C95.9763 24.72 96.023 24.8267 96.023 24.96V33.42H97.823C97.9696 33.42 98.083 33.4667 98.163 33.56C98.2563 33.64 98.303 33.7467 98.303 33.88V34.7C98.303 34.8334 98.2563 34.9467 98.163 35.04C98.083 35.12 97.9763 35.16 97.843 35.16H96.023V38.04C96.023 38.1734 95.9763 38.2867 95.883 38.38C95.803 38.46 95.6963 38.5 95.563 38.5H94.563ZM89.303 33.46H94.123V26.6L89.303 33.46ZM99.8458 40.18C99.7391 40.18 99.6458 40.14 99.5658 40.06C99.4858 39.98 99.4458 39.8867 99.4458 39.78C99.4458 39.7134 99.4658 39.6334 99.5058 39.54L106.346 23.14C106.386 23.06 106.439 22.98 106.506 22.9C106.586 22.82 106.706 22.78 106.866 22.78H107.646C107.752 22.78 107.846 22.82 107.926 22.9C108.006 22.98 108.046 23.0734 108.046 23.18C108.046 23.2334 108.032 23.3134 108.006 23.42L101.146 39.82C101.119 39.8867 101.059 39.96 100.966 40.04C100.886 40.1334 100.772 40.18 100.626 40.18H99.8458ZM111.535 38.5C111.415 38.5 111.315 38.46 111.235 38.38C111.168 38.2867 111.135 38.18 111.135 38.06C111.135 38.02 111.148 37.96 111.175 37.88L116.155 26.24H109.595C109.461 26.24 109.348 26.2 109.255 26.12C109.175 26.0267 109.135 25.9134 109.135 25.78V24.98C109.135 24.8334 109.175 24.72 109.255 24.64C109.348 24.5467 109.461 24.5 109.595 24.5H117.795C117.941 24.5 118.055 24.5467 118.135 24.64C118.228 24.72 118.275 24.8334 118.275 24.98V25.72C118.275 25.8934 118.261 26.0334 118.235 26.14C118.208 26.2467 118.168 26.3667 118.115 26.5L113.175 38C113.135 38.1067 113.068 38.22 112.975 38.34C112.895 38.4467 112.775 38.5 112.615 38.5H111.535ZM129.951 38.7C128.791 38.7 127.818 38.5267 127.031 38.18C126.244 37.82 125.638 37.36 125.211 36.8C124.798 36.2267 124.578 35.62 124.551 34.98C124.551 34.8734 124.591 34.78 124.671 34.7C124.764 34.6067 124.871 34.56 124.991 34.56H126.011C126.171 34.56 126.291 34.6 126.371 34.68C126.451 34.76 126.504 34.8534 126.531 34.96C126.598 35.28 126.758 35.6 127.011 35.92C127.278 36.2267 127.644 36.4867 128.111 36.7C128.591 36.9 129.204 37 129.951 37C131.098 37 131.938 36.8 132.471 36.4C133.018 35.9867 133.291 35.44 133.291 34.76C133.291 34.2934 133.144 33.92 132.851 33.64C132.571 33.3467 132.138 33.0867 131.551 32.86C130.964 32.6334 130.204 32.3867 129.271 32.12C128.298 31.84 127.491 31.5334 126.851 31.2C126.211 30.8667 125.731 30.4534 125.411 29.96C125.104 29.4667 124.951 28.84 124.951 28.08C124.951 27.36 125.144 26.72 125.531 26.16C125.918 25.5867 126.471 25.1334 127.191 24.8C127.924 24.4667 128.811 24.3 129.851 24.3C130.678 24.3 131.398 24.4134 132.011 24.64C132.638 24.8534 133.158 25.1467 133.571 25.52C133.984 25.88 134.298 26.2734 134.511 26.7C134.724 27.1134 134.838 27.52 134.851 27.92C134.851 28.0134 134.818 28.1067 134.751 28.2C134.684 28.28 134.578 28.32 134.431 28.32H133.371C133.278 28.32 133.178 28.2934 133.071 28.24C132.978 28.1867 132.904 28.0867 132.851 27.94C132.771 27.3934 132.464 26.9334 131.931 26.56C131.398 26.1867 130.704 26 129.851 26C128.984 26 128.278 26.1667 127.731 26.5C127.198 26.8334 126.931 27.3534 126.931 28.06C126.931 28.5134 127.058 28.8934 127.311 29.2C127.564 29.4934 127.964 29.7534 128.511 29.98C129.058 30.2067 129.771 30.4467 130.651 30.7C131.718 30.9934 132.591 31.3067 133.271 31.64C133.951 31.96 134.451 32.3667 134.771 32.86C135.104 33.34 135.271 33.96 135.271 34.72C135.271 35.56 135.051 36.28 134.611 36.88C134.171 37.4667 133.551 37.92 132.751 38.24C131.964 38.5467 131.031 38.7 129.951 38.7ZM141.512 38.7C140.659 38.7 139.932 38.5134 139.332 38.14C138.746 37.7534 138.299 37.22 137.992 36.54C137.686 35.86 137.532 35.08 137.532 34.2V28.56C137.532 28.4267 137.572 28.32 137.652 28.24C137.746 28.1467 137.859 28.1 137.992 28.1H138.992C139.126 28.1 139.232 28.1467 139.312 28.24C139.406 28.32 139.452 28.4267 139.452 28.56V34.1C139.452 36.0867 140.319 37.08 142.052 37.08C142.879 37.08 143.539 36.82 144.032 36.3C144.539 35.7667 144.792 35.0334 144.792 34.1V28.56C144.792 28.4267 144.832 28.32 144.912 28.24C145.006 28.1467 145.119 28.1 145.252 28.1H146.232C146.379 28.1 146.492 28.1467 146.572 28.24C146.652 28.32 146.692 28.4267 146.692 28.56V38.04C146.692 38.1734 146.652 38.2867 146.572 38.38C146.492 38.46 146.379 38.5 146.232 38.5H145.312C145.179 38.5 145.066 38.46 144.972 38.38C144.892 38.2867 144.852 38.1734 144.852 38.04V37.16C144.492 37.6267 144.052 38 143.532 38.28C143.026 38.56 142.352 38.7 141.512 38.7ZM150.144 42.3C150.01 42.3 149.897 42.2534 149.804 42.16C149.724 42.08 149.684 41.9734 149.684 41.84V28.56C149.684 28.4267 149.724 28.32 149.804 28.24C149.897 28.1467 150.01 28.1 150.144 28.1H151.064C151.197 28.1 151.304 28.1467 151.384 28.24C151.477 28.32 151.524 28.4267 151.524 28.56V29.44C151.844 29 152.27 28.6334 152.804 28.34C153.337 28.0467 154.004 27.9 154.804 27.9C155.55 27.9 156.184 28.0267 156.704 28.28C157.237 28.5334 157.67 28.88 158.004 29.32C158.35 29.76 158.61 30.26 158.784 30.82C158.957 31.38 159.05 31.98 159.064 32.62C159.077 32.8334 159.084 33.06 159.084 33.3C159.084 33.54 159.077 33.7667 159.064 33.98C159.05 34.6067 158.957 35.2067 158.784 35.78C158.61 36.34 158.35 36.84 158.004 37.28C157.67 37.7067 157.237 38.0534 156.704 38.32C156.184 38.5734 155.55 38.7 154.804 38.7C154.03 38.7 153.377 38.56 152.844 38.28C152.324 37.9867 151.897 37.6267 151.564 37.2V41.84C151.564 41.9734 151.524 42.08 151.444 42.16C151.364 42.2534 151.25 42.3 151.104 42.3H150.144ZM154.384 37.08C155.077 37.08 155.617 36.9334 156.004 36.64C156.404 36.3334 156.69 35.94 156.864 35.46C157.037 34.9667 157.137 34.44 157.164 33.88C157.177 33.4934 157.177 33.1067 157.164 32.72C157.137 32.16 157.037 31.64 156.864 31.16C156.69 30.6667 156.404 30.2734 156.004 29.98C155.617 29.6734 155.077 29.52 154.384 29.52C153.73 29.52 153.197 29.6734 152.784 29.98C152.384 30.2867 152.084 30.68 151.884 31.16C151.697 31.6267 151.59 32.1067 151.564 32.6C151.55 32.8134 151.544 33.0667 151.544 33.36C151.544 33.6534 151.55 33.9134 151.564 34.14C151.577 34.6067 151.684 35.0667 151.884 35.52C152.097 35.9734 152.41 36.3467 152.824 36.64C153.237 36.9334 153.757 37.08 154.384 37.08ZM162.058 42.3C161.924 42.3 161.811 42.2534 161.718 42.16C161.638 42.08 161.598 41.9734 161.598 41.84V28.56C161.598 28.4267 161.638 28.32 161.718 28.24C161.811 28.1467 161.924 28.1 162.058 28.1H162.978C163.111 28.1 163.218 28.1467 163.298 28.24C163.391 28.32 163.438 28.4267 163.438 28.56V29.44C163.758 29 164.184 28.6334 164.718 28.34C165.251 28.0467 165.918 27.9 166.718 27.9C167.464 27.9 168.098 28.0267 168.618 28.28C169.151 28.5334 169.584 28.88 169.918 29.32C170.264 29.76 170.524 30.26 170.698 30.82C170.871 31.38 170.964 31.98 170.978 32.62C170.991 32.8334 170.998 33.06 170.998 33.3C170.998 33.54 170.991 33.7667 170.978 33.98C170.964 34.6067 170.871 35.2067 170.698 35.78C170.524 36.34 170.264 36.84 169.918 37.28C169.584 37.7067 169.151 38.0534 168.618 38.32C168.098 38.5734 167.464 38.7 166.718 38.7C165.944 38.7 165.291 38.56 164.758 38.28C164.238 37.9867 163.811 37.6267 163.478 37.2V41.84C163.478 41.9734 163.438 42.08 163.358 42.16C163.278 42.2534 163.164 42.3 163.018 42.3H162.058ZM166.298 37.08C166.991 37.08 167.531 36.9334 167.918 36.64C168.318 36.3334 168.604 35.94 168.778 35.46C168.951 34.9667 169.051 34.44 169.078 33.88C169.091 33.4934 169.091 33.1067 169.078 32.72C169.051 32.16 168.951 31.64 168.778 31.16C168.604 30.6667 168.318 30.2734 167.918 29.98C167.531 29.6734 166.991 29.52 166.298 29.52C165.644 29.52 165.111 29.6734 164.698 29.98C164.298 30.2867 163.998 30.68 163.798 31.16C163.611 31.6267 163.504 32.1067 163.478 32.6C163.464 32.8134 163.458 33.0667 163.458 33.36C163.458 33.6534 163.464 33.9134 163.478 34.14C163.491 34.6067 163.598 35.0667 163.798 35.52C164.011 35.9734 164.324 36.3467 164.738 36.64C165.151 36.9334 165.671 37.08 166.298 37.08ZM177.752 38.7C176.738 38.7 175.892 38.5067 175.212 38.12C174.532 37.7334 174.012 37.2 173.652 36.52C173.292 35.8267 173.092 35.04 173.052 34.16C173.038 33.9334 173.032 33.6467 173.032 33.3C173.032 32.94 173.038 32.6534 173.052 32.44C173.092 31.5467 173.292 30.76 173.652 30.08C174.025 29.4 174.552 28.8667 175.232 28.48C175.912 28.0934 176.752 27.9 177.752 27.9C178.752 27.9 179.592 28.0934 180.272 28.48C180.952 28.8667 181.472 29.4 181.832 30.08C182.205 30.76 182.412 31.5467 182.452 32.44C182.465 32.6534 182.472 32.94 182.472 33.3C182.472 33.6467 182.465 33.9334 182.452 34.16C182.412 35.04 182.212 35.8267 181.852 36.52C181.492 37.2 180.972 37.7334 180.292 38.12C179.612 38.5067 178.765 38.7 177.752 38.7ZM177.752 37.16C178.578 37.16 179.238 36.9 179.732 36.38C180.225 35.8467 180.492 35.0734 180.532 34.06C180.545 33.86 180.552 33.6067 180.552 33.3C180.552 32.9934 180.545 32.74 180.532 32.54C180.492 31.5267 180.225 30.76 179.732 30.24C179.238 29.7067 178.578 29.44 177.752 29.44C176.925 29.44 176.258 29.7067 175.752 30.24C175.258 30.76 174.998 31.5267 174.972 32.54C174.958 32.74 174.952 32.9934 174.952 33.3C174.952 33.6067 174.958 33.86 174.972 34.06C174.998 35.0734 175.258 35.8467 175.752 36.38C176.258 36.9 176.925 37.16 177.752 37.16ZM185.436 38.5C185.303 38.5 185.189 38.46 185.096 38.38C185.016 38.2867 184.976 38.1734 184.976 38.04V28.58C184.976 28.4467 185.016 28.3334 185.096 28.24C185.189 28.1467 185.303 28.1 185.436 28.1H186.356C186.489 28.1 186.603 28.1467 186.696 28.24C186.789 28.3334 186.836 28.4467 186.836 28.58V29.46C187.103 29.0067 187.469 28.6667 187.936 28.44C188.403 28.2134 188.963 28.1 189.616 28.1H190.416C190.549 28.1 190.656 28.1467 190.736 28.24C190.816 28.32 190.856 28.4267 190.856 28.56V29.38C190.856 29.5134 190.816 29.62 190.736 29.7C190.656 29.78 190.549 29.82 190.416 29.82H189.216C188.496 29.82 187.929 30.0334 187.516 30.46C187.103 30.8734 186.896 31.44 186.896 32.16V38.04C186.896 38.1734 186.849 38.2867 186.756 38.38C186.663 38.46 186.549 38.5 186.416 38.5H185.436ZM196.634 38.5C195.887 38.5 195.28 38.36 194.814 38.08C194.347 37.7867 194.007 37.38 193.794 36.86C193.58 36.3267 193.474 35.7 193.474 34.98V29.7H191.914C191.78 29.7 191.667 29.66 191.574 29.58C191.494 29.4867 191.454 29.3734 191.454 29.24V28.56C191.454 28.4267 191.494 28.32 191.574 28.24C191.667 28.1467 191.78 28.1 191.914 28.1H193.474V24.76C193.474 24.6267 193.514 24.52 193.594 24.44C193.687 24.3467 193.8 24.3 193.934 24.3H194.874C195.007 24.3 195.114 24.3467 195.194 24.44C195.287 24.52 195.334 24.6267 195.334 24.76V28.1H197.814C197.947 28.1 198.054 28.1467 198.134 28.24C198.227 28.32 198.274 28.4267 198.274 28.56V29.24C198.274 29.3734 198.227 29.4867 198.134 29.58C198.054 29.66 197.947 29.7 197.814 29.7H195.334V34.84C195.334 35.4667 195.44 35.96 195.654 36.32C195.867 36.68 196.247 36.86 196.794 36.86H198.014C198.147 36.86 198.254 36.9067 198.334 37C198.427 37.08 198.474 37.1867 198.474 37.32V38.04C198.474 38.1734 198.427 38.2867 198.334 38.38C198.254 38.46 198.147 38.5 198.014 38.5H196.634Z" fill="#1C1F35"/>
<defs>
<linearGradient id="paint0_linear_1_1408" x1="-1.78608" y1="13.65" x2="77.4684" y2="19.2783" gradientUnits="userSpaceOnUse">
<stop stop-color="#FFB629"/>
<stop offset="0.507189" stop-color="#FFDA56"/>
<stop offset="1" stop-color="#FFD7A6"/>
</linearGradient>
</defs>
</svg>
