<svg width="258" height="63" viewBox="0 0 258 63" fill="none" xmlns="http://www.w3.org/2000/svg">
<circle cx="31.5" cy="31.5" r="31.5" fill="url(#paint0_linear_1_1415)"/>
<path d="M29.5 42C33.6421 42 37 37.0751 37 31C37 24.9249 33.6421 20 29.5 20C25.3579 20 22 24.9249 22 31C22 37.0751 25.3579 42 29.5 42Z" stroke="#1C1F35" stroke-width="2" stroke-linecap="round" stroke-linejoin="round"/>
<path d="M30 20H35.5385C39.1038 20 42 24.9271 42 31C42 37.0729 39.1038 42 35.5385 42H30" stroke="#1C1F35" stroke-width="2" stroke-linecap="round" stroke-linejoin="round"/>
<path d="M36 24L39 24" stroke="#1C1F35" stroke-width="2" stroke-linecap="round" stroke-linejoin="round"/>
<path d="M37 31H42" stroke="#1C1F35" stroke-width="2" stroke-linecap="round" stroke-linejoin="round"/>
<path d="M35 39H40" stroke="#1C1F35" stroke-width="2" stroke-linecap="round" stroke-linejoin="round"/>
<path d="M80.26 38.5C80.1267 38.5 80.0133 38.46 79.92 38.38C79.84 38.2867 79.8 38.1733 79.8 38.04V26.28H75.96C75.8267 26.28 75.7133 26.24 75.62 26.16C75.54 26.0667 75.5 25.9533 75.5 25.82V24.98C75.5 24.8333 75.54 24.72 75.62 24.64C75.7133 24.5467 75.8267 24.5 75.96 24.5H85.6C85.7467 24.5 85.86 24.5467 85.94 24.64C86.0333 24.72 86.08 24.8333 86.08 24.98V25.82C86.08 25.9533 86.0333 26.0667 85.94 26.16C85.86 26.24 85.7467 26.28 85.6 26.28H81.78V38.04C81.78 38.1733 81.7333 38.2867 81.64 38.38C81.56 38.46 81.4467 38.5 81.3 38.5H80.26ZM86.9009 38.5C86.7676 38.5 86.6543 38.46 86.5609 38.38C86.4809 38.2867 86.4409 38.1733 86.4409 38.04V28.58C86.4409 28.4467 86.4809 28.3333 86.5609 28.24C86.6543 28.1467 86.7676 28.1 86.9009 28.1H87.8209C87.9543 28.1 88.0676 28.1467 88.1609 28.24C88.2543 28.3333 88.3009 28.4467 88.3009 28.58V29.46C88.5676 29.0067 88.9343 28.6667 89.4009 28.44C89.8676 28.2133 90.4276 28.1 91.0809 28.1H91.8809C92.0143 28.1 92.1209 28.1467 92.2009 28.24C92.2809 28.32 92.3209 28.4267 92.3209 28.56V29.38C92.3209 29.5133 92.2809 29.62 92.2009 29.7C92.1209 29.78 92.0143 29.82 91.8809 29.82H90.6809C89.9609 29.82 89.3943 30.0333 88.9809 30.46C88.5676 30.8733 88.3609 31.44 88.3609 32.16V38.04C88.3609 38.1733 88.3143 38.2867 88.2209 38.38C88.1276 38.46 88.0143 38.5 87.8809 38.5H86.9009ZM96.7823 38.7C96.1157 38.7 95.509 38.5667 94.9623 38.3C94.4157 38.0333 93.9757 37.6733 93.6423 37.22C93.309 36.7667 93.1423 36.2533 93.1423 35.68C93.1423 34.76 93.5157 34.0267 94.2623 33.48C95.009 32.9333 95.9823 32.5733 97.1823 32.4L100.162 31.98V31.4C100.162 30.76 99.9757 30.26 99.6023 29.9C99.2423 29.54 98.649 29.36 97.8223 29.36C97.2223 29.36 96.7357 29.48 96.3623 29.72C96.0023 29.96 95.749 30.2667 95.6023 30.64C95.5223 30.84 95.3823 30.94 95.1823 30.94H94.2823C94.1357 30.94 94.0223 30.9 93.9423 30.82C93.8757 30.7267 93.8423 30.62 93.8423 30.5C93.8423 30.3 93.9157 30.0533 94.0623 29.76C94.2223 29.4667 94.4623 29.18 94.7823 28.9C95.1023 28.62 95.509 28.3867 96.0023 28.2C96.509 28 97.1223 27.9 97.8423 27.9C98.6423 27.9 99.3157 28.0067 99.8623 28.22C100.409 28.42 100.836 28.6933 101.142 29.04C101.462 29.3867 101.689 29.78 101.822 30.22C101.969 30.66 102.042 31.1067 102.042 31.56V38.04C102.042 38.1733 101.996 38.2867 101.902 38.38C101.822 38.46 101.716 38.5 101.582 38.5H100.662C100.516 38.5 100.402 38.46 100.322 38.38C100.242 38.2867 100.202 38.1733 100.202 38.04V37.18C100.029 37.42 99.7957 37.66 99.5023 37.9C99.209 38.1267 98.8423 38.32 98.4023 38.48C97.9623 38.6267 97.4223 38.7 96.7823 38.7ZM97.2023 37.2C97.749 37.2 98.249 37.0867 98.7023 36.86C99.1557 36.62 99.509 36.2533 99.7623 35.76C100.029 35.2667 100.162 34.6467 100.162 33.9V33.34L97.8423 33.68C96.8957 33.8133 96.1823 34.04 95.7023 34.36C95.2223 34.6667 94.9823 35.06 94.9823 35.54C94.9823 35.9133 95.089 36.2267 95.3023 36.48C95.529 36.72 95.809 36.9 96.1423 37.02C96.489 37.14 96.8423 37.2 97.2023 37.2ZM105.378 38.5C105.244 38.5 105.131 38.46 105.038 38.38C104.958 38.2867 104.918 38.1733 104.918 38.04V28.56C104.918 28.4267 104.958 28.32 105.038 28.24C105.131 28.1467 105.244 28.1 105.378 28.1H106.318C106.451 28.1 106.558 28.1467 106.638 28.24C106.731 28.32 106.778 28.4267 106.778 28.56V29.44C107.124 28.9867 107.558 28.62 108.078 28.34C108.611 28.0467 109.291 27.9 110.118 27.9C110.984 27.9 111.718 28.0933 112.318 28.48C112.931 28.8533 113.391 29.38 113.698 30.06C114.004 30.7267 114.158 31.5067 114.158 32.4V38.04C114.158 38.1733 114.118 38.2867 114.038 38.38C113.958 38.46 113.851 38.5 113.717 38.5H112.718C112.584 38.5 112.471 38.46 112.378 38.38C112.298 38.2867 112.258 38.1733 112.258 38.04V32.5C112.258 31.5667 112.031 30.84 111.578 30.32C111.124 29.7867 110.458 29.52 109.578 29.52C108.751 29.52 108.084 29.7867 107.578 30.32C107.084 30.84 106.838 31.5667 106.838 32.5V38.04C106.838 38.1733 106.791 38.2867 106.698 38.38C106.618 38.46 106.511 38.5 106.377 38.5H105.378ZM120.646 38.7C119.9 38.7 119.26 38.6067 118.726 38.42C118.193 38.2333 117.76 38.0067 117.426 37.74C117.093 37.4733 116.84 37.2067 116.666 36.94C116.506 36.6733 116.42 36.46 116.406 36.3C116.393 36.1533 116.44 36.04 116.546 35.96C116.653 35.88 116.76 35.84 116.866 35.84H117.746C117.826 35.84 117.886 35.8533 117.926 35.88C117.98 35.8933 118.046 35.9467 118.126 36.04C118.3 36.2267 118.493 36.4133 118.706 36.6C118.92 36.7867 119.18 36.94 119.486 37.06C119.806 37.18 120.2 37.24 120.666 37.24C121.346 37.24 121.906 37.1133 122.346 36.86C122.786 36.5933 123.006 36.2067 123.006 35.7C123.006 35.3667 122.913 35.1 122.726 34.9C122.553 34.7 122.233 34.52 121.766 34.36C121.313 34.2 120.686 34.0333 119.886 33.86C119.086 33.6733 118.453 33.4467 117.986 33.18C117.52 32.9 117.186 32.5733 116.986 32.2C116.786 31.8133 116.686 31.38 116.686 30.9C116.686 30.4067 116.833 29.9333 117.126 29.48C117.42 29.0133 117.846 28.6333 118.406 28.34C118.98 28.0467 119.693 27.9 120.546 27.9C121.24 27.9 121.833 27.9867 122.326 28.16C122.82 28.3333 123.226 28.5533 123.546 28.82C123.866 29.0733 124.106 29.3267 124.266 29.58C124.426 29.8333 124.513 30.0467 124.526 30.22C124.54 30.3533 124.5 30.4667 124.406 30.56C124.313 30.64 124.206 30.68 124.086 30.68H123.246C123.153 30.68 123.073 30.66 123.006 30.62C122.953 30.58 122.9 30.5333 122.846 30.48C122.713 30.3067 122.553 30.1333 122.366 29.96C122.193 29.7867 121.96 29.6467 121.666 29.54C121.386 29.42 121.013 29.36 120.546 29.36C119.88 29.36 119.38 29.5 119.046 29.78C118.713 30.06 118.546 30.4133 118.546 30.84C118.546 31.0933 118.62 31.32 118.766 31.52C118.913 31.72 119.193 31.9 119.606 32.06C120.02 32.22 120.633 32.3933 121.446 32.58C122.326 32.7533 123.02 32.9867 123.526 33.28C124.033 33.5733 124.393 33.9133 124.606 34.3C124.82 34.6867 124.926 35.1333 124.926 35.64C124.926 36.2 124.76 36.7133 124.426 37.18C124.106 37.6467 123.626 38.02 122.986 38.3C122.36 38.5667 121.58 38.7 120.646 38.7ZM127.722 42.3C127.588 42.3 127.475 42.2533 127.382 42.16C127.302 42.08 127.262 41.9733 127.262 41.84V28.56C127.262 28.4267 127.302 28.32 127.382 28.24C127.475 28.1467 127.588 28.1 127.722 28.1H128.642C128.775 28.1 128.882 28.1467 128.962 28.24C129.055 28.32 129.102 28.4267 129.102 28.56V29.44C129.422 29 129.848 28.6333 130.382 28.34C130.915 28.0467 131.582 27.9 132.382 27.9C133.128 27.9 133.762 28.0267 134.282 28.28C134.815 28.5333 135.248 28.88 135.582 29.32C135.928 29.76 136.188 30.26 136.362 30.82C136.535 31.38 136.628 31.98 136.642 32.62C136.655 32.8333 136.662 33.06 136.662 33.3C136.662 33.54 136.655 33.7667 136.642 33.98C136.628 34.6067 136.535 35.2067 136.362 35.78C136.188 36.34 135.928 36.84 135.582 37.28C135.248 37.7067 134.815 38.0533 134.282 38.32C133.762 38.5733 133.128 38.7 132.382 38.7C131.608 38.7 130.955 38.56 130.422 38.28C129.902 37.9867 129.475 37.6267 129.142 37.2V41.84C129.142 41.9733 129.102 42.08 129.022 42.16C128.942 42.2533 128.828 42.3 128.682 42.3H127.722ZM131.962 37.08C132.655 37.08 133.195 36.9333 133.582 36.64C133.982 36.3333 134.268 35.94 134.442 35.46C134.615 34.9667 134.715 34.44 134.742 33.88C134.755 33.4933 134.755 33.1067 134.742 32.72C134.715 32.16 134.615 31.64 134.442 31.16C134.268 30.6667 133.982 30.2733 133.582 29.98C133.195 29.6733 132.655 29.52 131.962 29.52C131.308 29.52 130.775 29.6733 130.362 29.98C129.962 30.2867 129.662 30.68 129.462 31.16C129.275 31.6267 129.168 32.1067 129.142 32.6C129.128 32.8133 129.122 33.0667 129.122 33.36C129.122 33.6533 129.128 33.9133 129.142 34.14C129.155 34.6067 129.262 35.0667 129.462 35.52C129.675 35.9733 129.988 36.3467 130.402 36.64C130.815 36.9333 131.335 37.08 131.962 37.08ZM142.056 38.7C141.389 38.7 140.782 38.5667 140.236 38.3C139.689 38.0333 139.249 37.6733 138.916 37.22C138.582 36.7667 138.416 36.2533 138.416 35.68C138.416 34.76 138.789 34.0267 139.536 33.48C140.282 32.9333 141.256 32.5733 142.456 32.4L145.436 31.98V31.4C145.436 30.76 145.249 30.26 144.876 29.9C144.516 29.54 143.922 29.36 143.096 29.36C142.496 29.36 142.009 29.48 141.636 29.72C141.276 29.96 141.022 30.2667 140.876 30.64C140.796 30.84 140.656 30.94 140.456 30.94H139.556C139.409 30.94 139.296 30.9 139.216 30.82C139.149 30.7267 139.116 30.62 139.116 30.5C139.116 30.3 139.189 30.0533 139.336 29.76C139.496 29.4667 139.736 29.18 140.056 28.9C140.376 28.62 140.782 28.3867 141.276 28.2C141.782 28 142.396 27.9 143.116 27.9C143.916 27.9 144.589 28.0067 145.136 28.22C145.682 28.42 146.109 28.6933 146.416 29.04C146.736 29.3867 146.962 29.78 147.096 30.22C147.242 30.66 147.316 31.1067 147.316 31.56V38.04C147.316 38.1733 147.269 38.2867 147.176 38.38C147.096 38.46 146.989 38.5 146.856 38.5H145.936C145.789 38.5 145.676 38.46 145.596 38.38C145.516 38.2867 145.476 38.1733 145.476 38.04V37.18C145.302 37.42 145.069 37.66 144.776 37.9C144.482 38.1267 144.116 38.32 143.676 38.48C143.236 38.6267 142.696 38.7 142.056 38.7ZM142.476 37.2C143.022 37.2 143.522 37.0867 143.976 36.86C144.429 36.62 144.782 36.2533 145.036 35.76C145.302 35.2667 145.436 34.6467 145.436 33.9V33.34L143.116 33.68C142.169 33.8133 141.456 34.04 140.976 34.36C140.496 34.6667 140.256 35.06 140.256 35.54C140.256 35.9133 140.362 36.2267 140.576 36.48C140.802 36.72 141.082 36.9 141.416 37.02C141.762 37.14 142.116 37.2 142.476 37.2ZM150.651 38.5C150.518 38.5 150.404 38.46 150.311 38.38C150.231 38.2867 150.191 38.1733 150.191 38.04V28.58C150.191 28.4467 150.231 28.3333 150.311 28.24C150.404 28.1467 150.518 28.1 150.651 28.1H151.571C151.704 28.1 151.818 28.1467 151.911 28.24C152.004 28.3333 152.051 28.4467 152.051 28.58V29.46C152.318 29.0067 152.684 28.6667 153.151 28.44C153.618 28.2133 154.178 28.1 154.831 28.1H155.631C155.764 28.1 155.871 28.1467 155.951 28.24C156.031 28.32 156.071 28.4267 156.071 28.56V29.38C156.071 29.5133 156.031 29.62 155.951 29.7C155.871 29.78 155.764 29.82 155.631 29.82H154.431C153.711 29.82 153.144 30.0333 152.731 30.46C152.318 30.8733 152.111 31.44 152.111 32.16V38.04C152.111 38.1733 152.064 38.2867 151.971 38.38C151.878 38.46 151.764 38.5 151.631 38.5H150.651ZM160.532 38.7C159.866 38.7 159.259 38.5667 158.712 38.3C158.166 38.0333 157.726 37.6733 157.392 37.22C157.059 36.7667 156.892 36.2533 156.892 35.68C156.892 34.76 157.266 34.0267 158.012 33.48C158.759 32.9333 159.732 32.5733 160.932 32.4L163.912 31.98V31.4C163.912 30.76 163.726 30.26 163.352 29.9C162.992 29.54 162.399 29.36 161.572 29.36C160.972 29.36 160.486 29.48 160.112 29.72C159.752 29.96 159.499 30.2667 159.352 30.64C159.272 30.84 159.132 30.94 158.932 30.94H158.032C157.886 30.94 157.772 30.9 157.692 30.82C157.626 30.7267 157.592 30.62 157.592 30.5C157.592 30.3 157.666 30.0533 157.812 29.76C157.972 29.4667 158.212 29.18 158.532 28.9C158.852 28.62 159.259 28.3867 159.752 28.2C160.259 28 160.872 27.9 161.592 27.9C162.392 27.9 163.066 28.0067 163.612 28.22C164.159 28.42 164.586 28.6933 164.892 29.04C165.212 29.3867 165.439 29.78 165.572 30.22C165.719 30.66 165.792 31.1067 165.792 31.56V38.04C165.792 38.1733 165.746 38.2867 165.652 38.38C165.572 38.46 165.466 38.5 165.332 38.5H164.412C164.266 38.5 164.152 38.46 164.072 38.38C163.992 38.2867 163.952 38.1733 163.952 38.04V37.18C163.779 37.42 163.546 37.66 163.252 37.9C162.959 38.1267 162.592 38.32 162.152 38.48C161.712 38.6267 161.172 38.7 160.532 38.7ZM160.952 37.2C161.499 37.2 161.999 37.0867 162.452 36.86C162.906 36.62 163.259 36.2533 163.512 35.76C163.779 35.2667 163.912 34.6467 163.912 33.9V33.34L161.592 33.68C160.646 33.8133 159.932 34.04 159.452 34.36C158.972 34.6667 158.732 35.06 158.732 35.54C158.732 35.9133 158.839 36.2267 159.052 36.48C159.279 36.72 159.559 36.9 159.892 37.02C160.239 37.14 160.592 37.2 160.952 37.2ZM169.128 38.5C168.994 38.5 168.881 38.46 168.788 38.38C168.708 38.2867 168.668 38.1733 168.668 38.04V28.56C168.668 28.4267 168.708 28.32 168.788 28.24C168.881 28.1467 168.994 28.1 169.128 28.1H170.068C170.201 28.1 170.308 28.1467 170.388 28.24C170.481 28.32 170.528 28.4267 170.528 28.56V29.44C170.874 28.9867 171.308 28.62 171.828 28.34C172.361 28.0467 173.041 27.9 173.868 27.9C174.734 27.9 175.468 28.0933 176.068 28.48C176.681 28.8533 177.141 29.38 177.448 30.06C177.754 30.7267 177.908 31.5067 177.908 32.4V38.04C177.908 38.1733 177.868 38.2867 177.788 38.38C177.708 38.46 177.601 38.5 177.467 38.5H176.468C176.334 38.5 176.221 38.46 176.128 38.38C176.048 38.2867 176.008 38.1733 176.008 38.04V32.5C176.008 31.5667 175.781 30.84 175.328 30.32C174.874 29.7867 174.208 29.52 173.328 29.52C172.501 29.52 171.834 29.7867 171.328 30.32C170.834 30.84 170.588 31.5667 170.588 32.5V38.04C170.588 38.1733 170.541 38.2867 170.448 38.38C170.368 38.46 170.261 38.5 170.127 38.5H169.128ZM184.72 38.5C183.973 38.5 183.366 38.36 182.9 38.08C182.433 37.7867 182.093 37.38 181.88 36.86C181.666 36.3267 181.56 35.7 181.56 34.98V29.7H180C179.866 29.7 179.753 29.66 179.66 29.58C179.58 29.4867 179.54 29.3733 179.54 29.24V28.56C179.54 28.4267 179.58 28.32 179.66 28.24C179.753 28.1467 179.866 28.1 180 28.1H181.56V24.76C181.56 24.6267 181.6 24.52 181.68 24.44C181.773 24.3467 181.886 24.3 182.02 24.3H182.96C183.093 24.3 183.2 24.3467 183.28 24.44C183.373 24.52 183.42 24.6267 183.42 24.76V28.1H185.9C186.033 28.1 186.14 28.1467 186.22 28.24C186.313 28.32 186.36 28.4267 186.36 28.56V29.24C186.36 29.3733 186.313 29.4867 186.22 29.58C186.14 29.66 186.033 29.7 185.9 29.7H183.42V34.84C183.42 35.4667 183.526 35.96 183.74 36.32C183.953 36.68 184.333 36.86 184.88 36.86H186.1C186.233 36.86 186.34 36.9067 186.42 37C186.513 37.08 186.56 37.1867 186.56 37.32V38.04C186.56 38.1733 186.513 38.2867 186.42 38.38C186.34 38.46 186.233 38.5 186.1 38.5H184.72ZM194.095 38.5C193.948 38.5 193.835 38.46 193.755 38.38C193.675 38.2867 193.635 38.1733 193.635 38.04V24.98C193.635 24.8333 193.675 24.72 193.755 24.64C193.835 24.5467 193.948 24.5 194.095 24.5H199.175C200.161 24.5 201.015 24.66 201.735 24.98C202.468 25.3 203.035 25.78 203.435 26.42C203.835 27.0467 204.035 27.8333 204.035 28.78C204.035 29.7267 203.835 30.5133 203.435 31.14C203.035 31.7667 202.468 32.24 201.735 32.56C201.015 32.88 200.161 33.04 199.175 33.04H195.635V38.04C195.635 38.1733 195.588 38.2867 195.495 38.38C195.415 38.46 195.301 38.5 195.155 38.5H194.095ZM195.615 31.36H199.075C200.061 31.36 200.801 31.14 201.295 30.7C201.788 30.26 202.035 29.62 202.035 28.78C202.035 27.9533 201.795 27.3133 201.315 26.86C200.835 26.4067 200.088 26.18 199.075 26.18H195.615V31.36ZM206.667 38.5C206.533 38.5 206.42 38.46 206.327 38.38C206.247 38.2867 206.207 38.1733 206.207 38.04V28.58C206.207 28.4467 206.247 28.3333 206.327 28.24C206.42 28.1467 206.533 28.1 206.667 28.1H207.587C207.72 28.1 207.833 28.1467 207.927 28.24C208.02 28.3333 208.067 28.4467 208.067 28.58V29.46C208.333 29.0067 208.7 28.6667 209.167 28.44C209.633 28.2133 210.193 28.1 210.847 28.1H211.647C211.78 28.1 211.887 28.1467 211.967 28.24C212.047 28.32 212.087 28.4267 212.087 28.56V29.38C212.087 29.5133 212.047 29.62 211.967 29.7C211.887 29.78 211.78 29.82 211.647 29.82H210.447C209.727 29.82 209.16 30.0333 208.747 30.46C208.333 30.8733 208.127 31.44 208.127 32.16V38.04C208.127 38.1733 208.08 38.2867 207.987 38.38C207.893 38.46 207.78 38.5 207.647 38.5H206.667ZM214.264 38.5C214.131 38.5 214.018 38.46 213.924 38.38C213.844 38.2867 213.804 38.1733 213.804 38.04V28.56C213.804 28.4267 213.844 28.32 213.924 28.24C214.018 28.1467 214.131 28.1 214.264 28.1H215.224C215.358 28.1 215.464 28.1467 215.544 28.24C215.624 28.32 215.664 28.4267 215.664 28.56V38.04C215.664 38.1733 215.624 38.2867 215.544 38.38C215.464 38.46 215.358 38.5 215.224 38.5H214.264ZM214.104 26.16C213.971 26.16 213.858 26.12 213.764 26.04C213.684 25.9467 213.644 25.8333 213.644 25.7V24.62C213.644 24.4867 213.684 24.38 213.764 24.3C213.858 24.2067 213.971 24.16 214.104 24.16H215.364C215.498 24.16 215.604 24.2067 215.684 24.3C215.778 24.38 215.824 24.4867 215.824 24.62V25.7C215.824 25.8333 215.778 25.9467 215.684 26.04C215.604 26.12 215.498 26.16 215.364 26.16H214.104ZM222.887 38.7C221.94 38.7 221.12 38.52 220.427 38.16C219.747 37.7867 219.22 37.26 218.847 36.58C218.474 35.8867 218.274 35.06 218.247 34.1C218.234 33.9 218.227 33.6333 218.227 33.3C218.227 32.9667 218.234 32.7 218.247 32.5C218.274 31.54 218.474 30.72 218.847 30.04C219.22 29.3467 219.747 28.82 220.427 28.46C221.12 28.0867 221.94 27.9 222.887 27.9C223.66 27.9 224.32 28.0067 224.867 28.22C225.427 28.4333 225.887 28.7067 226.247 29.04C226.607 29.3733 226.874 29.7333 227.047 30.12C227.234 30.5067 227.334 30.8733 227.347 31.22C227.36 31.3533 227.32 31.46 227.227 31.54C227.134 31.62 227.02 31.66 226.887 31.66H225.927C225.794 31.66 225.694 31.6333 225.627 31.58C225.56 31.5133 225.494 31.4067 225.427 31.26C225.187 30.6067 224.86 30.1467 224.447 29.88C224.034 29.6133 223.52 29.48 222.907 29.48C222.107 29.48 221.454 29.7267 220.947 30.22C220.454 30.7133 220.187 31.5067 220.147 32.6C220.134 33.08 220.134 33.5467 220.147 34C220.187 35.1067 220.454 35.9067 220.947 36.4C221.454 36.88 222.107 37.12 222.907 37.12C223.52 37.12 224.034 36.9867 224.447 36.72C224.86 36.4533 225.187 35.9933 225.427 35.34C225.494 35.1933 225.56 35.0933 225.627 35.04C225.694 34.9733 225.794 34.94 225.927 34.94H226.887C227.02 34.94 227.134 34.98 227.227 35.06C227.32 35.14 227.36 35.2467 227.347 35.38C227.334 35.66 227.274 35.9467 227.167 36.24C227.06 36.5333 226.887 36.8333 226.647 37.14C226.42 37.4333 226.134 37.7 225.787 37.94C225.44 38.1667 225.02 38.3533 224.527 38.5C224.047 38.6333 223.5 38.7 222.887 38.7ZM230.182 38.5C230.049 38.5 229.936 38.46 229.842 38.38C229.762 38.2867 229.722 38.1733 229.722 38.04V28.56C229.722 28.4267 229.762 28.32 229.842 28.24C229.936 28.1467 230.049 28.1 230.182 28.1H231.142C231.276 28.1 231.382 28.1467 231.462 28.24C231.542 28.32 231.582 28.4267 231.582 28.56V38.04C231.582 38.1733 231.542 38.2867 231.462 38.38C231.382 38.46 231.276 38.5 231.142 38.5H230.182ZM230.022 26.16C229.889 26.16 229.776 26.12 229.682 26.04C229.602 25.9467 229.562 25.8333 229.562 25.7V24.62C229.562 24.4867 229.602 24.38 229.682 24.3C229.776 24.2067 229.889 24.16 230.022 24.16H231.282C231.416 24.16 231.522 24.2067 231.602 24.3C231.696 24.38 231.742 24.4867 231.742 24.62V25.7C231.742 25.8333 231.696 25.9467 231.602 26.04C231.522 26.12 231.416 26.16 231.282 26.16H230.022ZM235.221 38.5C235.088 38.5 234.975 38.46 234.881 38.38C234.801 38.2867 234.761 38.1733 234.761 38.04V28.56C234.761 28.4267 234.801 28.32 234.881 28.24C234.975 28.1467 235.088 28.1 235.221 28.1H236.161C236.295 28.1 236.401 28.1467 236.481 28.24C236.575 28.32 236.621 28.4267 236.621 28.56V29.44C236.968 28.9867 237.401 28.62 237.921 28.34C238.455 28.0467 239.135 27.9 239.961 27.9C240.828 27.9 241.561 28.0933 242.161 28.48C242.775 28.8533 243.235 29.38 243.541 30.06C243.848 30.7267 244.001 31.5067 244.001 32.4V38.04C244.001 38.1733 243.961 38.2867 243.881 38.38C243.801 38.46 243.695 38.5 243.561 38.5H242.561C242.428 38.5 242.315 38.46 242.221 38.38C242.141 38.2867 242.101 38.1733 242.101 38.04V32.5C242.101 31.5667 241.875 30.84 241.421 30.32C240.968 29.7867 240.301 29.52 239.421 29.52C238.595 29.52 237.928 29.7867 237.421 30.32C236.928 30.84 236.681 31.5667 236.681 32.5V38.04C236.681 38.1733 236.635 38.2867 236.541 38.38C236.461 38.46 236.355 38.5 236.221 38.5H235.221ZM251.15 42.9C250.243 42.9 249.497 42.78 248.91 42.54C248.337 42.3 247.883 42.0067 247.55 41.66C247.23 41.3267 246.997 40.9867 246.85 40.64C246.717 40.3067 246.643 40.04 246.63 39.84C246.617 39.7067 246.657 39.5933 246.75 39.5C246.857 39.4067 246.97 39.36 247.09 39.36H248.05C248.17 39.36 248.27 39.3867 248.35 39.44C248.43 39.4933 248.497 39.6067 248.55 39.78C248.63 39.98 248.75 40.2 248.91 40.44C249.07 40.6933 249.317 40.9067 249.65 41.08C249.983 41.2667 250.45 41.36 251.05 41.36C251.677 41.36 252.203 41.2733 252.63 41.1C253.057 40.94 253.377 40.6467 253.59 40.22C253.817 39.8067 253.93 39.2333 253.93 38.5V37.14C253.61 37.5533 253.19 37.9 252.67 38.18C252.15 38.4467 251.497 38.58 250.71 38.58C249.963 38.58 249.323 38.4533 248.79 38.2C248.257 37.9333 247.817 37.58 247.47 37.14C247.137 36.6867 246.883 36.1733 246.71 35.6C246.55 35.0267 246.457 34.4267 246.43 33.8C246.417 33.4267 246.417 33.06 246.43 32.7C246.457 32.0733 246.55 31.4733 246.71 30.9C246.883 30.3267 247.137 29.8133 247.47 29.36C247.817 28.9067 248.257 28.5533 248.79 28.3C249.323 28.0333 249.963 27.9 250.71 27.9C251.51 27.9 252.17 28.0533 252.69 28.36C253.223 28.6533 253.657 29.0133 253.99 29.44V28.58C253.99 28.4467 254.03 28.3333 254.11 28.24C254.203 28.1467 254.317 28.1 254.45 28.1H255.37C255.503 28.1 255.617 28.1467 255.71 28.24C255.803 28.3333 255.85 28.4467 255.85 28.58V38.28C255.85 39.1733 255.697 39.9667 255.39 40.66C255.097 41.3533 254.603 41.9 253.91 42.3C253.23 42.7 252.31 42.9 251.15 42.9ZM251.11 36.98C251.777 36.98 252.31 36.8267 252.71 36.52C253.123 36.2133 253.423 35.8267 253.61 35.36C253.81 34.8933 253.917 34.42 253.93 33.94C253.943 33.7533 253.95 33.5267 253.95 33.26C253.95 32.98 253.943 32.7467 253.93 32.56C253.917 32.08 253.81 31.6067 253.61 31.14C253.423 30.6733 253.123 30.2867 252.71 29.98C252.31 29.6733 251.777 29.52 251.11 29.52C250.443 29.52 249.91 29.6733 249.51 29.98C249.11 30.2733 248.823 30.6667 248.65 31.16C248.477 31.64 248.377 32.16 248.35 32.72C248.337 33.0667 248.337 33.42 248.35 33.78C248.377 34.34 248.477 34.8667 248.65 35.36C248.823 35.84 249.11 36.2333 249.51 36.54C249.91 36.8333 250.443 36.98 251.11 36.98Z" fill="#1C1F35"/>
<defs>
<linearGradient id="paint0_linear_1_1415" x1="-1.78608" y1="13.65" x2="77.4684" y2="19.2782" gradientUnits="userSpaceOnUse">
<stop stop-color="#FFB629"/>
<stop offset="0.507189" stop-color="#FFDA56"/>
<stop offset="1" stop-color="#FFD7A6"/>
</linearGradient>
</defs>
</svg>
